<?xml version="1.0" encoding="utf-8" standalone="no"?>
<!DOCTYPE svg PUBLIC "-//W3C//DTD SVG 1.1//EN"
  "http://www.w3.org/Graphics/SVG/1.1/DTD/svg11.dtd">
<svg xmlns:xlink="http://www.w3.org/1999/xlink" width="505.914721pt" height="194.159538pt" viewBox="0 0 505.914721 194.159538" xmlns="http://www.w3.org/2000/svg" version="1.1">
 <metadata>
  <rdf:RDF xmlns:dc="http://purl.org/dc/elements/1.1/" xmlns:cc="http://creativecommons.org/ns#" xmlns:rdf="http://www.w3.org/1999/02/22-rdf-syntax-ns#">
   <cc:Work>
    <dc:type rdf:resource="http://purl.org/dc/dcmitype/StillImage"/>
    <dc:date>2026-07-14T02:59:04.993092</dc:date>
    <dc:format>image/svg+xml</dc:format>
    <dc:creator>
     <cc:Agent>
      <dc:title>Matplotlib v3.8.4, https://matplotlib.org/</dc:title>
     </cc:Agent>
    </dc:creator>
   </cc:Work>
  </rdf:RDF>
 </metadata>
 <defs>
  <style type="text/css">*{stroke-linejoin: round; stroke-linecap: butt}</style>
 </defs>
 <g id="figure_1">
  <g id="patch_1">
   <path d="M 0 194.159538 
L 505.914721 194.159538 
L 505.914721 0 
L 0 0 
z
" style="fill: #ffffff"/>
  </g>
  <g id="axes_1">
   <g id="patch_2">
    <path d="M 32.236624 163.723444 
L 247.069651 163.723444 
L 247.069651 13.306872 
L 32.236624 13.306872 
z
" style="fill: #ffffff"/>
   </g>
   <g id="matplotlib.axis_1">
    <g id="xtick_1">
     <g id="line2d_1">
      <path d="M 56.383692 163.723444 
L 56.383692 13.306872 
" clip-path="url(#p02821ee93f)" style="fill: none; stroke-dasharray: 0.55,0.9075; stroke-dashoffset: 0; stroke: #b0b0b0; stroke-opacity: 0.45; stroke-width: 0.55"/>
     </g>
     <g id="line2d_2">
      <defs>
       <path id="m443372503c" d="M 0 0 
L 0 3.5 
" style="stroke: #000000; stroke-width: 0.8"/>
      </defs>
      <g>
       <use xlink:href="#m443372503c" x="56.383692" y="163.723444" style="stroke: #000000; stroke-width: 0.8"/>
      </g>
     </g>
     <g id="text_1">
      <!-- 3100 -->
      <g transform="translate(47.383692 176.972819) scale(0.09 -0.09)">
       <defs>
        <path id="TimesNewRomanPSMT-33" d="M 325 3431 
Q 506 3859 782 4092 
Q 1059 4325 1472 4325 
Q 1981 4325 2253 3994 
Q 2459 3747 2459 3466 
Q 2459 3003 1878 2509 
Q 2269 2356 2469 2072 
Q 2669 1788 2669 1403 
Q 2669 853 2319 450 
Q 1863 -75 997 -75 
Q 569 -75 414 31 
Q 259 138 259 259 
Q 259 350 332 419 
Q 406 488 509 488 
Q 588 488 669 463 
Q 722 447 909 348 
Q 1097 250 1169 231 
Q 1284 197 1416 197 
Q 1734 197 1970 444 
Q 2206 691 2206 1028 
Q 2206 1275 2097 1509 
Q 2016 1684 1919 1775 
Q 1784 1900 1550 2001 
Q 1316 2103 1072 2103 
L 972 2103 
L 972 2197 
Q 1219 2228 1467 2375 
Q 1716 2522 1828 2728 
Q 1941 2934 1941 3181 
Q 1941 3503 1739 3701 
Q 1538 3900 1238 3900 
Q 753 3900 428 3381 
L 325 3431 
z
" transform="scale(0.015625)"/>
        <path id="TimesNewRomanPSMT-31" d="M 750 3822 
L 1781 4325 
L 1884 4325 
L 1884 747 
Q 1884 391 1914 303 
Q 1944 216 2037 169 
Q 2131 122 2419 116 
L 2419 0 
L 825 0 
L 825 116 
Q 1125 122 1212 167 
Q 1300 213 1334 289 
Q 1369 366 1369 747 
L 1369 3034 
Q 1369 3497 1338 3628 
Q 1316 3728 1258 3775 
Q 1200 3822 1119 3822 
Q 1003 3822 797 3725 
L 750 3822 
z
" transform="scale(0.015625)"/>
        <path id="TimesNewRomanPSMT-30" d="M 231 2094 
Q 231 2819 450 3342 
Q 669 3866 1031 4122 
Q 1313 4325 1613 4325 
Q 2100 4325 2488 3828 
Q 2972 3213 2972 2159 
Q 2972 1422 2759 906 
Q 2547 391 2217 158 
Q 1888 -75 1581 -75 
Q 975 -75 572 641 
Q 231 1244 231 2094 
z
M 844 2016 
Q 844 1141 1059 588 
Q 1238 122 1591 122 
Q 1759 122 1940 273 
Q 2122 425 2216 781 
Q 2359 1319 2359 2297 
Q 2359 3022 2209 3506 
Q 2097 3866 1919 4016 
Q 1791 4119 1609 4119 
Q 1397 4119 1231 3928 
Q 1006 3669 925 3112 
Q 844 2556 844 2016 
z
" transform="scale(0.015625)"/>
       </defs>
       <use xlink:href="#TimesNewRomanPSMT-33"/>
       <use xlink:href="#TimesNewRomanPSMT-31" x="50"/>
       <use xlink:href="#TimesNewRomanPSMT-30" x="100"/>
       <use xlink:href="#TimesNewRomanPSMT-30" x="150"/>
      </g>
     </g>
    </g>
    <g id="xtick_2">
     <g id="line2d_3">
      <path d="M 99.395073 163.723444 
L 99.395073 13.306872 
" clip-path="url(#p02821ee93f)" style="fill: none; stroke-dasharray: 0.55,0.9075; stroke-dashoffset: 0; stroke: #b0b0b0; stroke-opacity: 0.45; stroke-width: 0.55"/>
     </g>
     <g id="line2d_4">
      <g>
       <use xlink:href="#m443372503c" x="99.395073" y="163.723444" style="stroke: #000000; stroke-width: 0.8"/>
      </g>
     </g>
     <g id="text_2">
      <!-- 3120 -->
      <g transform="translate(90.395073 176.972819) scale(0.09 -0.09)">
       <defs>
        <path id="TimesNewRomanPSMT-32" d="M 2934 816 
L 2638 0 
L 138 0 
L 138 116 
Q 1241 1122 1691 1759 
Q 2141 2397 2141 2925 
Q 2141 3328 1894 3587 
Q 1647 3847 1303 3847 
Q 991 3847 742 3664 
Q 494 3481 375 3128 
L 259 3128 
Q 338 3706 661 4015 
Q 984 4325 1469 4325 
Q 1984 4325 2329 3994 
Q 2675 3663 2675 3213 
Q 2675 2891 2525 2569 
Q 2294 2063 1775 1497 
Q 997 647 803 472 
L 1909 472 
Q 2247 472 2383 497 
Q 2519 522 2628 598 
Q 2738 675 2819 816 
L 2934 816 
z
" transform="scale(0.015625)"/>
       </defs>
       <use xlink:href="#TimesNewRomanPSMT-33"/>
       <use xlink:href="#TimesNewRomanPSMT-31" x="50"/>
       <use xlink:href="#TimesNewRomanPSMT-32" x="100"/>
       <use xlink:href="#TimesNewRomanPSMT-30" x="150"/>
      </g>
     </g>
    </g>
    <g id="xtick_3">
     <g id="line2d_5">
      <path d="M 142.406454 163.723444 
L 142.406454 13.306872 
" clip-path="url(#p02821ee93f)" style="fill: none; stroke-dasharray: 0.55,0.9075; stroke-dashoffset: 0; stroke: #b0b0b0; stroke-opacity: 0.45; stroke-width: 0.55"/>
     </g>
     <g id="line2d_6">
      <g>
       <use xlink:href="#m443372503c" x="142.406454" y="163.723444" style="stroke: #000000; stroke-width: 0.8"/>
      </g>
     </g>
     <g id="text_3">
      <!-- 3140 -->
      <g transform="translate(133.406454 176.972819) scale(0.09 -0.09)">
       <defs>
        <path id="TimesNewRomanPSMT-34" d="M 2978 1563 
L 2978 1119 
L 2409 1119 
L 2409 0 
L 1894 0 
L 1894 1119 
L 100 1119 
L 100 1519 
L 2066 4325 
L 2409 4325 
L 2409 1563 
L 2978 1563 
z
M 1894 1563 
L 1894 3666 
L 406 1563 
L 1894 1563 
z
" transform="scale(0.015625)"/>
       </defs>
       <use xlink:href="#TimesNewRomanPSMT-33"/>
       <use xlink:href="#TimesNewRomanPSMT-31" x="50"/>
       <use xlink:href="#TimesNewRomanPSMT-34" x="100"/>
       <use xlink:href="#TimesNewRomanPSMT-30" x="150"/>
      </g>
     </g>
    </g>
    <g id="xtick_4">
     <g id="line2d_7">
      <path d="M 185.417835 163.723444 
L 185.417835 13.306872 
" clip-path="url(#p02821ee93f)" style="fill: none; stroke-dasharray: 0.55,0.9075; stroke-dashoffset: 0; stroke: #b0b0b0; stroke-opacity: 0.45; stroke-width: 0.55"/>
     </g>
     <g id="line2d_8">
      <g>
       <use xlink:href="#m443372503c" x="185.417835" y="163.723444" style="stroke: #000000; stroke-width: 0.8"/>
      </g>
     </g>
     <g id="text_4">
      <!-- 3160 -->
      <g transform="translate(176.417835 176.972819) scale(0.09 -0.09)">
       <defs>
        <path id="TimesNewRomanPSMT-36" d="M 2869 4325 
L 2869 4209 
Q 2456 4169 2195 4045 
Q 1934 3922 1679 3669 
Q 1425 3416 1258 3105 
Q 1091 2794 978 2366 
Q 1428 2675 1881 2675 
Q 2316 2675 2634 2325 
Q 2953 1975 2953 1425 
Q 2953 894 2631 456 
Q 2244 -75 1606 -75 
Q 1172 -75 869 213 
Q 275 772 275 1663 
Q 275 2231 503 2743 
Q 731 3256 1154 3653 
Q 1578 4050 1965 4187 
Q 2353 4325 2688 4325 
L 2869 4325 
z
M 925 2138 
Q 869 1716 869 1456 
Q 869 1156 980 804 
Q 1091 453 1309 247 
Q 1469 100 1697 100 
Q 1969 100 2183 356 
Q 2397 613 2397 1088 
Q 2397 1622 2184 2012 
Q 1972 2403 1581 2403 
Q 1463 2403 1327 2353 
Q 1191 2303 925 2138 
z
" transform="scale(0.015625)"/>
       </defs>
       <use xlink:href="#TimesNewRomanPSMT-33"/>
       <use xlink:href="#TimesNewRomanPSMT-31" x="50"/>
       <use xlink:href="#TimesNewRomanPSMT-36" x="100"/>
       <use xlink:href="#TimesNewRomanPSMT-30" x="150"/>
      </g>
     </g>
    </g>
    <g id="xtick_5">
     <g id="line2d_9">
      <path d="M 228.429216 163.723444 
L 228.429216 13.306872 
" clip-path="url(#p02821ee93f)" style="fill: none; stroke-dasharray: 0.55,0.9075; stroke-dashoffset: 0; stroke: #b0b0b0; stroke-opacity: 0.45; stroke-width: 0.55"/>
     </g>
     <g id="line2d_10">
      <g>
       <use xlink:href="#m443372503c" x="228.429216" y="163.723444" style="stroke: #000000; stroke-width: 0.8"/>
      </g>
     </g>
     <g id="text_5">
      <!-- 3180 -->
      <g transform="translate(219.429216 176.972819) scale(0.09 -0.09)">
       <defs>
        <path id="TimesNewRomanPSMT-38" d="M 1228 2134 
Q 725 2547 579 2797 
Q 434 3047 434 3316 
Q 434 3728 753 4026 
Q 1072 4325 1600 4325 
Q 2113 4325 2425 4047 
Q 2738 3769 2738 3413 
Q 2738 3175 2569 2928 
Q 2400 2681 1866 2347 
Q 2416 1922 2594 1678 
Q 2831 1359 2831 1006 
Q 2831 559 2490 242 
Q 2150 -75 1597 -75 
Q 994 -75 656 303 
Q 388 606 388 966 
Q 388 1247 577 1523 
Q 766 1800 1228 2134 
z
M 1719 2469 
Q 2094 2806 2194 3001 
Q 2294 3197 2294 3444 
Q 2294 3772 2109 3958 
Q 1925 4144 1606 4144 
Q 1288 4144 1088 3959 
Q 888 3775 888 3528 
Q 888 3366 970 3203 
Q 1053 3041 1206 2894 
L 1719 2469 
z
M 1375 2016 
Q 1116 1797 991 1539 
Q 866 1281 866 981 
Q 866 578 1086 336 
Q 1306 94 1647 94 
Q 1984 94 2187 284 
Q 2391 475 2391 747 
Q 2391 972 2272 1150 
Q 2050 1481 1375 2016 
z
" transform="scale(0.015625)"/>
       </defs>
       <use xlink:href="#TimesNewRomanPSMT-33"/>
       <use xlink:href="#TimesNewRomanPSMT-31" x="50"/>
       <use xlink:href="#TimesNewRomanPSMT-38" x="100"/>
       <use xlink:href="#TimesNewRomanPSMT-30" x="150"/>
      </g>
     </g>
    </g>
    <g id="text_6">
     <!-- Serialized artifact (KiB) -->
     <g transform="translate(91.3422 189.841726) scale(0.1 -0.1)">
      <defs>
       <path id="TimesNewRomanPSMT-53" d="M 2934 4334 
L 2934 2869 
L 2819 2869 
Q 2763 3291 2617 3541 
Q 2472 3791 2203 3937 
Q 1934 4084 1647 4084 
Q 1322 4084 1109 3886 
Q 897 3688 897 3434 
Q 897 3241 1031 3081 
Q 1225 2847 1953 2456 
Q 2547 2138 2764 1967 
Q 2981 1797 3098 1565 
Q 3216 1334 3216 1081 
Q 3216 600 2842 251 
Q 2469 -97 1881 -97 
Q 1697 -97 1534 -69 
Q 1438 -53 1133 45 
Q 828 144 747 144 
Q 669 144 623 97 
Q 578 50 556 -97 
L 441 -97 
L 441 1356 
L 556 1356 
Q 638 900 775 673 
Q 913 447 1195 297 
Q 1478 147 1816 147 
Q 2206 147 2432 353 
Q 2659 559 2659 841 
Q 2659 997 2573 1156 
Q 2488 1316 2306 1453 
Q 2184 1547 1640 1851 
Q 1097 2156 867 2337 
Q 638 2519 519 2737 
Q 400 2956 400 3219 
Q 400 3675 750 4004 
Q 1100 4334 1641 4334 
Q 1978 4334 2356 4169 
Q 2531 4091 2603 4091 
Q 2684 4091 2736 4139 
Q 2788 4188 2819 4334 
L 2934 4334 
z
" transform="scale(0.015625)"/>
       <path id="TimesNewRomanPSMT-65" d="M 681 1784 
Q 678 1147 991 784 
Q 1303 422 1725 422 
Q 2006 422 2214 576 
Q 2422 731 2563 1106 
L 2659 1044 
Q 2594 616 2278 264 
Q 1963 -88 1488 -88 
Q 972 -88 605 314 
Q 238 716 238 1394 
Q 238 2128 614 2539 
Q 991 2950 1559 2950 
Q 2041 2950 2350 2633 
Q 2659 2316 2659 1784 
L 681 1784 
z
M 681 1966 
L 2006 1966 
Q 1991 2241 1941 2353 
Q 1863 2528 1708 2628 
Q 1553 2728 1384 2728 
Q 1125 2728 920 2526 
Q 716 2325 681 1966 
z
" transform="scale(0.015625)"/>
       <path id="TimesNewRomanPSMT-72" d="M 1038 2947 
L 1038 2303 
Q 1397 2947 1775 2947 
Q 1947 2947 2059 2842 
Q 2172 2738 2172 2600 
Q 2172 2478 2090 2393 
Q 2009 2309 1897 2309 
Q 1788 2309 1652 2417 
Q 1516 2525 1450 2525 
Q 1394 2525 1328 2463 
Q 1188 2334 1038 2041 
L 1038 669 
Q 1038 431 1097 309 
Q 1138 225 1241 169 
Q 1344 113 1538 113 
L 1538 0 
L 72 0 
L 72 113 
Q 291 113 397 181 
Q 475 231 506 341 
Q 522 394 522 644 
L 522 1753 
Q 522 2253 501 2348 
Q 481 2444 426 2487 
Q 372 2531 291 2531 
Q 194 2531 72 2484 
L 41 2597 
L 906 2947 
L 1038 2947 
z
" transform="scale(0.015625)"/>
       <path id="TimesNewRomanPSMT-69" d="M 928 4444 
Q 1059 4444 1151 4351 
Q 1244 4259 1244 4128 
Q 1244 3997 1151 3903 
Q 1059 3809 928 3809 
Q 797 3809 703 3903 
Q 609 3997 609 4128 
Q 609 4259 701 4351 
Q 794 4444 928 4444 
z
M 1188 2947 
L 1188 647 
Q 1188 378 1227 289 
Q 1266 200 1342 156 
Q 1419 113 1622 113 
L 1622 0 
L 231 0 
L 231 113 
Q 441 113 512 153 
Q 584 194 626 287 
Q 669 381 669 647 
L 669 1750 
Q 669 2216 641 2353 
Q 619 2453 572 2492 
Q 525 2531 444 2531 
Q 356 2531 231 2484 
L 188 2597 
L 1050 2947 
L 1188 2947 
z
" transform="scale(0.015625)"/>
       <path id="TimesNewRomanPSMT-61" d="M 1822 413 
Q 1381 72 1269 19 
Q 1100 -59 909 -59 
Q 613 -59 420 144 
Q 228 347 228 678 
Q 228 888 322 1041 
Q 450 1253 767 1440 
Q 1084 1628 1822 1897 
L 1822 2009 
Q 1822 2438 1686 2597 
Q 1550 2756 1291 2756 
Q 1094 2756 978 2650 
Q 859 2544 859 2406 
L 866 2225 
Q 866 2081 792 2003 
Q 719 1925 600 1925 
Q 484 1925 411 2006 
Q 338 2088 338 2228 
Q 338 2497 613 2722 
Q 888 2947 1384 2947 
Q 1766 2947 2009 2819 
Q 2194 2722 2281 2516 
Q 2338 2381 2338 1966 
L 2338 994 
Q 2338 584 2353 492 
Q 2369 400 2405 369 
Q 2441 338 2488 338 
Q 2538 338 2575 359 
Q 2641 400 2828 588 
L 2828 413 
Q 2478 -56 2159 -56 
Q 2006 -56 1915 50 
Q 1825 156 1822 413 
z
M 1822 616 
L 1822 1706 
Q 1350 1519 1213 1441 
Q 966 1303 859 1153 
Q 753 1003 753 825 
Q 753 600 887 451 
Q 1022 303 1197 303 
Q 1434 303 1822 616 
z
" transform="scale(0.015625)"/>
       <path id="TimesNewRomanPSMT-6c" d="M 1184 4444 
L 1184 647 
Q 1184 378 1223 290 
Q 1263 203 1344 158 
Q 1425 113 1647 113 
L 1647 0 
L 244 0 
L 244 113 
Q 441 113 512 153 
Q 584 194 625 287 
Q 666 381 666 647 
L 666 3247 
Q 666 3731 644 3842 
Q 622 3953 573 3993 
Q 525 4034 450 4034 
Q 369 4034 244 3984 
L 191 4094 
L 1044 4444 
L 1184 4444 
z
" transform="scale(0.015625)"/>
       <path id="TimesNewRomanPSMT-7a" d="M 2688 878 
L 2653 0 
L 128 0 
L 128 113 
L 2028 2644 
L 1091 2644 
Q 788 2644 694 2605 
Q 600 2566 541 2456 
Q 456 2300 444 2069 
L 319 2069 
L 338 2863 
L 2738 2863 
L 2738 2747 
L 819 209 
L 1863 209 
Q 2191 209 2308 264 
Q 2425 319 2497 456 
Q 2547 556 2581 878 
L 2688 878 
z
" transform="scale(0.015625)"/>
       <path id="TimesNewRomanPSMT-64" d="M 2222 322 
Q 2013 103 1813 7 
Q 1613 -88 1381 -88 
Q 913 -88 563 304 
Q 213 697 213 1313 
Q 213 1928 600 2439 
Q 988 2950 1597 2950 
Q 1975 2950 2222 2709 
L 2222 3238 
Q 2222 3728 2198 3840 
Q 2175 3953 2125 3993 
Q 2075 4034 2000 4034 
Q 1919 4034 1784 3984 
L 1744 4094 
L 2597 4444 
L 2738 4444 
L 2738 1134 
Q 2738 631 2761 520 
Q 2784 409 2836 365 
Q 2888 322 2956 322 
Q 3041 322 3181 375 
L 3216 266 
L 2366 -88 
L 2222 -88 
L 2222 322 
z
M 2222 541 
L 2222 2016 
Q 2203 2228 2109 2403 
Q 2016 2578 1861 2667 
Q 1706 2756 1559 2756 
Q 1284 2756 1069 2509 
Q 784 2184 784 1559 
Q 784 928 1059 592 
Q 1334 256 1672 256 
Q 1956 256 2222 541 
z
" transform="scale(0.015625)"/>
       <path id="TimesNewRomanPSMT-20" transform="scale(0.015625)"/>
       <path id="TimesNewRomanPSMT-74" d="M 1031 3803 
L 1031 2863 
L 1700 2863 
L 1700 2644 
L 1031 2644 
L 1031 788 
Q 1031 509 1111 412 
Q 1191 316 1316 316 
Q 1419 316 1516 380 
Q 1613 444 1666 569 
L 1788 569 
Q 1678 263 1478 108 
Q 1278 -47 1066 -47 
Q 922 -47 784 33 
Q 647 113 581 261 
Q 516 409 516 719 
L 516 2644 
L 63 2644 
L 63 2747 
Q 234 2816 414 2980 
Q 594 3144 734 3369 
Q 806 3488 934 3803 
L 1031 3803 
z
" transform="scale(0.015625)"/>
       <path id="TimesNewRomanPSMT-66" d="M 1319 2638 
L 1319 756 
Q 1319 356 1406 250 
Q 1522 113 1716 113 
L 1975 113 
L 1975 0 
L 266 0 
L 266 113 
L 394 113 
Q 519 113 622 175 
Q 725 238 764 344 
Q 803 450 803 756 
L 803 2638 
L 247 2638 
L 247 2863 
L 803 2863 
L 803 3050 
Q 803 3478 940 3775 
Q 1078 4072 1361 4255 
Q 1644 4438 1997 4438 
Q 2325 4438 2600 4225 
Q 2781 4084 2781 3909 
Q 2781 3816 2700 3733 
Q 2619 3650 2525 3650 
Q 2453 3650 2373 3701 
Q 2294 3753 2178 3923 
Q 2063 4094 1966 4153 
Q 1869 4213 1750 4213 
Q 1606 4213 1506 4136 
Q 1406 4059 1362 3898 
Q 1319 3738 1319 3069 
L 1319 2863 
L 2056 2863 
L 2056 2638 
L 1319 2638 
z
" transform="scale(0.015625)"/>
       <path id="TimesNewRomanPSMT-63" d="M 2631 1088 
Q 2516 522 2178 217 
Q 1841 -88 1431 -88 
Q 944 -88 581 321 
Q 219 731 219 1428 
Q 219 2103 620 2525 
Q 1022 2947 1584 2947 
Q 2006 2947 2278 2723 
Q 2550 2500 2550 2259 
Q 2550 2141 2473 2067 
Q 2397 1994 2259 1994 
Q 2075 1994 1981 2113 
Q 1928 2178 1911 2362 
Q 1894 2547 1784 2644 
Q 1675 2738 1481 2738 
Q 1169 2738 978 2506 
Q 725 2200 725 1697 
Q 725 1184 976 792 
Q 1228 400 1656 400 
Q 1963 400 2206 609 
Q 2378 753 2541 1131 
L 2631 1088 
z
" transform="scale(0.015625)"/>
       <path id="TimesNewRomanPSMT-28" d="M 1988 -1253 
L 1988 -1369 
Q 1516 -1131 1200 -813 
Q 750 -359 506 256 
Q 263 872 263 1534 
Q 263 2503 741 3301 
Q 1219 4100 1988 4444 
L 1988 4313 
Q 1603 4100 1356 3731 
Q 1109 3363 987 2797 
Q 866 2231 866 1616 
Q 866 947 969 400 
Q 1050 -31 1165 -292 
Q 1281 -553 1476 -793 
Q 1672 -1034 1988 -1253 
z
" transform="scale(0.015625)"/>
       <path id="TimesNewRomanPSMT-4b" d="M 1913 2350 
L 3475 797 
Q 3859 413 4131 273 
Q 4403 134 4675 116 
L 4675 0 
L 2659 0 
L 2659 116 
Q 2841 116 2920 177 
Q 3000 238 3000 313 
Q 3000 388 2970 447 
Q 2941 506 2775 669 
L 1313 2116 
L 1313 750 
Q 1313 428 1353 325 
Q 1384 247 1484 191 
Q 1619 116 1769 116 
L 1913 116 
L 1913 0 
L 106 0 
L 106 116 
L 256 116 
Q 519 116 638 269 
Q 713 369 713 750 
L 713 3488 
Q 713 3809 672 3916 
Q 641 3991 544 4047 
Q 406 4122 256 4122 
L 106 4122 
L 106 4238 
L 1913 4238 
L 1913 4122 
L 1769 4122 
Q 1622 4122 1484 4050 
Q 1388 4000 1350 3900 
Q 1313 3800 1313 3488 
L 1313 2191 
Q 1375 2250 1741 2588 
Q 2669 3438 2863 3722 
Q 2947 3847 2947 3941 
Q 2947 4013 2881 4067 
Q 2816 4122 2659 4122 
L 2563 4122 
L 2563 4238 
L 4119 4238 
L 4119 4122 
Q 3981 4119 3868 4084 
Q 3756 4050 3593 3951 
Q 3431 3853 3194 3634 
Q 3125 3572 2559 2994 
L 1913 2350 
z
" transform="scale(0.015625)"/>
       <path id="TimesNewRomanPSMT-42" d="M 2956 2163 
Q 3397 2069 3616 1863 
Q 3919 1575 3919 1159 
Q 3919 844 3719 555 
Q 3519 266 3170 133 
Q 2822 0 2106 0 
L 106 0 
L 106 116 
L 266 116 
Q 531 116 647 284 
Q 719 394 719 750 
L 719 3488 
Q 719 3881 628 3984 
Q 506 4122 266 4122 
L 106 4122 
L 106 4238 
L 1938 4238 
Q 2450 4238 2759 4163 
Q 3228 4050 3475 3764 
Q 3722 3478 3722 3106 
Q 3722 2788 3528 2536 
Q 3334 2284 2956 2163 
z
M 1319 2331 
Q 1434 2309 1582 2298 
Q 1731 2288 1909 2288 
Q 2366 2288 2595 2386 
Q 2825 2484 2947 2687 
Q 3069 2891 3069 3131 
Q 3069 3503 2766 3765 
Q 2463 4028 1881 4028 
Q 1569 4028 1319 3959 
L 1319 2331 
z
M 1319 306 
Q 1681 222 2034 222 
Q 2600 222 2897 476 
Q 3194 731 3194 1106 
Q 3194 1353 3059 1581 
Q 2925 1809 2622 1940 
Q 2319 2072 1872 2072 
Q 1678 2072 1540 2065 
Q 1403 2059 1319 2044 
L 1319 306 
z
" transform="scale(0.015625)"/>
       <path id="TimesNewRomanPSMT-29" d="M 144 4313 
L 144 4444 
Q 619 4209 934 3891 
Q 1381 3434 1625 2820 
Q 1869 2206 1869 1541 
Q 1869 572 1392 -226 
Q 916 -1025 144 -1369 
L 144 -1253 
Q 528 -1038 776 -670 
Q 1025 -303 1145 264 
Q 1266 831 1266 1447 
Q 1266 2113 1163 2663 
Q 1084 3094 967 3353 
Q 850 3613 656 3853 
Q 463 4094 144 4313 
z
" transform="scale(0.015625)"/>
      </defs>
      <use xlink:href="#TimesNewRomanPSMT-53"/>
      <use xlink:href="#TimesNewRomanPSMT-65" x="55.615234"/>
      <use xlink:href="#TimesNewRomanPSMT-72" x="100"/>
      <use xlink:href="#TimesNewRomanPSMT-69" x="133.300781"/>
      <use xlink:href="#TimesNewRomanPSMT-61" x="161.083984"/>
      <use xlink:href="#TimesNewRomanPSMT-6c" x="205.46875"/>
      <use xlink:href="#TimesNewRomanPSMT-69" x="233.251953"/>
      <use xlink:href="#TimesNewRomanPSMT-7a" x="261.035156"/>
      <use xlink:href="#TimesNewRomanPSMT-65" x="305.419922"/>
      <use xlink:href="#TimesNewRomanPSMT-64" x="349.804688"/>
      <use xlink:href="#TimesNewRomanPSMT-20" x="399.804688"/>
      <use xlink:href="#TimesNewRomanPSMT-61" x="424.804688"/>
      <use xlink:href="#TimesNewRomanPSMT-72" x="469.189453"/>
      <use xlink:href="#TimesNewRomanPSMT-74" x="502.490234"/>
      <use xlink:href="#TimesNewRomanPSMT-69" x="530.273438"/>
      <use xlink:href="#TimesNewRomanPSMT-66" x="558.056641"/>
      <use xlink:href="#TimesNewRomanPSMT-61" x="591.357422"/>
      <use xlink:href="#TimesNewRomanPSMT-63" x="635.742188"/>
      <use xlink:href="#TimesNewRomanPSMT-74" x="680.126953"/>
      <use xlink:href="#TimesNewRomanPSMT-20" x="707.910156"/>
      <use xlink:href="#TimesNewRomanPSMT-28" x="732.910156"/>
      <use xlink:href="#TimesNewRomanPSMT-4b" x="766.210938"/>
      <use xlink:href="#TimesNewRomanPSMT-69" x="838.427734"/>
      <use xlink:href="#TimesNewRomanPSMT-42" x="866.210938"/>
      <use xlink:href="#TimesNewRomanPSMT-29" x="932.910156"/>
     </g>
    </g>
   </g>
   <g id="matplotlib.axis_2">
    <g id="ytick_1">
     <g id="line2d_11">
      <path d="M 32.236624 134.151835 
L 247.069651 134.151835 
" clip-path="url(#p02821ee93f)" style="fill: none; stroke-dasharray: 0.55,0.9075; stroke-dashoffset: 0; stroke: #b0b0b0; stroke-opacity: 0.45; stroke-width: 0.55"/>
     </g>
     <g id="line2d_12">
      <defs>
       <path id="m43cda8beca" d="M 0 0 
L -3.5 0 
" style="stroke: #000000; stroke-width: 0.8"/>
      </defs>
      <g>
       <use xlink:href="#m43cda8beca" x="32.236624" y="134.151835" style="stroke: #000000; stroke-width: 0.8"/>
      </g>
     </g>
     <g id="text_7">
      <!-- 8 -->
      <g transform="translate(20.736624 137.276522) scale(0.09 -0.09)">
       <use xlink:href="#TimesNewRomanPSMT-38"/>
      </g>
     </g>
    </g>
    <g id="ytick_2">
     <g id="line2d_13">
      <path d="M 32.236624 104.320851 
L 247.069651 104.320851 
" clip-path="url(#p02821ee93f)" style="fill: none; stroke-dasharray: 0.55,0.9075; stroke-dashoffset: 0; stroke: #b0b0b0; stroke-opacity: 0.45; stroke-width: 0.55"/>
     </g>
     <g id="line2d_14">
      <g>
       <use xlink:href="#m43cda8beca" x="32.236624" y="104.320851" style="stroke: #000000; stroke-width: 0.8"/>
      </g>
     </g>
     <g id="text_8">
      <!-- 10 -->
      <g transform="translate(16.236624 107.445538) scale(0.09 -0.09)">
       <use xlink:href="#TimesNewRomanPSMT-31"/>
       <use xlink:href="#TimesNewRomanPSMT-30" x="50"/>
      </g>
     </g>
    </g>
    <g id="ytick_3">
     <g id="line2d_15">
      <path d="M 32.236624 74.489867 
L 247.069651 74.489867 
" clip-path="url(#p02821ee93f)" style="fill: none; stroke-dasharray: 0.55,0.9075; stroke-dashoffset: 0; stroke: #b0b0b0; stroke-opacity: 0.45; stroke-width: 0.55"/>
     </g>
     <g id="line2d_16">
      <g>
       <use xlink:href="#m43cda8beca" x="32.236624" y="74.489867" style="stroke: #000000; stroke-width: 0.8"/>
      </g>
     </g>
     <g id="text_9">
      <!-- 12 -->
      <g transform="translate(16.236624 77.614554) scale(0.09 -0.09)">
       <use xlink:href="#TimesNewRomanPSMT-31"/>
       <use xlink:href="#TimesNewRomanPSMT-32" x="50"/>
      </g>
     </g>
    </g>
    <g id="ytick_4">
     <g id="line2d_17">
      <path d="M 32.236624 44.658883 
L 247.069651 44.658883 
" clip-path="url(#p02821ee93f)" style="fill: none; stroke-dasharray: 0.55,0.9075; stroke-dashoffset: 0; stroke: #b0b0b0; stroke-opacity: 0.45; stroke-width: 0.55"/>
     </g>
     <g id="line2d_18">
      <g>
       <use xlink:href="#m43cda8beca" x="32.236624" y="44.658883" style="stroke: #000000; stroke-width: 0.8"/>
      </g>
     </g>
     <g id="text_10">
      <!-- 14 -->
      <g transform="translate(16.236624 47.78357) scale(0.09 -0.09)">
       <use xlink:href="#TimesNewRomanPSMT-31"/>
       <use xlink:href="#TimesNewRomanPSMT-34" x="50"/>
      </g>
     </g>
    </g>
    <g id="ytick_5">
     <g id="line2d_19">
      <path d="M 32.236624 14.827899 
L 247.069651 14.827899 
" clip-path="url(#p02821ee93f)" style="fill: none; stroke-dasharray: 0.55,0.9075; stroke-dashoffset: 0; stroke: #b0b0b0; stroke-opacity: 0.45; stroke-width: 0.55"/>
     </g>
     <g id="line2d_20">
      <g>
       <use xlink:href="#m43cda8beca" x="32.236624" y="14.827899" style="stroke: #000000; stroke-width: 0.8"/>
      </g>
     </g>
     <g id="text_11">
      <!-- 16 -->
      <g transform="translate(16.236624 17.952586) scale(0.09 -0.09)">
       <use xlink:href="#TimesNewRomanPSMT-31"/>
       <use xlink:href="#TimesNewRomanPSMT-36" x="50"/>
      </g>
     </g>
    </g>
    <g id="text_12">
     <!-- Perplexity increase $\Delta$PPL -->
     <g transform="translate(10.036624 140.015158) rotate(-90) scale(0.1 -0.1)">
      <defs>
       <path id="TimesNewRomanPSMT-50" d="M 1313 1984 
L 1313 750 
Q 1313 350 1400 253 
Q 1519 116 1759 116 
L 1922 116 
L 1922 0 
L 106 0 
L 106 116 
L 266 116 
Q 534 116 650 291 
Q 713 388 713 750 
L 713 3488 
Q 713 3888 628 3984 
Q 506 4122 266 4122 
L 106 4122 
L 106 4238 
L 1659 4238 
Q 2228 4238 2556 4120 
Q 2884 4003 3109 3725 
Q 3334 3447 3334 3066 
Q 3334 2547 2992 2222 
Q 2650 1897 2025 1897 
Q 1872 1897 1694 1919 
Q 1516 1941 1313 1984 
z
M 1313 2163 
Q 1478 2131 1606 2115 
Q 1734 2100 1825 2100 
Q 2150 2100 2386 2351 
Q 2622 2603 2622 3003 
Q 2622 3278 2509 3514 
Q 2397 3750 2190 3867 
Q 1984 3984 1722 3984 
Q 1563 3984 1313 3925 
L 1313 2163 
z
" transform="scale(0.015625)"/>
       <path id="TimesNewRomanPSMT-70" d="M -6 2578 
L 875 2934 
L 994 2934 
L 994 2266 
Q 1216 2644 1439 2795 
Q 1663 2947 1909 2947 
Q 2341 2947 2628 2609 
Q 2981 2197 2981 1534 
Q 2981 794 2556 309 
Q 2206 -88 1675 -88 
Q 1444 -88 1275 -22 
Q 1150 25 994 166 
L 994 -706 
Q 994 -1000 1030 -1079 
Q 1066 -1159 1155 -1206 
Q 1244 -1253 1478 -1253 
L 1478 -1369 
L -22 -1369 
L -22 -1253 
L 56 -1253 
Q 228 -1256 350 -1188 
Q 409 -1153 442 -1076 
Q 475 -1000 475 -688 
L 475 2019 
Q 475 2297 450 2372 
Q 425 2447 370 2484 
Q 316 2522 222 2522 
Q 147 2522 31 2478 
L -6 2578 
z
M 994 2081 
L 994 1013 
Q 994 666 1022 556 
Q 1066 375 1236 237 
Q 1406 100 1666 100 
Q 1978 100 2172 344 
Q 2425 663 2425 1241 
Q 2425 1897 2138 2250 
Q 1938 2494 1663 2494 
Q 1513 2494 1366 2419 
Q 1253 2363 994 2081 
z
" transform="scale(0.015625)"/>
       <path id="TimesNewRomanPSMT-78" d="M 84 2863 
L 1431 2863 
L 1431 2747 
Q 1303 2747 1251 2703 
Q 1200 2659 1200 2588 
Q 1200 2513 1309 2356 
Q 1344 2306 1413 2200 
L 1616 1875 
L 1850 2200 
Q 2075 2509 2075 2591 
Q 2075 2656 2022 2701 
Q 1969 2747 1850 2747 
L 1850 2863 
L 2819 2863 
L 2819 2747 
Q 2666 2738 2553 2663 
Q 2400 2556 2134 2200 
L 1744 1678 
L 2456 653 
Q 2719 275 2831 198 
Q 2944 122 3122 113 
L 3122 0 
L 1772 0 
L 1772 113 
Q 1913 113 1991 175 
Q 2050 219 2050 291 
Q 2050 363 1850 653 
L 1431 1266 
L 972 653 
Q 759 369 759 316 
Q 759 241 829 180 
Q 900 119 1041 113 
L 1041 0 
L 106 0 
L 106 113 
Q 219 128 303 191 
Q 422 281 703 653 
L 1303 1450 
L 759 2238 
Q 528 2575 401 2661 
Q 275 2747 84 2747 
L 84 2863 
z
" transform="scale(0.015625)"/>
       <path id="TimesNewRomanPSMT-79" d="M 38 2863 
L 1372 2863 
L 1372 2747 
L 1306 2747 
Q 1166 2747 1095 2686 
Q 1025 2625 1025 2534 
Q 1025 2413 1128 2197 
L 1825 753 
L 2466 2334 
Q 2519 2463 2519 2588 
Q 2519 2644 2497 2672 
Q 2472 2706 2419 2726 
Q 2366 2747 2231 2747 
L 2231 2863 
L 3163 2863 
L 3163 2747 
Q 3047 2734 2984 2696 
Q 2922 2659 2847 2556 
Q 2819 2513 2741 2316 
L 1575 -541 
Q 1406 -956 1132 -1168 
Q 859 -1381 606 -1381 
Q 422 -1381 303 -1275 
Q 184 -1169 184 -1031 
Q 184 -900 270 -820 
Q 356 -741 506 -741 
Q 609 -741 788 -809 
Q 913 -856 944 -856 
Q 1038 -856 1148 -759 
Q 1259 -663 1372 -384 
L 1575 113 
L 547 2272 
Q 500 2369 397 2513 
Q 319 2622 269 2659 
Q 197 2709 38 2747 
L 38 2863 
z
" transform="scale(0.015625)"/>
       <path id="TimesNewRomanPSMT-6e" d="M 1034 2341 
Q 1538 2947 1994 2947 
Q 2228 2947 2397 2830 
Q 2566 2713 2666 2444 
Q 2734 2256 2734 1869 
L 2734 647 
Q 2734 375 2778 278 
Q 2813 200 2889 156 
Q 2966 113 3172 113 
L 3172 0 
L 1756 0 
L 1756 113 
L 1816 113 
Q 2016 113 2095 173 
Q 2175 234 2206 353 
Q 2219 400 2219 647 
L 2219 1819 
Q 2219 2209 2117 2386 
Q 2016 2563 1775 2563 
Q 1403 2563 1034 2156 
L 1034 647 
Q 1034 356 1069 288 
Q 1113 197 1189 155 
Q 1266 113 1500 113 
L 1500 0 
L 84 0 
L 84 113 
L 147 113 
Q 366 113 442 223 
Q 519 334 519 647 
L 519 1709 
Q 519 2225 495 2337 
Q 472 2450 423 2490 
Q 375 2531 294 2531 
Q 206 2531 84 2484 
L 38 2597 
L 900 2947 
L 1034 2947 
L 1034 2341 
z
" transform="scale(0.015625)"/>
       <path id="TimesNewRomanPSMT-73" d="M 2050 2947 
L 2050 1972 
L 1947 1972 
Q 1828 2431 1642 2597 
Q 1456 2763 1169 2763 
Q 950 2763 815 2647 
Q 681 2531 681 2391 
Q 681 2216 781 2091 
Q 878 1963 1175 1819 
L 1631 1597 
Q 2266 1288 2266 781 
Q 2266 391 1970 151 
Q 1675 -88 1309 -88 
Q 1047 -88 709 6 
Q 606 38 541 38 
Q 469 38 428 -44 
L 325 -44 
L 325 978 
L 428 978 
Q 516 541 762 319 
Q 1009 97 1316 97 
Q 1531 97 1667 223 
Q 1803 350 1803 528 
Q 1803 744 1651 891 
Q 1500 1038 1047 1263 
Q 594 1488 453 1669 
Q 313 1847 313 2119 
Q 313 2472 555 2709 
Q 797 2947 1181 2947 
Q 1350 2947 1591 2875 
Q 1750 2828 1803 2828 
Q 1853 2828 1881 2850 
Q 1909 2872 1947 2947 
L 2050 2947 
z
" transform="scale(0.015625)"/>
       <path id="DejaVuSans-394" d="M 2188 4044 
L 906 525 
L 3472 525 
L 2188 4044 
z
M 50 0 
L 1831 4666 
L 2547 4666 
L 4325 0 
L 50 0 
z
" transform="scale(0.015625)"/>
       <path id="TimesNewRomanPSMT-4c" d="M 3669 1172 
L 3772 1150 
L 3409 0 
L 128 0 
L 128 116 
L 288 116 
Q 556 116 672 291 
Q 738 391 738 753 
L 738 3488 
Q 738 3884 650 3984 
Q 528 4122 288 4122 
L 128 4122 
L 128 4238 
L 2047 4238 
L 2047 4122 
Q 1709 4125 1573 4059 
Q 1438 3994 1388 3894 
Q 1338 3794 1338 3416 
L 1338 753 
Q 1338 494 1388 397 
Q 1425 331 1503 300 
Q 1581 269 1991 269 
L 2300 269 
Q 2788 269 2984 341 
Q 3181 413 3343 595 
Q 3506 778 3669 1172 
z
" transform="scale(0.015625)"/>
      </defs>
      <use xlink:href="#TimesNewRomanPSMT-50" transform="translate(0 0.09375)"/>
      <use xlink:href="#TimesNewRomanPSMT-65" transform="translate(55.615234 0.09375)"/>
      <use xlink:href="#TimesNewRomanPSMT-72" transform="translate(100 0.09375)"/>
      <use xlink:href="#TimesNewRomanPSMT-70" transform="translate(133.300781 0.09375)"/>
      <use xlink:href="#TimesNewRomanPSMT-6c" transform="translate(183.300781 0.09375)"/>
      <use xlink:href="#TimesNewRomanPSMT-65" transform="translate(211.083984 0.09375)"/>
      <use xlink:href="#TimesNewRomanPSMT-78" transform="translate(255.46875 0.09375)"/>
      <use xlink:href="#TimesNewRomanPSMT-69" transform="translate(305.46875 0.09375)"/>
      <use xlink:href="#TimesNewRomanPSMT-74" transform="translate(333.251953 0.09375)"/>
      <use xlink:href="#TimesNewRomanPSMT-79" transform="translate(361.035156 0.09375)"/>
      <use xlink:href="#TimesNewRomanPSMT-20" transform="translate(411.035156 0.09375)"/>
      <use xlink:href="#TimesNewRomanPSMT-69" transform="translate(436.035156 0.09375)"/>
      <use xlink:href="#TimesNewRomanPSMT-6e" transform="translate(463.818359 0.09375)"/>
      <use xlink:href="#TimesNewRomanPSMT-63" transform="translate(513.818359 0.09375)"/>
      <use xlink:href="#TimesNewRomanPSMT-72" transform="translate(558.203125 0.09375)"/>
      <use xlink:href="#TimesNewRomanPSMT-65" transform="translate(591.503906 0.09375)"/>
      <use xlink:href="#TimesNewRomanPSMT-61" transform="translate(635.888672 0.09375)"/>
      <use xlink:href="#TimesNewRomanPSMT-73" transform="translate(680.273438 0.09375)"/>
      <use xlink:href="#TimesNewRomanPSMT-65" transform="translate(719.189453 0.09375)"/>
      <use xlink:href="#TimesNewRomanPSMT-20" transform="translate(763.574219 0.09375)"/>
      <use xlink:href="#DejaVuSans-394" transform="translate(788.574219 0.09375)"/>
      <use xlink:href="#TimesNewRomanPSMT-50" transform="translate(856.982422 0.09375)"/>
      <use xlink:href="#TimesNewRomanPSMT-50" transform="translate(912.597656 0.09375)"/>
      <use xlink:href="#TimesNewRomanPSMT-4c" transform="translate(968.212891 0.09375)"/>
     </g>
    </g>
   </g>
   <g id="line2d_21">
    <path d="M 42.001761 20.143989 
L 212.70318 152.624323 
L 223.321615 156.886327 
" clip-path="url(#p02821ee93f)" style="fill: none; stroke-dasharray: 3.7,1.6; stroke-dashoffset: 0; stroke: #222222; stroke-opacity: 0.65"/>
   </g>
   <g id="patch_3">
    <path d="M 32.236624 163.723444 
L 32.236624 13.306872 
" style="fill: none; stroke: #000000; stroke-width: 0.8; stroke-linejoin: miter; stroke-linecap: square"/>
   </g>
   <g id="patch_4">
    <path d="M 32.236624 163.723444 
L 247.069651 163.723444 
" style="fill: none; stroke: #000000; stroke-width: 0.8; stroke-linejoin: miter; stroke-linecap: square"/>
   </g>
   <g id="text_13">
    <!-- (a) -->
    <g transform="translate(2.16 8.794375) scale(0.1 -0.1)">
     <defs>
      <path id="TimesNewRomanPS-BoldMT-28" d="M 2056 4334 
L 2056 4191 
Q 1731 3978 1578 3775 
Q 1366 3494 1247 3053 
Q 1097 2506 1097 1525 
Q 1097 600 1233 87 
Q 1369 -425 1603 -741 
Q 1766 -959 2056 -1125 
L 2056 -1281 
Q 1303 -1028 779 -248 
Q 256 531 256 1544 
Q 256 2544 778 3314 
Q 1300 4084 2056 4334 
z
" transform="scale(0.015625)"/>
      <path id="TimesNewRomanPS-BoldMT-61" d="M 1828 431 
Q 1294 -41 869 -41 
Q 619 -41 453 123 
Q 288 288 288 534 
Q 288 869 575 1136 
Q 863 1403 1828 1847 
L 1828 2141 
Q 1828 2472 1792 2558 
Q 1756 2644 1656 2708 
Q 1556 2772 1431 2772 
Q 1228 2772 1097 2681 
Q 1016 2625 1016 2550 
Q 1016 2484 1103 2388 
Q 1222 2253 1222 2128 
Q 1222 1975 1108 1867 
Q 994 1759 809 1759 
Q 613 1759 480 1878 
Q 347 1997 347 2156 
Q 347 2381 525 2586 
Q 703 2791 1022 2900 
Q 1341 3009 1684 3009 
Q 2100 3009 2342 2832 
Q 2584 2656 2656 2450 
Q 2700 2319 2700 1847 
L 2700 713 
Q 2700 513 2715 461 
Q 2731 409 2762 384 
Q 2794 359 2834 359 
Q 2916 359 3000 475 
L 3094 400 
Q 2938 169 2770 64 
Q 2603 -41 2391 -41 
Q 2141 -41 2000 76 
Q 1859 194 1828 431 
z
M 1828 659 
L 1828 1638 
Q 1450 1416 1266 1163 
Q 1144 994 1144 822 
Q 1144 678 1247 569 
Q 1325 484 1466 484 
Q 1622 484 1828 659 
z
" transform="scale(0.015625)"/>
      <path id="TimesNewRomanPS-BoldMT-29" d="M 78 -1281 
L 78 -1138 
Q 403 -922 556 -719 
Q 766 -438 888 0 
Q 1038 550 1038 1531 
Q 1038 2456 902 2967 
Q 766 3478 531 3794 
Q 369 4013 78 4178 
L 78 4334 
Q 831 4081 1354 3301 
Q 1878 2522 1878 1509 
Q 1878 513 1354 -257 
Q 831 -1028 78 -1281 
z
" transform="scale(0.015625)"/>
     </defs>
     <use xlink:href="#TimesNewRomanPS-BoldMT-28"/>
     <use xlink:href="#TimesNewRomanPS-BoldMT-61" x="33.300781"/>
     <use xlink:href="#TimesNewRomanPS-BoldMT-29" x="83.300781"/>
    </g>
   </g>
   <g id="PathCollection_1">
    <defs>
     <path id="m542cfabebf" d="M 0 3.278719 
C 0.869527 3.278719 1.703557 2.933253 2.318405 2.318405 
C 2.933253 1.703557 3.278719 0.869527 3.278719 0 
C 3.278719 -0.869527 2.933253 -1.703557 2.318405 -2.318405 
C 1.703557 -2.933253 0.869527 -3.278719 0 -3.278719 
C -0.869527 -3.278719 -1.703557 -2.933253 -2.318405 -2.318405 
C -2.933253 -1.703557 -3.278719 -0.869527 -3.278719 0 
C -3.278719 0.869527 -2.933253 1.703557 -2.318405 2.318405 
C -1.703557 2.933253 -0.869527 3.278719 0 3.278719 
z
" style="stroke: #777777; stroke-width: 1.25"/>
    </defs>
    <g clip-path="url(#p02821ee93f)">
     <use xlink:href="#m542cfabebf" x="42.001761" y="20.143989" style="fill: #777777; stroke: #777777; stroke-width: 1.25"/>
    </g>
   </g>
   <g id="PathCollection_2">
    <defs>
     <path id="m9bc1d51f1b" d="M -3.278719 3.278719 
L 3.278719 3.278719 
L 3.278719 -3.278719 
L -3.278719 -3.278719 
z
" style="stroke: #56b4e9; stroke-width: 1.25"/>
    </defs>
    <g clip-path="url(#p02821ee93f)">
     <use xlink:href="#m9bc1d51f1b" x="216.197855" y="113.214476" style="fill: #56b4e9; stroke: #56b4e9; stroke-width: 1.25"/>
    </g>
   </g>
   <g id="PathCollection_3">
    <defs>
     <path id="m37e6231578" d="M 0 -3.278719 
L -3.278719 3.278719 
L 3.278719 3.278719 
z
" style="stroke: #e69f00; stroke-width: 1.25"/>
    </defs>
    <g clip-path="url(#p02821ee93f)">
     <use xlink:href="#m37e6231578" x="237.304514" y="114.863792" style="fill: #e69f00; stroke: #e69f00; stroke-width: 1.25"/>
    </g>
   </g>
   <g id="PathCollection_4">
    <defs>
     <path id="m9dd4895883" d="M -0 3.278719 
L 3.278719 -3.278719 
L -3.278719 -3.278719 
z
" style="stroke: #009e73; stroke-width: 1.25"/>
    </defs>
    <g clip-path="url(#p02821ee93f)">
     <use xlink:href="#m9dd4895883" x="237.304514" y="146.738181" style="fill: #009e73; stroke: #009e73; stroke-width: 1.25"/>
    </g>
   </g>
   <g id="PathCollection_5">
    <defs>
     <path id="mb0027738fb" d="M 0 -4.41588 
L -0.991427 -1.364582 
L -4.199752 -1.364582 
L -1.604162 0.521224 
L -2.595589 3.572522 
L -0 1.686716 
L 2.595589 3.572522 
L 1.604162 0.521224 
L 4.199752 -1.364582 
L 0.991427 -1.364582 
z
" style="stroke: #0072b2; stroke-width: 1.25"/>
    </defs>
    <g clip-path="url(#p02821ee93f)">
     <use xlink:href="#mb0027738fb" x="212.70318" y="152.624323" style="fill: #0072b2; stroke: #0072b2; stroke-width: 1.25"/>
    </g>
   </g>
   <g id="PathCollection_6">
    <path d="M 212.70318 148.938388 
L 217.339989 144.301578 
L 212.70318 139.664769 
L 208.066371 144.301578 
L 212.70318 148.938388 
z
" clip-path="url(#p02821ee93f)" style="fill: none; stroke: #d55e00; stroke-width: 1.25"/>
   </g>
   <g id="PathCollection_7">
    <defs>
     <path id="m04fc780b16" d="M -1.092906 3.278719 
L 1.092906 3.278719 
L 1.092906 1.092906 
L 3.278719 1.092906 
L 3.278719 -1.092906 
L 1.092906 -1.092906 
L 1.092906 -3.278719 
L -1.092906 -3.278719 
L -1.092906 -1.092906 
L -3.278719 -1.092906 
L -3.278719 1.092906 
L -1.092906 1.092906 
z
" style="stroke: #cc79a7; stroke-width: 1.25"/>
    </defs>
    <g clip-path="url(#p02821ee93f)">
     <use xlink:href="#m04fc780b16" x="223.321615" y="156.886327" style="fill: #cc79a7; stroke: #cc79a7; stroke-width: 1.25"/>
    </g>
   </g>
   <g id="legend_1">
    <g id="line2d_22">
     <path d="M 162.687151 23.306872 
L 170.687151 23.306872 
L 178.687151 23.306872 
" style="fill: none; stroke: #000000; stroke-opacity: 0; stroke-width: 1.5; stroke-linecap: square"/>
     <defs>
      <path id="m20df22e614" d="M 0 3.5 
C 0.928211 3.5 1.81853 3.131218 2.474874 2.474874 
C 3.131218 1.81853 3.5 0.928211 3.5 0 
C 3.5 -0.928211 3.131218 -1.81853 2.474874 -2.474874 
C 1.81853 -3.131218 0.928211 -3.5 0 -3.5 
C -0.928211 -3.5 -1.81853 -3.131218 -2.474874 -2.474874 
C -3.131218 -1.81853 -3.5 -0.928211 -3.5 0 
C -3.5 0.928211 -3.131218 1.81853 -2.474874 2.474874 
C -1.81853 3.131218 -0.928211 3.5 0 3.5 
z
" style="stroke: #777777; stroke-width: 1.15"/>
     </defs>
     <g>
      <use xlink:href="#m20df22e614" x="170.687151" y="23.306872" style="fill: #777777; stroke: #777777; stroke-width: 1.15"/>
     </g>
    </g>
    <g id="text_14">
     <!-- Q -->
     <g transform="translate(181.887151 26.106872) scale(0.08 -0.08)">
      <defs>
       <path id="TimesNewRomanPSMT-51" d="M 2819 -47 
Q 3138 -597 3508 -856 
Q 3878 -1116 4350 -1153 
L 4350 -1253 
Q 3919 -1238 3428 -1080 
Q 2938 -922 2498 -642 
Q 2059 -363 1741 -47 
Q 1291 134 1028 338 
Q 647 641 436 1083 
Q 225 1525 225 2128 
Q 225 3078 840 3706 
Q 1456 4334 2331 4334 
Q 3163 4334 3770 3704 
Q 4378 3075 4378 2116 
Q 4378 1338 3945 750 
Q 3513 163 2819 -47 
z
M 2294 4094 
Q 1725 4094 1378 3688 
Q 941 3178 941 2128 
Q 941 1100 1384 544 
Q 1728 116 2294 116 
Q 2881 116 3241 544 
Q 3663 1050 3663 2038 
Q 3663 2797 3431 3316 
Q 3253 3716 2958 3905 
Q 2663 4094 2294 4094 
z
" transform="scale(0.015625)"/>
      </defs>
      <use xlink:href="#TimesNewRomanPSMT-51"/>
     </g>
    </g>
    <g id="line2d_23">
     <path d="M 162.687151 34.618122 
L 170.687151 34.618122 
L 178.687151 34.618122 
" style="fill: none; stroke: #000000; stroke-opacity: 0; stroke-width: 1.5; stroke-linecap: square"/>
     <defs>
      <path id="m1d70332872" d="M -3.5 3.5 
L 3.5 3.5 
L 3.5 -3.5 
L -3.5 -3.5 
z
" style="stroke: #56b4e9; stroke-width: 1.15; stroke-linejoin: miter"/>
     </defs>
     <g>
      <use xlink:href="#m1d70332872" x="170.687151" y="34.618122" style="fill: #56b4e9; stroke: #56b4e9; stroke-width: 1.15; stroke-linejoin: miter"/>
     </g>
    </g>
    <g id="text_15">
     <!-- Q + block scale -->
     <g transform="translate(181.887151 37.418122) scale(0.08 -0.08)">
      <defs>
       <path id="TimesNewRomanPSMT-2b" d="M 1672 441 
L 1672 2000 
L 116 2000 
L 116 2256 
L 1672 2256 
L 1672 3809 
L 1922 3809 
L 1922 2256 
L 3484 2256 
L 3484 2000 
L 1922 2000 
L 1922 441 
L 1672 441 
z
" transform="scale(0.015625)"/>
       <path id="TimesNewRomanPSMT-62" d="M 984 2369 
Q 1400 2947 1881 2947 
Q 2322 2947 2650 2570 
Q 2978 2194 2978 1541 
Q 2978 778 2472 313 
Q 2038 -88 1503 -88 
Q 1253 -88 995 3 
Q 738 94 469 275 
L 469 3241 
Q 469 3728 445 3840 
Q 422 3953 372 3993 
Q 322 4034 247 4034 
Q 159 4034 28 3984 
L -16 4094 
L 844 4444 
L 984 4444 
L 984 2369 
z
M 984 2169 
L 984 456 
Q 1144 300 1314 220 
Q 1484 141 1663 141 
Q 1947 141 2192 453 
Q 2438 766 2438 1363 
Q 2438 1913 2192 2208 
Q 1947 2503 1634 2503 
Q 1469 2503 1303 2419 
Q 1178 2356 984 2169 
z
" transform="scale(0.015625)"/>
       <path id="TimesNewRomanPSMT-6f" d="M 1600 2947 
Q 2250 2947 2644 2453 
Q 2978 2031 2978 1484 
Q 2978 1100 2793 706 
Q 2609 313 2286 112 
Q 1963 -88 1566 -88 
Q 919 -88 538 428 
Q 216 863 216 1403 
Q 216 1797 411 2186 
Q 606 2575 925 2761 
Q 1244 2947 1600 2947 
z
M 1503 2744 
Q 1338 2744 1170 2645 
Q 1003 2547 900 2300 
Q 797 2053 797 1666 
Q 797 1041 1045 587 
Q 1294 134 1700 134 
Q 2003 134 2200 384 
Q 2397 634 2397 1244 
Q 2397 2006 2069 2444 
Q 1847 2744 1503 2744 
z
" transform="scale(0.015625)"/>
       <path id="TimesNewRomanPSMT-6b" d="M 1047 4444 
L 1047 1597 
L 1775 2259 
Q 2006 2472 2044 2528 
Q 2069 2566 2069 2603 
Q 2069 2666 2017 2711 
Q 1966 2756 1847 2763 
L 1847 2863 
L 3091 2863 
L 3091 2763 
Q 2834 2756 2664 2684 
Q 2494 2613 2291 2428 
L 1556 1750 
L 2291 822 
Q 2597 438 2703 334 
Q 2853 188 2966 144 
Q 3044 113 3238 113 
L 3238 0 
L 1847 0 
L 1847 113 
Q 1966 116 2008 148 
Q 2050 181 2050 241 
Q 2050 313 1925 472 
L 1047 1594 
L 1047 644 
Q 1047 366 1086 278 
Q 1125 191 1197 153 
Q 1269 116 1509 113 
L 1509 0 
L 53 0 
L 53 113 
Q 272 113 381 166 
Q 447 200 481 272 
Q 528 375 528 628 
L 528 3234 
Q 528 3731 506 3842 
Q 484 3953 434 3995 
Q 384 4038 303 4038 
Q 238 4038 106 3984 
L 53 4094 
L 903 4444 
L 1047 4444 
z
" transform="scale(0.015625)"/>
      </defs>
      <use xlink:href="#TimesNewRomanPSMT-51"/>
      <use xlink:href="#TimesNewRomanPSMT-20" x="72.216797"/>
      <use xlink:href="#TimesNewRomanPSMT-2b" x="97.216797"/>
      <use xlink:href="#TimesNewRomanPSMT-20" x="153.613281"/>
      <use xlink:href="#TimesNewRomanPSMT-62" x="178.613281"/>
      <use xlink:href="#TimesNewRomanPSMT-6c" x="228.613281"/>
      <use xlink:href="#TimesNewRomanPSMT-6f" x="256.396484"/>
      <use xlink:href="#TimesNewRomanPSMT-63" x="306.396484"/>
      <use xlink:href="#TimesNewRomanPSMT-6b" x="350.78125"/>
      <use xlink:href="#TimesNewRomanPSMT-20" x="400.78125"/>
      <use xlink:href="#TimesNewRomanPSMT-73" x="425.78125"/>
      <use xlink:href="#TimesNewRomanPSMT-63" x="464.697266"/>
      <use xlink:href="#TimesNewRomanPSMT-61" x="509.082031"/>
      <use xlink:href="#TimesNewRomanPSMT-6c" x="553.466797"/>
      <use xlink:href="#TimesNewRomanPSMT-65" x="581.25"/>
     </g>
    </g>
    <g id="line2d_24">
     <path d="M 162.687151 45.929372 
L 170.687151 45.929372 
L 178.687151 45.929372 
" style="fill: none; stroke: #000000; stroke-opacity: 0; stroke-width: 1.5; stroke-linecap: square"/>
     <defs>
      <path id="mb9463f8c60" d="M 0 -3.5 
L -3.5 3.5 
L 3.5 3.5 
z
" style="stroke: #e69f00; stroke-width: 1.15; stroke-linejoin: miter"/>
     </defs>
     <g>
      <use xlink:href="#mb9463f8c60" x="170.687151" y="45.929372" style="fill: #e69f00; stroke: #e69f00; stroke-width: 1.15; stroke-linejoin: miter"/>
     </g>
    </g>
    <g id="text_16">
     <!-- Q+S -->
     <g transform="translate(181.887151 48.729372) scale(0.08 -0.08)">
      <use xlink:href="#TimesNewRomanPSMT-51"/>
      <use xlink:href="#TimesNewRomanPSMT-2b" x="72.216797"/>
      <use xlink:href="#TimesNewRomanPSMT-53" x="128.613281"/>
     </g>
    </g>
    <g id="line2d_25">
     <path d="M 162.687151 57.240622 
L 170.687151 57.240622 
L 178.687151 57.240622 
" style="fill: none; stroke: #000000; stroke-opacity: 0; stroke-width: 1.5; stroke-linecap: square"/>
     <defs>
      <path id="m3a9377938a" d="M -0 3.5 
L 3.5 -3.5 
L -3.5 -3.5 
z
" style="stroke: #009e73; stroke-width: 1.15; stroke-linejoin: miter"/>
     </defs>
     <g>
      <use xlink:href="#m3a9377938a" x="170.687151" y="57.240622" style="fill: #009e73; stroke: #009e73; stroke-width: 1.15; stroke-linejoin: miter"/>
     </g>
    </g>
    <g id="text_17">
     <!-- Q+S (OBS) -->
     <g transform="translate(181.887151 60.040622) scale(0.08 -0.08)">
      <defs>
       <path id="TimesNewRomanPSMT-4f" d="M 2341 4334 
Q 3166 4334 3770 3707 
Q 4375 3081 4375 2144 
Q 4375 1178 3765 540 
Q 3156 -97 2291 -97 
Q 1416 -97 820 525 
Q 225 1147 225 2134 
Q 225 3144 913 3781 
Q 1509 4334 2341 4334 
z
M 2281 4106 
Q 1713 4106 1369 3684 
Q 941 3159 941 2147 
Q 941 1109 1384 550 
Q 1725 125 2284 125 
Q 2881 125 3270 590 
Q 3659 1056 3659 2059 
Q 3659 3147 3231 3681 
Q 2888 4106 2281 4106 
z
" transform="scale(0.015625)"/>
      </defs>
      <use xlink:href="#TimesNewRomanPSMT-51"/>
      <use xlink:href="#TimesNewRomanPSMT-2b" x="72.216797"/>
      <use xlink:href="#TimesNewRomanPSMT-53" x="128.613281"/>
      <use xlink:href="#TimesNewRomanPSMT-20" x="184.228516"/>
      <use xlink:href="#TimesNewRomanPSMT-28" x="209.228516"/>
      <use xlink:href="#TimesNewRomanPSMT-4f" x="242.529297"/>
      <use xlink:href="#TimesNewRomanPSMT-42" x="314.746094"/>
      <use xlink:href="#TimesNewRomanPSMT-53" x="381.445312"/>
      <use xlink:href="#TimesNewRomanPSMT-29" x="437.060547"/>
     </g>
    </g>
    <g id="line2d_26">
     <path d="M 162.687151 68.551872 
L 170.687151 68.551872 
L 178.687151 68.551872 
" style="fill: none; stroke: #000000; stroke-opacity: 0; stroke-width: 1.5; stroke-linecap: square"/>
     <defs>
      <path id="m38ed848733" d="M 0 -3.5 
L -0.785799 -1.081559 
L -3.328698 -1.081559 
L -1.271449 0.413119 
L -2.057248 2.831559 
L -0 1.336881 
L 2.057248 2.831559 
L 1.271449 0.413119 
L 3.328698 -1.081559 
L 0.785799 -1.081559 
z
" style="stroke: #0072b2; stroke-width: 1.15; stroke-linejoin: bevel"/>
     </defs>
     <g>
      <use xlink:href="#m38ed848733" x="170.687151" y="68.551872" style="fill: #0072b2; stroke: #0072b2; stroke-width: 1.15; stroke-linejoin: bevel"/>
     </g>
    </g>
    <g id="text_18">
     <!-- Q+L -->
     <g transform="translate(181.887151 71.351872) scale(0.08 -0.08)">
      <use xlink:href="#TimesNewRomanPSMT-51"/>
      <use xlink:href="#TimesNewRomanPSMT-2b" x="72.216797"/>
      <use xlink:href="#TimesNewRomanPSMT-4c" x="128.613281"/>
     </g>
    </g>
    <g id="line2d_27">
     <path d="M 162.687151 79.863122 
L 170.687151 79.863122 
L 178.687151 79.863122 
" style="fill: none; stroke: #000000; stroke-opacity: 0; stroke-width: 1.5; stroke-linecap: square"/>
     <defs>
      <path id="mec4376bad2" d="M 0 4.949747 
L 4.949747 0 
L 0 -4.949747 
L -4.949747 0 
z
" style="stroke: #d55e00; stroke-width: 1.15; stroke-linejoin: miter"/>
     </defs>
     <g>
      <use xlink:href="#mec4376bad2" x="170.687151" y="79.863122" style="fill-opacity: 0; stroke: #d55e00; stroke-width: 1.15; stroke-linejoin: miter"/>
     </g>
    </g>
    <g id="text_19">
     <!-- Q+S+L, strict -->
     <g transform="translate(181.887151 82.663122) scale(0.08 -0.08)">
      <defs>
       <path id="TimesNewRomanPSMT-2c" d="M 344 -1066 
L 344 -928 
Q 666 -822 842 -598 
Q 1019 -375 1019 -125 
Q 1019 -66 991 -25 
Q 969 3 947 3 
Q 913 3 797 -59 
Q 741 -88 678 -88 
Q 525 -88 434 3 
Q 344 94 344 253 
Q 344 406 461 515 
Q 578 625 747 625 
Q 953 625 1114 445 
Q 1275 266 1275 -31 
Q 1275 -353 1051 -629 
Q 828 -906 344 -1066 
z
" transform="scale(0.015625)"/>
      </defs>
      <use xlink:href="#TimesNewRomanPSMT-51"/>
      <use xlink:href="#TimesNewRomanPSMT-2b" x="72.216797"/>
      <use xlink:href="#TimesNewRomanPSMT-53" x="128.613281"/>
      <use xlink:href="#TimesNewRomanPSMT-2b" x="184.228516"/>
      <use xlink:href="#TimesNewRomanPSMT-4c" x="240.625"/>
      <use xlink:href="#TimesNewRomanPSMT-2c" x="301.708984"/>
      <use xlink:href="#TimesNewRomanPSMT-20" x="326.708984"/>
      <use xlink:href="#TimesNewRomanPSMT-73" x="351.708984"/>
      <use xlink:href="#TimesNewRomanPSMT-74" x="390.625"/>
      <use xlink:href="#TimesNewRomanPSMT-72" x="418.408203"/>
      <use xlink:href="#TimesNewRomanPSMT-69" x="451.708984"/>
      <use xlink:href="#TimesNewRomanPSMT-63" x="479.492188"/>
      <use xlink:href="#TimesNewRomanPSMT-74" x="523.876953"/>
     </g>
    </g>
    <g id="line2d_28">
     <path d="M 162.687151 91.174372 
L 170.687151 91.174372 
L 178.687151 91.174372 
" style="fill: none; stroke: #000000; stroke-opacity: 0; stroke-width: 1.5; stroke-linecap: square"/>
     <defs>
      <path id="mbc4ead255e" d="M -1.166667 3.5 
L 1.166667 3.5 
L 1.166667 1.166667 
L 3.5 1.166667 
L 3.5 -1.166667 
L 1.166667 -1.166667 
L 1.166667 -3.5 
L -1.166667 -3.5 
L -1.166667 -1.166667 
L -3.5 -1.166667 
L -3.5 1.166667 
L -1.166667 1.166667 
z
" style="stroke: #cc79a7; stroke-width: 1.15; stroke-linejoin: miter"/>
     </defs>
     <g>
      <use xlink:href="#mbc4ead255e" x="170.687151" y="91.174372" style="fill: #cc79a7; stroke: #cc79a7; stroke-width: 1.15; stroke-linejoin: miter"/>
     </g>
    </g>
    <g id="text_20">
     <!-- Q+S+L, +5,056 B -->
     <g transform="translate(181.887151 93.974372) scale(0.08 -0.08)">
      <defs>
       <path id="TimesNewRomanPSMT-35" d="M 2778 4238 
L 2534 3706 
L 1259 3706 
L 981 3138 
Q 1809 3016 2294 2522 
Q 2709 2097 2709 1522 
Q 2709 1188 2573 903 
Q 2438 619 2231 419 
Q 2025 219 1772 97 
Q 1413 -75 1034 -75 
Q 653 -75 479 54 
Q 306 184 306 341 
Q 306 428 378 495 
Q 450 563 559 563 
Q 641 563 702 538 
Q 763 513 909 409 
Q 1144 247 1384 247 
Q 1750 247 2026 523 
Q 2303 800 2303 1197 
Q 2303 1581 2056 1914 
Q 1809 2247 1375 2428 
Q 1034 2569 447 2591 
L 1259 4238 
L 2778 4238 
z
" transform="scale(0.015625)"/>
      </defs>
      <use xlink:href="#TimesNewRomanPSMT-51"/>
      <use xlink:href="#TimesNewRomanPSMT-2b" x="72.216797"/>
      <use xlink:href="#TimesNewRomanPSMT-53" x="128.613281"/>
      <use xlink:href="#TimesNewRomanPSMT-2b" x="184.228516"/>
      <use xlink:href="#TimesNewRomanPSMT-4c" x="240.625"/>
      <use xlink:href="#TimesNewRomanPSMT-2c" x="301.708984"/>
      <use xlink:href="#TimesNewRomanPSMT-20" x="326.708984"/>
      <use xlink:href="#TimesNewRomanPSMT-2b" x="351.708984"/>
      <use xlink:href="#TimesNewRomanPSMT-35" x="408.105469"/>
      <use xlink:href="#TimesNewRomanPSMT-2c" x="458.105469"/>
      <use xlink:href="#TimesNewRomanPSMT-30" x="483.105469"/>
      <use xlink:href="#TimesNewRomanPSMT-35" x="533.105469"/>
      <use xlink:href="#TimesNewRomanPSMT-36" x="583.105469"/>
      <use xlink:href="#TimesNewRomanPSMT-20" x="633.105469"/>
      <use xlink:href="#TimesNewRomanPSMT-42" x="658.105469"/>
     </g>
    </g>
   </g>
  </g>
  <g id="axes_2">
   <g id="patch_5">
    <path d="M 288.921694 163.723444 
L 503.754721 163.723444 
L 503.754721 13.306872 
L 288.921694 13.306872 
z
" style="fill: #ffffff"/>
   </g>
   <g id="matplotlib.axis_3">
    <g id="xtick_6">
     <g id="line2d_29">
      <path d="M 298.686831 163.723444 
L 298.686831 13.306872 
" clip-path="url(#p44d4ad4461)" style="fill: none; stroke-dasharray: 0.55,0.9075; stroke-dashoffset: 0; stroke: #b0b0b0; stroke-opacity: 0.45; stroke-width: 0.55"/>
     </g>
     <g id="line2d_30">
      <g>
       <use xlink:href="#m443372503c" x="298.686831" y="163.723444" style="stroke: #000000; stroke-width: 0.8"/>
      </g>
     </g>
     <g id="text_21">
      <!-- 0 -->
      <g transform="translate(296.436831 176.972819) scale(0.09 -0.09)">
       <use xlink:href="#TimesNewRomanPSMT-30"/>
      </g>
     </g>
    </g>
    <g id="xtick_7">
     <g id="line2d_31">
      <path d="M 346.909733 163.723444 
L 346.909733 13.306872 
" clip-path="url(#p44d4ad4461)" style="fill: none; stroke-dasharray: 0.55,0.9075; stroke-dashoffset: 0; stroke: #b0b0b0; stroke-opacity: 0.45; stroke-width: 0.55"/>
     </g>
     <g id="line2d_32">
      <g>
       <use xlink:href="#m443372503c" x="346.909733" y="163.723444" style="stroke: #000000; stroke-width: 0.8"/>
      </g>
     </g>
     <g id="text_22">
      <!-- 20 -->
      <g transform="translate(342.409733 176.972819) scale(0.09 -0.09)">
       <use xlink:href="#TimesNewRomanPSMT-32"/>
       <use xlink:href="#TimesNewRomanPSMT-30" x="50"/>
      </g>
     </g>
    </g>
    <g id="xtick_8">
     <g id="line2d_33">
      <path d="M 395.132635 163.723444 
L 395.132635 13.306872 
" clip-path="url(#p44d4ad4461)" style="fill: none; stroke-dasharray: 0.55,0.9075; stroke-dashoffset: 0; stroke: #b0b0b0; stroke-opacity: 0.45; stroke-width: 0.55"/>
     </g>
     <g id="line2d_34">
      <g>
       <use xlink:href="#m443372503c" x="395.132635" y="163.723444" style="stroke: #000000; stroke-width: 0.8"/>
      </g>
     </g>
     <g id="text_23">
      <!-- 40 -->
      <g transform="translate(390.632635 176.972819) scale(0.09 -0.09)">
       <use xlink:href="#TimesNewRomanPSMT-34"/>
       <use xlink:href="#TimesNewRomanPSMT-30" x="50"/>
      </g>
     </g>
    </g>
    <g id="xtick_9">
     <g id="line2d_35">
      <path d="M 443.355537 163.723444 
L 443.355537 13.306872 
" clip-path="url(#p44d4ad4461)" style="fill: none; stroke-dasharray: 0.55,0.9075; stroke-dashoffset: 0; stroke: #b0b0b0; stroke-opacity: 0.45; stroke-width: 0.55"/>
     </g>
     <g id="line2d_36">
      <g>
       <use xlink:href="#m443372503c" x="443.355537" y="163.723444" style="stroke: #000000; stroke-width: 0.8"/>
      </g>
     </g>
     <g id="text_24">
      <!-- 60 -->
      <g transform="translate(438.855537 176.972819) scale(0.09 -0.09)">
       <use xlink:href="#TimesNewRomanPSMT-36"/>
       <use xlink:href="#TimesNewRomanPSMT-30" x="50"/>
      </g>
     </g>
    </g>
    <g id="xtick_10">
     <g id="line2d_37">
      <path d="M 491.578439 163.723444 
L 491.578439 13.306872 
" clip-path="url(#p44d4ad4461)" style="fill: none; stroke-dasharray: 0.55,0.9075; stroke-dashoffset: 0; stroke: #b0b0b0; stroke-opacity: 0.45; stroke-width: 0.55"/>
     </g>
     <g id="line2d_38">
      <g>
       <use xlink:href="#m443372503c" x="491.578439" y="163.723444" style="stroke: #000000; stroke-width: 0.8"/>
      </g>
     </g>
     <g id="text_25">
      <!-- 80 -->
      <g transform="translate(487.078439 176.972819) scale(0.09 -0.09)">
       <use xlink:href="#TimesNewRomanPSMT-38"/>
       <use xlink:href="#TimesNewRomanPSMT-30" x="50"/>
      </g>
     </g>
    </g>
    <g id="text_26">
     <!-- Extra serialized bytes over control (KiB) -->
     <g transform="translate(314.838208 189.841726) scale(0.1 -0.1)">
      <defs>
       <path id="TimesNewRomanPSMT-45" d="M 1338 4006 
L 1338 2331 
L 2269 2331 
Q 2631 2331 2753 2441 
Q 2916 2584 2934 2947 
L 3050 2947 
L 3050 1472 
L 2934 1472 
Q 2891 1781 2847 1869 
Q 2791 1978 2662 2040 
Q 2534 2103 2269 2103 
L 1338 2103 
L 1338 706 
Q 1338 425 1363 364 
Q 1388 303 1450 267 
Q 1513 231 1688 231 
L 2406 231 
Q 2766 231 2928 281 
Q 3091 331 3241 478 
Q 3434 672 3638 1063 
L 3763 1063 
L 3397 0 
L 131 0 
L 131 116 
L 281 116 
Q 431 116 566 188 
Q 666 238 702 338 
Q 738 438 738 747 
L 738 3500 
Q 738 3903 656 3997 
Q 544 4122 281 4122 
L 131 4122 
L 131 4238 
L 3397 4238 
L 3444 3309 
L 3322 3309 
Q 3256 3644 3176 3769 
Q 3097 3894 2941 3959 
Q 2816 4006 2500 4006 
L 1338 4006 
z
" transform="scale(0.015625)"/>
       <path id="TimesNewRomanPSMT-76" d="M 53 2863 
L 1400 2863 
L 1400 2747 
L 1313 2747 
Q 1191 2747 1127 2687 
Q 1063 2628 1063 2528 
Q 1063 2419 1128 2269 
L 1794 688 
L 2463 2328 
Q 2534 2503 2534 2594 
Q 2534 2638 2509 2666 
Q 2475 2713 2422 2730 
Q 2369 2747 2206 2747 
L 2206 2863 
L 3141 2863 
L 3141 2747 
Q 2978 2734 2916 2681 
Q 2806 2588 2719 2369 
L 1703 -88 
L 1575 -88 
L 553 2328 
Q 484 2497 421 2570 
Q 359 2644 263 2694 
Q 209 2722 53 2747 
L 53 2863 
z
" transform="scale(0.015625)"/>
      </defs>
      <use xlink:href="#TimesNewRomanPSMT-45"/>
      <use xlink:href="#TimesNewRomanPSMT-78" x="61.083984"/>
      <use xlink:href="#TimesNewRomanPSMT-74" x="111.083984"/>
      <use xlink:href="#TimesNewRomanPSMT-72" x="138.867188"/>
      <use xlink:href="#TimesNewRomanPSMT-61" x="172.167969"/>
      <use xlink:href="#TimesNewRomanPSMT-20" x="216.552734"/>
      <use xlink:href="#TimesNewRomanPSMT-73" x="241.552734"/>
      <use xlink:href="#TimesNewRomanPSMT-65" x="280.46875"/>
      <use xlink:href="#TimesNewRomanPSMT-72" x="324.853516"/>
      <use xlink:href="#TimesNewRomanPSMT-69" x="358.154297"/>
      <use xlink:href="#TimesNewRomanPSMT-61" x="385.9375"/>
      <use xlink:href="#TimesNewRomanPSMT-6c" x="430.322266"/>
      <use xlink:href="#TimesNewRomanPSMT-69" x="458.105469"/>
      <use xlink:href="#TimesNewRomanPSMT-7a" x="485.888672"/>
      <use xlink:href="#TimesNewRomanPSMT-65" x="530.273438"/>
      <use xlink:href="#TimesNewRomanPSMT-64" x="574.658203"/>
      <use xlink:href="#TimesNewRomanPSMT-20" x="624.658203"/>
      <use xlink:href="#TimesNewRomanPSMT-62" x="649.658203"/>
      <use xlink:href="#TimesNewRomanPSMT-79" x="699.658203"/>
      <use xlink:href="#TimesNewRomanPSMT-74" x="749.658203"/>
      <use xlink:href="#TimesNewRomanPSMT-65" x="777.441406"/>
      <use xlink:href="#TimesNewRomanPSMT-73" x="821.826172"/>
      <use xlink:href="#TimesNewRomanPSMT-20" x="860.742188"/>
      <use xlink:href="#TimesNewRomanPSMT-6f" x="885.742188"/>
      <use xlink:href="#TimesNewRomanPSMT-76" x="935.742188"/>
      <use xlink:href="#TimesNewRomanPSMT-65" x="985.742188"/>
      <use xlink:href="#TimesNewRomanPSMT-72" x="1030.126953"/>
      <use xlink:href="#TimesNewRomanPSMT-20" x="1063.427734"/>
      <use xlink:href="#TimesNewRomanPSMT-63" x="1088.427734"/>
      <use xlink:href="#TimesNewRomanPSMT-6f" x="1132.8125"/>
      <use xlink:href="#TimesNewRomanPSMT-6e" x="1182.8125"/>
      <use xlink:href="#TimesNewRomanPSMT-74" x="1232.8125"/>
      <use xlink:href="#TimesNewRomanPSMT-72" x="1260.595703"/>
      <use xlink:href="#TimesNewRomanPSMT-6f" x="1293.896484"/>
      <use xlink:href="#TimesNewRomanPSMT-6c" x="1343.896484"/>
      <use xlink:href="#TimesNewRomanPSMT-20" x="1371.679688"/>
      <use xlink:href="#TimesNewRomanPSMT-28" x="1396.679688"/>
      <use xlink:href="#TimesNewRomanPSMT-4b" x="1429.980469"/>
      <use xlink:href="#TimesNewRomanPSMT-69" x="1502.197266"/>
      <use xlink:href="#TimesNewRomanPSMT-42" x="1529.980469"/>
      <use xlink:href="#TimesNewRomanPSMT-29" x="1596.679688"/>
     </g>
    </g>
   </g>
   <g id="matplotlib.axis_4">
    <g id="ytick_6">
     <g id="line2d_39">
      <path d="M 288.921694 138.438279 
L 503.754721 138.438279 
" clip-path="url(#p44d4ad4461)" style="fill: none; stroke-dasharray: 0.55,0.9075; stroke-dashoffset: 0; stroke: #b0b0b0; stroke-opacity: 0.45; stroke-width: 0.55"/>
     </g>
     <g id="line2d_40">
      <g>
       <use xlink:href="#m43cda8beca" x="288.921694" y="138.438279" style="stroke: #000000; stroke-width: 0.8"/>
      </g>
     </g>
     <g id="text_27">
      <!-- 0.00 -->
      <g transform="translate(266.171694 141.562966) scale(0.09 -0.09)">
       <defs>
        <path id="TimesNewRomanPSMT-2e" d="M 800 606 
Q 947 606 1047 504 
Q 1147 403 1147 259 
Q 1147 116 1045 14 
Q 944 -88 800 -88 
Q 656 -88 554 14 
Q 453 116 453 259 
Q 453 406 554 506 
Q 656 606 800 606 
z
" transform="scale(0.015625)"/>
       </defs>
       <use xlink:href="#TimesNewRomanPSMT-30"/>
       <use xlink:href="#TimesNewRomanPSMT-2e" x="50"/>
       <use xlink:href="#TimesNewRomanPSMT-30" x="75"/>
       <use xlink:href="#TimesNewRomanPSMT-30" x="125"/>
      </g>
     </g>
    </g>
    <g id="ytick_7">
     <g id="line2d_41">
      <path d="M 288.921694 112.739742 
L 503.754721 112.739742 
" clip-path="url(#p44d4ad4461)" style="fill: none; stroke-dasharray: 0.55,0.9075; stroke-dashoffset: 0; stroke: #b0b0b0; stroke-opacity: 0.45; stroke-width: 0.55"/>
     </g>
     <g id="line2d_42">
      <g>
       <use xlink:href="#m43cda8beca" x="288.921694" y="112.739742" style="stroke: #000000; stroke-width: 0.8"/>
      </g>
     </g>
     <g id="text_28">
      <!-- 0.02 -->
      <g transform="translate(266.171694 115.864429) scale(0.09 -0.09)">
       <use xlink:href="#TimesNewRomanPSMT-30"/>
       <use xlink:href="#TimesNewRomanPSMT-2e" x="50"/>
       <use xlink:href="#TimesNewRomanPSMT-30" x="75"/>
       <use xlink:href="#TimesNewRomanPSMT-32" x="125"/>
      </g>
     </g>
    </g>
    <g id="ytick_8">
     <g id="line2d_43">
      <path d="M 288.921694 87.041205 
L 503.754721 87.041205 
" clip-path="url(#p44d4ad4461)" style="fill: none; stroke-dasharray: 0.55,0.9075; stroke-dashoffset: 0; stroke: #b0b0b0; stroke-opacity: 0.45; stroke-width: 0.55"/>
     </g>
     <g id="line2d_44">
      <g>
       <use xlink:href="#m43cda8beca" x="288.921694" y="87.041205" style="stroke: #000000; stroke-width: 0.8"/>
      </g>
     </g>
     <g id="text_29">
      <!-- 0.04 -->
      <g transform="translate(266.171694 90.165892) scale(0.09 -0.09)">
       <use xlink:href="#TimesNewRomanPSMT-30"/>
       <use xlink:href="#TimesNewRomanPSMT-2e" x="50"/>
       <use xlink:href="#TimesNewRomanPSMT-30" x="75"/>
       <use xlink:href="#TimesNewRomanPSMT-34" x="125"/>
      </g>
     </g>
    </g>
    <g id="ytick_9">
     <g id="line2d_45">
      <path d="M 288.921694 61.342668 
L 503.754721 61.342668 
" clip-path="url(#p44d4ad4461)" style="fill: none; stroke-dasharray: 0.55,0.9075; stroke-dashoffset: 0; stroke: #b0b0b0; stroke-opacity: 0.45; stroke-width: 0.55"/>
     </g>
     <g id="line2d_46">
      <g>
       <use xlink:href="#m43cda8beca" x="288.921694" y="61.342668" style="stroke: #000000; stroke-width: 0.8"/>
      </g>
     </g>
     <g id="text_30">
      <!-- 0.06 -->
      <g transform="translate(266.171694 64.467355) scale(0.09 -0.09)">
       <use xlink:href="#TimesNewRomanPSMT-30"/>
       <use xlink:href="#TimesNewRomanPSMT-2e" x="50"/>
       <use xlink:href="#TimesNewRomanPSMT-30" x="75"/>
       <use xlink:href="#TimesNewRomanPSMT-36" x="125"/>
      </g>
     </g>
    </g>
    <g id="ytick_10">
     <g id="line2d_47">
      <path d="M 288.921694 35.64413 
L 503.754721 35.64413 
" clip-path="url(#p44d4ad4461)" style="fill: none; stroke-dasharray: 0.55,0.9075; stroke-dashoffset: 0; stroke: #b0b0b0; stroke-opacity: 0.45; stroke-width: 0.55"/>
     </g>
     <g id="line2d_48">
      <g>
       <use xlink:href="#m43cda8beca" x="288.921694" y="35.64413" style="stroke: #000000; stroke-width: 0.8"/>
      </g>
     </g>
     <g id="text_31">
      <!-- 0.08 -->
      <g transform="translate(266.171694 38.768818) scale(0.09 -0.09)">
       <use xlink:href="#TimesNewRomanPSMT-30"/>
       <use xlink:href="#TimesNewRomanPSMT-2e" x="50"/>
       <use xlink:href="#TimesNewRomanPSMT-30" x="75"/>
       <use xlink:href="#TimesNewRomanPSMT-38" x="125"/>
      </g>
     </g>
    </g>
    <g id="text_32">
     <!-- Paired NLL recovery (positive is better) -->
     <g transform="translate(260.013881 168.437815) rotate(-90) scale(0.1 -0.1)">
      <defs>
       <path id="TimesNewRomanPSMT-4e" d="M -84 4238 
L 1066 4238 
L 3656 1059 
L 3656 3503 
Q 3656 3894 3569 3991 
Q 3453 4122 3203 4122 
L 3056 4122 
L 3056 4238 
L 4531 4238 
L 4531 4122 
L 4381 4122 
Q 4113 4122 4000 3959 
Q 3931 3859 3931 3503 
L 3931 -69 
L 3819 -69 
L 1025 3344 
L 1025 734 
Q 1025 344 1109 247 
Q 1228 116 1475 116 
L 1625 116 
L 1625 0 
L 150 0 
L 150 116 
L 297 116 
Q 569 116 681 278 
Q 750 378 750 734 
L 750 3681 
Q 566 3897 470 3965 
Q 375 4034 191 4094 
Q 100 4122 -84 4122 
L -84 4238 
z
" transform="scale(0.015625)"/>
      </defs>
      <use xlink:href="#TimesNewRomanPSMT-50"/>
      <use xlink:href="#TimesNewRomanPSMT-61" x="55.615234"/>
      <use xlink:href="#TimesNewRomanPSMT-69" x="100"/>
      <use xlink:href="#TimesNewRomanPSMT-72" x="127.783203"/>
      <use xlink:href="#TimesNewRomanPSMT-65" x="161.083984"/>
      <use xlink:href="#TimesNewRomanPSMT-64" x="205.46875"/>
      <use xlink:href="#TimesNewRomanPSMT-20" x="255.46875"/>
      <use xlink:href="#TimesNewRomanPSMT-4e" x="280.46875"/>
      <use xlink:href="#TimesNewRomanPSMT-4c" x="352.685547"/>
      <use xlink:href="#TimesNewRomanPSMT-4c" x="413.769531"/>
      <use xlink:href="#TimesNewRomanPSMT-20" x="471.103516"/>
      <use xlink:href="#TimesNewRomanPSMT-72" x="496.103516"/>
      <use xlink:href="#TimesNewRomanPSMT-65" x="529.404297"/>
      <use xlink:href="#TimesNewRomanPSMT-63" x="573.789062"/>
      <use xlink:href="#TimesNewRomanPSMT-6f" x="618.173828"/>
      <use xlink:href="#TimesNewRomanPSMT-76" x="668.173828"/>
      <use xlink:href="#TimesNewRomanPSMT-65" x="718.173828"/>
      <use xlink:href="#TimesNewRomanPSMT-72" x="762.558594"/>
      <use xlink:href="#TimesNewRomanPSMT-79" x="795.859375"/>
      <use xlink:href="#TimesNewRomanPSMT-20" x="845.859375"/>
      <use xlink:href="#TimesNewRomanPSMT-28" x="870.859375"/>
      <use xlink:href="#TimesNewRomanPSMT-70" x="904.160156"/>
      <use xlink:href="#TimesNewRomanPSMT-6f" x="954.160156"/>
      <use xlink:href="#TimesNewRomanPSMT-73" x="1004.160156"/>
      <use xlink:href="#TimesNewRomanPSMT-69" x="1043.076172"/>
      <use xlink:href="#TimesNewRomanPSMT-74" x="1070.859375"/>
      <use xlink:href="#TimesNewRomanPSMT-69" x="1098.642578"/>
      <use xlink:href="#TimesNewRomanPSMT-76" x="1126.425781"/>
      <use xlink:href="#TimesNewRomanPSMT-65" x="1176.425781"/>
      <use xlink:href="#TimesNewRomanPSMT-20" x="1220.810547"/>
      <use xlink:href="#TimesNewRomanPSMT-69" x="1245.810547"/>
      <use xlink:href="#TimesNewRomanPSMT-73" x="1273.59375"/>
      <use xlink:href="#TimesNewRomanPSMT-20" x="1312.509766"/>
      <use xlink:href="#TimesNewRomanPSMT-62" x="1337.509766"/>
      <use xlink:href="#TimesNewRomanPSMT-65" x="1387.509766"/>
      <use xlink:href="#TimesNewRomanPSMT-74" x="1431.894531"/>
      <use xlink:href="#TimesNewRomanPSMT-74" x="1459.677734"/>
      <use xlink:href="#TimesNewRomanPSMT-65" x="1487.460938"/>
      <use xlink:href="#TimesNewRomanPSMT-72" x="1531.845703"/>
      <use xlink:href="#TimesNewRomanPSMT-29" x="1565.146484"/>
     </g>
    </g>
   </g>
   <g id="line2d_49">
    <path d="M 288.921694 138.438279 
L 503.754721 138.438279 
" clip-path="url(#p44d4ad4461)" style="fill: none; stroke: #222222; stroke-opacity: 0.75; stroke-width: 0.8; stroke-linecap: square"/>
   </g>
   <g id="line2d_50">
    <path d="M 298.686831 163.723444 
L 298.686831 13.306872 
" clip-path="url(#p44d4ad4461)" style="fill: none; stroke: #777777; stroke-opacity: 0.55; stroke-width: 0.65; stroke-linecap: square"/>
   </g>
   <g id="patch_6">
    <path d="M 288.921694 163.723444 
L 288.921694 13.306872 
" style="fill: none; stroke: #000000; stroke-width: 0.8; stroke-linejoin: miter; stroke-linecap: square"/>
   </g>
   <g id="patch_7">
    <path d="M 288.921694 163.723444 
L 503.754721 163.723444 
" style="fill: none; stroke: #000000; stroke-width: 0.8; stroke-linejoin: miter; stroke-linecap: square"/>
   </g>
   <g id="text_33">
    <!-- (b) -->
    <g transform="translate(258.84507 8.794375) scale(0.1 -0.1)">
     <defs>
      <path id="TimesNewRomanPS-BoldMT-62" d="M 1347 4238 
L 1347 2628 
Q 1716 3009 2153 3009 
Q 2453 3009 2718 2832 
Q 2984 2656 3134 2331 
Q 3284 2006 3284 1581 
Q 3284 1103 3093 712 
Q 2903 322 2584 117 
Q 2266 -88 1856 -88 
Q 1619 -88 1434 -12 
Q 1250 63 1072 231 
L 588 -84 
L 481 -84 
L 481 3631 
Q 481 3884 459 3944 
Q 428 4031 361 4073 
Q 294 4116 134 4122 
L 134 4238 
L 1347 4238 
z
M 1347 2350 
L 1347 1050 
Q 1347 653 1366 544 
Q 1397 359 1515 245 
Q 1634 131 1819 131 
Q 1978 131 2092 222 
Q 2206 313 2282 581 
Q 2359 850 2359 1550 
Q 2359 2222 2191 2472 
Q 2069 2653 1863 2653 
Q 1594 2653 1347 2350 
z
" transform="scale(0.015625)"/>
     </defs>
     <use xlink:href="#TimesNewRomanPS-BoldMT-28"/>
     <use xlink:href="#TimesNewRomanPS-BoldMT-62" x="33.300781"/>
     <use xlink:href="#TimesNewRomanPS-BoldMT-29" x="88.916016"/>
    </g>
   </g>
   <g id="LineCollection_1">
    <path d="M 298.686831 115.78495 
L 298.686831 92.075514 
" clip-path="url(#p44d4ad4461)" style="fill: none; stroke: #009e73"/>
   </g>
   <g id="line2d_51">
    <defs>
     <path id="me1989ef116" d="M 2.5 0 
L -2.5 -0 
" style="stroke: #009e73; stroke-width: 1.2"/>
    </defs>
    <g clip-path="url(#p44d4ad4461)">
     <use xlink:href="#me1989ef116" x="298.686831" y="115.78495" style="fill: #009e73; stroke: #009e73; stroke-width: 1.2"/>
    </g>
   </g>
   <g id="line2d_52">
    <g clip-path="url(#p44d4ad4461)">
     <use xlink:href="#me1989ef116" x="298.686831" y="92.075514" style="fill: #009e73; stroke: #009e73; stroke-width: 1.2"/>
    </g>
   </g>
   <g id="LineCollection_2">
    <path d="M 493.989584 65.463528 
L 493.989584 20.143989 
" clip-path="url(#p44d4ad4461)" style="fill: none; stroke: #56b4e9"/>
   </g>
   <g id="line2d_53">
    <defs>
     <path id="m6939cf38fe" d="M 2.5 0 
L -2.5 -0 
" style="stroke: #56b4e9; stroke-width: 1.2"/>
    </defs>
    <g clip-path="url(#p44d4ad4461)">
     <use xlink:href="#m6939cf38fe" x="493.989584" y="65.463528" style="fill: #56b4e9; stroke: #56b4e9; stroke-width: 1.2"/>
    </g>
   </g>
   <g id="line2d_54">
    <g clip-path="url(#p44d4ad4461)">
     <use xlink:href="#m6939cf38fe" x="493.989584" y="20.143989" style="fill: #56b4e9; stroke: #56b4e9; stroke-width: 1.2"/>
    </g>
   </g>
   <g id="LineCollection_3">
    <path d="M 298.686831 156.886327 
L 298.686831 138.282255 
" clip-path="url(#p44d4ad4461)" style="fill: none; stroke: #d55e00"/>
   </g>
   <g id="line2d_55">
    <defs>
     <path id="mdd0f9d3208" d="M 2.5 0 
L -2.5 -0 
" style="stroke: #d55e00; stroke-width: 1.2"/>
    </defs>
    <g clip-path="url(#p44d4ad4461)">
     <use xlink:href="#mdd0f9d3208" x="298.686831" y="156.886327" style="fill: #d55e00; stroke: #d55e00; stroke-width: 1.2"/>
    </g>
   </g>
   <g id="line2d_56">
    <g clip-path="url(#p44d4ad4461)">
     <use xlink:href="#mdd0f9d3208" x="298.686831" y="138.282255" style="fill: #d55e00; stroke: #d55e00; stroke-width: 1.2"/>
    </g>
   </g>
   <g id="LineCollection_4">
    <path d="M 310.59186 139.700533 
L 310.59186 127.758185 
" clip-path="url(#p44d4ad4461)" style="fill: none; stroke: #cc79a7"/>
   </g>
   <g id="line2d_57">
    <defs>
     <path id="m97e403d0ee" d="M 2.5 0 
L -2.5 -0 
" style="stroke: #cc79a7; stroke-width: 1.2"/>
    </defs>
    <g clip-path="url(#p44d4ad4461)">
     <use xlink:href="#m97e403d0ee" x="310.59186" y="139.700533" style="fill: #cc79a7; stroke: #cc79a7; stroke-width: 1.2"/>
    </g>
   </g>
   <g id="line2d_58">
    <g clip-path="url(#p44d4ad4461)">
     <use xlink:href="#m97e403d0ee" x="310.59186" y="127.758185" style="fill: #cc79a7; stroke: #cc79a7; stroke-width: 1.2"/>
    </g>
   </g>
   <g id="line2d_59">
    <defs>
     <path id="mfbfd599ca6" d="M 0 3 
C 0.795609 3 1.55874 2.683901 2.12132 2.12132 
C 2.683901 1.55874 3 0.795609 3 0 
C 3 -0.795609 2.683901 -1.55874 2.12132 -2.12132 
C 1.55874 -2.683901 0.795609 -3 0 -3 
C -0.795609 -3 -1.55874 -2.683901 -2.12132 -2.12132 
C -2.683901 -1.55874 -3 -0.795609 -3 0 
C -3 0.795609 -2.683901 1.55874 -2.12132 2.12132 
C -1.55874 2.683901 -0.795609 3 0 3 
z
" style="stroke: #009e73; stroke-width: 1.2"/>
    </defs>
    <g clip-path="url(#p44d4ad4461)">
     <use xlink:href="#mfbfd599ca6" x="298.686831" y="103.930232" style="fill: #009e73; stroke: #009e73; stroke-width: 1.2"/>
    </g>
   </g>
   <g id="line2d_60">
    <defs>
     <path id="m3765cc27b9" d="M -3 3 
L 3 3 
L 3 -3 
L -3 -3 
z
" style="stroke: #56b4e9; stroke-width: 1.2; stroke-linejoin: miter"/>
    </defs>
    <g clip-path="url(#p44d4ad4461)">
     <use xlink:href="#m3765cc27b9" x="493.989584" y="42.803759" style="fill: #56b4e9; stroke: #56b4e9; stroke-width: 1.2; stroke-linejoin: miter"/>
    </g>
   </g>
   <g id="line2d_61">
    <defs>
     <path id="ma4d4ed84b0" d="M 0 4.242641 
L 4.242641 0 
L 0 -4.242641 
L -4.242641 0 
z
" style="stroke: #d55e00; stroke-width: 1.2; stroke-linejoin: miter"/>
    </defs>
    <g clip-path="url(#p44d4ad4461)">
     <use xlink:href="#ma4d4ed84b0" x="298.686831" y="147.584291" style="fill-opacity: 0; stroke: #d55e00; stroke-width: 1.2; stroke-linejoin: miter"/>
    </g>
   </g>
   <g id="line2d_62">
    <defs>
     <path id="mfd86272ab6" d="M -1 3 
L 1 3 
L 1 1 
L 3 1 
L 3 -1 
L 1 -1 
L 1 -3 
L -1 -3 
L -1 -1 
L -3 -1 
L -3 1 
L -1 1 
z
" style="stroke: #cc79a7; stroke-width: 1.2; stroke-linejoin: miter"/>
    </defs>
    <g clip-path="url(#p44d4ad4461)">
     <use xlink:href="#mfd86272ab6" x="310.59186" y="133.729359" style="fill: #cc79a7; stroke: #cc79a7; stroke-width: 1.2; stroke-linejoin: miter"/>
    </g>
   </g>
   <g id="legend_2">
    <g id="LineCollection_5">
     <path d="M 405.078471 27.306872 
L 405.078471 19.306872 
" style="fill: none; stroke: #009e73"/>
    </g>
    <g id="line2d_63">
     <g>
      <use xlink:href="#me1989ef116" x="405.078471" y="27.306872" style="fill: #009e73; stroke: #009e73; stroke-width: 1.2"/>
     </g>
    </g>
    <g id="line2d_64">
     <g>
      <use xlink:href="#me1989ef116" x="405.078471" y="19.306872" style="fill: #009e73; stroke: #009e73; stroke-width: 1.2"/>
     </g>
    </g>
    <g id="line2d_65"/>
    <g id="line2d_66">
     <g>
      <use xlink:href="#mfbfd599ca6" x="405.078471" y="23.306872" style="fill: #009e73; stroke: #009e73; stroke-width: 1.2"/>
     </g>
    </g>
    <g id="text_34">
     <!-- OBS vs. Q+S -->
     <g transform="translate(416.278471 26.106872) scale(0.08 -0.08)">
      <use xlink:href="#TimesNewRomanPSMT-4f"/>
      <use xlink:href="#TimesNewRomanPSMT-42" x="72.216797"/>
      <use xlink:href="#TimesNewRomanPSMT-53" x="138.916016"/>
      <use xlink:href="#TimesNewRomanPSMT-20" x="194.53125"/>
      <use xlink:href="#TimesNewRomanPSMT-76" x="219.53125"/>
      <use xlink:href="#TimesNewRomanPSMT-73" x="269.53125"/>
      <use xlink:href="#TimesNewRomanPSMT-2e" x="308.447266"/>
      <use xlink:href="#TimesNewRomanPSMT-20" x="333.447266"/>
      <use xlink:href="#TimesNewRomanPSMT-51" x="358.447266"/>
      <use xlink:href="#TimesNewRomanPSMT-2b" x="430.664062"/>
      <use xlink:href="#TimesNewRomanPSMT-53" x="487.060547"/>
     </g>
    </g>
    <g id="LineCollection_6">
     <path d="M 405.078471 38.618122 
L 405.078471 30.618122 
" style="fill: none; stroke: #56b4e9"/>
    </g>
    <g id="line2d_67">
     <g>
      <use xlink:href="#m6939cf38fe" x="405.078471" y="38.618122" style="fill: #56b4e9; stroke: #56b4e9; stroke-width: 1.2"/>
     </g>
    </g>
    <g id="line2d_68">
     <g>
      <use xlink:href="#m6939cf38fe" x="405.078471" y="30.618122" style="fill: #56b4e9; stroke: #56b4e9; stroke-width: 1.2"/>
     </g>
    </g>
    <g id="line2d_69"/>
    <g id="line2d_70">
     <g>
      <use xlink:href="#m3765cc27b9" x="405.078471" y="34.618122" style="fill: #56b4e9; stroke: #56b4e9; stroke-width: 1.2; stroke-linejoin: miter"/>
     </g>
    </g>
    <g id="text_35">
     <!-- Block scale vs. Q -->
     <g transform="translate(416.278471 37.418122) scale(0.08 -0.08)">
      <use xlink:href="#TimesNewRomanPSMT-42"/>
      <use xlink:href="#TimesNewRomanPSMT-6c" x="66.699219"/>
      <use xlink:href="#TimesNewRomanPSMT-6f" x="94.482422"/>
      <use xlink:href="#TimesNewRomanPSMT-63" x="144.482422"/>
      <use xlink:href="#TimesNewRomanPSMT-6b" x="188.867188"/>
      <use xlink:href="#TimesNewRomanPSMT-20" x="238.867188"/>
      <use xlink:href="#TimesNewRomanPSMT-73" x="263.867188"/>
      <use xlink:href="#TimesNewRomanPSMT-63" x="302.783203"/>
      <use xlink:href="#TimesNewRomanPSMT-61" x="347.167969"/>
      <use xlink:href="#TimesNewRomanPSMT-6c" x="391.552734"/>
      <use xlink:href="#TimesNewRomanPSMT-65" x="419.335938"/>
      <use xlink:href="#TimesNewRomanPSMT-20" x="463.720703"/>
      <use xlink:href="#TimesNewRomanPSMT-76" x="488.720703"/>
      <use xlink:href="#TimesNewRomanPSMT-73" x="538.720703"/>
      <use xlink:href="#TimesNewRomanPSMT-2e" x="577.636719"/>
      <use xlink:href="#TimesNewRomanPSMT-20" x="602.636719"/>
      <use xlink:href="#TimesNewRomanPSMT-51" x="627.636719"/>
     </g>
    </g>
    <g id="LineCollection_7">
     <path d="M 405.078471 49.929372 
L 405.078471 41.929372 
" style="fill: none; stroke: #d55e00"/>
    </g>
    <g id="line2d_71">
     <g>
      <use xlink:href="#mdd0f9d3208" x="405.078471" y="49.929372" style="fill: #d55e00; stroke: #d55e00; stroke-width: 1.2"/>
     </g>
    </g>
    <g id="line2d_72">
     <g>
      <use xlink:href="#mdd0f9d3208" x="405.078471" y="41.929372" style="fill: #d55e00; stroke: #d55e00; stroke-width: 1.2"/>
     </g>
    </g>
    <g id="line2d_73"/>
    <g id="line2d_74">
     <g>
      <use xlink:href="#ma4d4ed84b0" x="405.078471" y="45.929372" style="fill-opacity: 0; stroke: #d55e00; stroke-width: 1.2; stroke-linejoin: miter"/>
     </g>
    </g>
    <g id="text_36">
     <!-- Strict QSL vs. Q+L -->
     <g transform="translate(416.278471 48.729372) scale(0.08 -0.08)">
      <use xlink:href="#TimesNewRomanPSMT-53"/>
      <use xlink:href="#TimesNewRomanPSMT-74" x="55.615234"/>
      <use xlink:href="#TimesNewRomanPSMT-72" x="83.398438"/>
      <use xlink:href="#TimesNewRomanPSMT-69" x="116.699219"/>
      <use xlink:href="#TimesNewRomanPSMT-63" x="144.482422"/>
      <use xlink:href="#TimesNewRomanPSMT-74" x="188.867188"/>
      <use xlink:href="#TimesNewRomanPSMT-20" x="216.650391"/>
      <use xlink:href="#TimesNewRomanPSMT-51" x="241.650391"/>
      <use xlink:href="#TimesNewRomanPSMT-53" x="313.867188"/>
      <use xlink:href="#TimesNewRomanPSMT-4c" x="369.482422"/>
      <use xlink:href="#TimesNewRomanPSMT-20" x="426.816406"/>
      <use xlink:href="#TimesNewRomanPSMT-76" x="451.816406"/>
      <use xlink:href="#TimesNewRomanPSMT-73" x="501.816406"/>
      <use xlink:href="#TimesNewRomanPSMT-2e" x="540.732422"/>
      <use xlink:href="#TimesNewRomanPSMT-20" x="565.732422"/>
      <use xlink:href="#TimesNewRomanPSMT-51" x="590.732422"/>
      <use xlink:href="#TimesNewRomanPSMT-2b" x="662.949219"/>
      <use xlink:href="#TimesNewRomanPSMT-4c" x="719.345703"/>
     </g>
    </g>
    <g id="LineCollection_8">
     <path d="M 405.078471 61.240622 
L 405.078471 53.240622 
" style="fill: none; stroke: #cc79a7"/>
    </g>
    <g id="line2d_75">
     <g>
      <use xlink:href="#m97e403d0ee" x="405.078471" y="61.240622" style="fill: #cc79a7; stroke: #cc79a7; stroke-width: 1.2"/>
     </g>
    </g>
    <g id="line2d_76">
     <g>
      <use xlink:href="#m97e403d0ee" x="405.078471" y="53.240622" style="fill: #cc79a7; stroke: #cc79a7; stroke-width: 1.2"/>
     </g>
    </g>
    <g id="line2d_77"/>
    <g id="line2d_78">
     <g>
      <use xlink:href="#mfd86272ab6" x="405.078471" y="57.240622" style="fill: #cc79a7; stroke: #cc79a7; stroke-width: 1.2; stroke-linejoin: miter"/>
     </g>
    </g>
    <g id="text_37">
     <!-- QSL (+5,056 B) vs. Q+L -->
     <g transform="translate(416.278471 60.040622) scale(0.08 -0.08)">
      <use xlink:href="#TimesNewRomanPSMT-51"/>
      <use xlink:href="#TimesNewRomanPSMT-53" x="72.216797"/>
      <use xlink:href="#TimesNewRomanPSMT-4c" x="127.832031"/>
      <use xlink:href="#TimesNewRomanPSMT-20" x="185.166016"/>
      <use xlink:href="#TimesNewRomanPSMT-28" x="210.166016"/>
      <use xlink:href="#TimesNewRomanPSMT-2b" x="243.466797"/>
      <use xlink:href="#TimesNewRomanPSMT-35" x="299.863281"/>
      <use xlink:href="#TimesNewRomanPSMT-2c" x="349.863281"/>
      <use xlink:href="#TimesNewRomanPSMT-30" x="374.863281"/>
      <use xlink:href="#TimesNewRomanPSMT-35" x="424.863281"/>
      <use xlink:href="#TimesNewRomanPSMT-36" x="474.863281"/>
      <use xlink:href="#TimesNewRomanPSMT-20" x="524.863281"/>
      <use xlink:href="#TimesNewRomanPSMT-42" x="549.863281"/>
      <use xlink:href="#TimesNewRomanPSMT-29" x="616.5625"/>
      <use xlink:href="#TimesNewRomanPSMT-20" x="649.863281"/>
      <use xlink:href="#TimesNewRomanPSMT-76" x="674.863281"/>
      <use xlink:href="#TimesNewRomanPSMT-73" x="724.863281"/>
      <use xlink:href="#TimesNewRomanPSMT-2e" x="763.779297"/>
      <use xlink:href="#TimesNewRomanPSMT-20" x="788.779297"/>
      <use xlink:href="#TimesNewRomanPSMT-51" x="813.779297"/>
      <use xlink:href="#TimesNewRomanPSMT-2b" x="885.996094"/>
      <use xlink:href="#TimesNewRomanPSMT-4c" x="942.392578"/>
     </g>
    </g>
   </g>
  </g>
 </g>
 <defs>
  <clipPath id="p02821ee93f">
   <rect x="32.236624" y="13.306872" width="214.833027" height="150.416572"/>
  </clipPath>
  <clipPath id="p44d4ad4461">
   <rect x="288.921694" y="13.306872" width="214.833027" height="150.416572"/>
  </clipPath>
 </defs>
</svg>
