<?xml version="1.0" encoding="utf-8" standalone="no"?>
<!DOCTYPE svg PUBLIC "-//W3C//DTD SVG 1.1//EN"
  "http://www.w3.org/Graphics/SVG/1.1/DTD/svg11.dtd">
<svg xmlns:xlink="http://www.w3.org/1999/xlink" width="484.31952pt" height="194.458375pt" viewBox="0 0 484.31952 194.458375" xmlns="http://www.w3.org/2000/svg" version="1.1">
 <metadata>
  <rdf:RDF xmlns:dc="http://purl.org/dc/elements/1.1/" xmlns:cc="http://creativecommons.org/ns#" xmlns:rdf="http://www.w3.org/1999/02/22-rdf-syntax-ns#">
   <cc:Work>
    <dc:type rdf:resource="http://purl.org/dc/dcmitype/StillImage"/>
    <dc:format>image/svg+xml</dc:format>
    <dc:creator>
     <cc:Agent>
      <dc:title>scaling_pilot_plots.py</dc:title>
     </cc:Agent>
    </dc:creator>
   </cc:Work>
  </rdf:RDF>
 </metadata>
 <defs>
  <style type="text/css">*{stroke-linejoin: round; stroke-linecap: butt}</style>
 </defs>
 <g id="figure_1">
  <g id="patch_1">
   <path d="M 0 194.458375 
L 484.31952 194.458375 
L 484.31952 0 
L 0 0 
z
" style="fill: #ffffff"/>
  </g>
  <g id="axes_1">
   <g id="patch_2">
    <path d="M 33.419375 124.269822 
L 141.806237 124.269822 
L 141.806237 34.675939 
L 33.419375 34.675939 
z
" style="fill: #ffffff"/>
   </g>
   <g id="matplotlib.axis_1">
    <g id="xtick_1">
     <g id="line2d_1">
      <path d="M 38.346051 124.269822 
L 38.346051 34.675939 
" clip-path="url(#p5951f9c894)" style="fill: none; stroke-dasharray: 0.45,0.7425; stroke-dashoffset: 0; stroke: #b0b0b0; stroke-opacity: 0.45; stroke-width: 0.45"/>
     </g>
     <g id="line2d_2">
      <defs>
       <path id="mafe5ff414d" d="M 0 0 
L 0 3.5 
" style="stroke: #000000; stroke-width: 0.8"/>
      </defs>
      <g>
       <use xlink:href="#mafe5ff414d" x="38.346051" y="124.269822" style="stroke: #000000; stroke-width: 0.8"/>
      </g>
     </g>
     <g id="text_1">
      <!-- 0.00 -->
      <g transform="translate(30.471051 137.416541) scale(0.09 -0.09)">
       <defs>
        <path id="TeXGyreTermes-Regular-30" d="M 3046 2112 
C 3046 3424 2464 4326 1626 4326 
C 1274 4326 1005 4218 768 3994 
C 397 3635 154 2899 154 2150 
C 154 1453 365 704 666 346 
C 902 64 1229 -90 1600 -90 
C 1926 -90 2202 19 2432 243 
C 2803 595 3046 1338 3046 2112 
z
M 2432 2099 
C 2432 762 2150 77 1600 77 
C 1050 77 768 762 768 2093 
C 768 3450 1056 4160 1606 4160 
C 2144 4160 2432 3437 2432 2099 
z
" transform="scale(0.015625)"/>
        <path id="TeXGyreTermes-Regular-2e" d="M 1158 275 
C 1158 474 992 640 800 640 
C 608 640 448 474 448 275 
C 448 90 608 -70 794 -70 
C 992 -70 1158 90 1158 275 
z
" transform="scale(0.015625)"/>
       </defs>
       <use xlink:href="#TeXGyreTermes-Regular-30"/>
       <use xlink:href="#TeXGyreTermes-Regular-2e" x="49.999985"/>
       <use xlink:href="#TeXGyreTermes-Regular-30" x="74.999969"/>
       <use xlink:href="#TeXGyreTermes-Regular-30" x="124.999954"/>
      </g>
     </g>
    </g>
    <g id="xtick_2">
     <g id="line2d_3">
      <path d="M 79.167165 124.269822 
L 79.167165 34.675939 
" clip-path="url(#p5951f9c894)" style="fill: none; stroke-dasharray: 0.45,0.7425; stroke-dashoffset: 0; stroke: #b0b0b0; stroke-opacity: 0.45; stroke-width: 0.45"/>
     </g>
     <g id="line2d_4">
      <g>
       <use xlink:href="#mafe5ff414d" x="79.167165" y="124.269822" style="stroke: #000000; stroke-width: 0.8"/>
      </g>
     </g>
     <g id="text_2">
      <!-- 0.05 -->
      <g transform="translate(71.292165 137.416541) scale(0.09 -0.09)">
       <defs>
        <path id="TeXGyreTermes-Regular-35" d="M 2803 4358 
L 2746 4403 
C 2650 4269 2586 4237 2451 4237 
L 1114 4237 
L 416 2720 
C 410 2707 410 2688 410 2688 
C 410 2656 435 2637 486 2637 
C 691 2637 947 2592 1210 2509 
C 1946 2272 2285 1875 2285 1242 
C 2285 627 1894 147 1395 147 
C 1267 147 1158 192 966 333 
C 762 480 614 544 480 544 
C 294 544 205 467 205 307 
C 205 64 506 -90 986 -90 
C 1523 -90 1984 83 2304 410 
C 2598 698 2733 1062 2733 1549 
C 2733 2010 2611 2304 2291 2624 
C 2010 2906 1645 3053 890 3187 
L 1158 3731 
L 2413 3731 
C 2515 3731 2541 3744 2560 3789 
L 2803 4358 
z
" transform="scale(0.015625)"/>
       </defs>
       <use xlink:href="#TeXGyreTermes-Regular-30"/>
       <use xlink:href="#TeXGyreTermes-Regular-2e" x="49.999985"/>
       <use xlink:href="#TeXGyreTermes-Regular-30" x="74.999969"/>
       <use xlink:href="#TeXGyreTermes-Regular-35" x="124.999954"/>
      </g>
     </g>
    </g>
    <g id="xtick_3">
     <g id="line2d_5">
      <path d="M 119.98828 124.269822 
L 119.98828 34.675939 
" clip-path="url(#p5951f9c894)" style="fill: none; stroke-dasharray: 0.45,0.7425; stroke-dashoffset: 0; stroke: #b0b0b0; stroke-opacity: 0.45; stroke-width: 0.45"/>
     </g>
     <g id="line2d_6">
      <g>
       <use xlink:href="#mafe5ff414d" x="119.98828" y="124.269822" style="stroke: #000000; stroke-width: 0.8"/>
      </g>
     </g>
     <g id="text_3">
      <!-- 0.10 -->
      <g transform="translate(112.11328 137.416541) scale(0.09 -0.09)">
       <defs>
        <path id="TeXGyreTermes-Regular-31" d="M 2522 0 
L 2522 96 
C 2016 102 1914 166 1914 474 
L 1914 4314 
L 1862 4326 
L 710 3744 
L 710 3654 
C 787 3686 858 3712 883 3725 
C 998 3770 1107 3795 1171 3795 
C 1306 3795 1363 3699 1363 3494 
L 1363 595 
C 1363 384 1312 237 1210 179 
C 1114 122 1024 102 755 96 
L 755 0 
L 2522 0 
z
" transform="scale(0.015625)"/>
       </defs>
       <use xlink:href="#TeXGyreTermes-Regular-30"/>
       <use xlink:href="#TeXGyreTermes-Regular-2e" x="49.999985"/>
       <use xlink:href="#TeXGyreTermes-Regular-31" x="74.999969"/>
       <use xlink:href="#TeXGyreTermes-Regular-30" x="124.999954"/>
      </g>
     </g>
    </g>
    <g id="text_4">
     <!-- Added exact bits / selected parameter -->
     <g transform="translate(12.769837 150.199509) scale(0.1 -0.1)">
      <defs>
       <path id="TeXGyreTermes-Regular-41" d="M 4518 0 
L 4518 122 
C 4230 141 4166 205 3942 678 
L 2349 4314 
L 2221 4314 
L 890 1171 
C 480 237 403 141 96 122 
L 96 0 
L 1363 0 
L 1363 122 
C 1056 122 928 205 928 384 
C 928 461 947 550 979 634 
L 1274 1382 
L 2950 1382 
L 3213 768 
C 3290 589 3334 429 3334 333 
C 3334 275 3296 205 3245 179 
C 3168 134 3117 122 2886 122 
L 2886 0 
L 4518 0 
z
M 2861 1645 
L 1382 1645 
L 2118 3405 
L 2861 1645 
z
" transform="scale(0.015625)"/>
       <path id="TeXGyreTermes-Regular-64" d="M 3142 269 
L 3142 371 
C 3027 365 3014 365 2995 365 
C 2765 365 2714 435 2714 730 
L 2714 4358 
L 2682 4371 
C 2374 4262 2150 4198 1741 4090 
L 1741 3987 
C 1792 3994 1830 3994 1882 3994 
C 2118 3994 2176 3930 2176 3667 
L 2176 2669 
C 1933 2874 1760 2944 1504 2944 
C 768 2944 173 2221 173 1312 
C 173 493 653 -64 1357 -64 
C 1715 -64 1958 64 2176 365 
L 2176 -45 
L 2202 -64 
L 3142 269 
z
M 2176 653 
C 2176 608 2131 531 2067 461 
C 1952 333 1792 269 1606 269 
C 1075 269 723 781 723 1568 
C 723 2291 1037 2765 1523 2765 
C 1862 2765 2176 2464 2176 2125 
L 2176 653 
z
" transform="scale(0.015625)"/>
       <path id="TeXGyreTermes-Regular-65" d="M 2714 1005 
L 2611 1050 
C 2304 563 2029 378 1619 378 
C 1267 378 998 544 813 890 
C 685 1139 634 1363 621 1773 
L 2592 1773 
C 2541 2189 2477 2374 2317 2579 
C 2125 2810 1830 2944 1498 2944 
C 704 2944 160 2304 160 1370 
C 160 486 621 -64 1357 -64 
C 1971 -64 2445 314 2714 1005 
z
M 1939 1978 
L 634 1978 
C 704 2483 922 2714 1312 2714 
C 1702 2714 1856 2534 1939 1978 
z
" transform="scale(0.015625)"/>
       <path id="TeXGyreTermes-Regular-20" transform="scale(0.015625)"/>
       <path id="TeXGyreTermes-Regular-78" d="M 3066 0 
L 3066 96 
C 2867 96 2739 198 2541 480 
L 1722 1734 
L 2253 2502 
C 2374 2675 2566 2778 2771 2784 
L 2771 2880 
L 1760 2880 
L 1760 2784 
C 1952 2771 2016 2733 2016 2643 
C 2016 2566 1939 2426 1779 2227 
C 1747 2189 1670 2074 1587 1946 
L 1498 2074 
C 1318 2342 1203 2560 1203 2643 
C 1203 2733 1286 2778 1478 2784 
L 1478 2880 
L 154 2880 
L 154 2784 
L 211 2784 
C 403 2784 506 2701 704 2400 
L 1306 1478 
L 576 422 
C 384 160 320 115 109 96 
L 109 0 
L 1037 0 
L 1037 96 
C 858 96 781 128 781 211 
C 781 250 826 346 909 474 
L 1414 1261 
L 1997 365 
C 2022 326 2035 288 2035 250 
C 2035 134 1990 109 1779 96 
L 1779 0 
L 3066 0 
z
" transform="scale(0.015625)"/>
       <path id="TeXGyreTermes-Regular-61" d="M 2829 256 
L 2829 422 
C 2720 333 2643 301 2547 301 
C 2400 301 2355 390 2355 672 
L 2355 1920 
C 2355 2246 2323 2426 2234 2573 
C 2099 2816 1824 2944 1434 2944 
C 1107 2944 800 2854 621 2707 
C 461 2573 358 2387 358 2227 
C 358 2080 480 1952 634 1952 
C 787 1952 922 2080 922 2221 
C 922 2246 915 2278 909 2323 
C 896 2381 890 2432 890 2477 
C 890 2650 1094 2790 1350 2790 
C 1664 2790 1837 2605 1837 2259 
L 1837 1869 
C 851 1472 742 1421 467 1178 
C 326 1050 237 832 237 621 
C 237 218 512 -64 909 -64 
C 1190 -64 1453 70 1843 403 
C 1875 64 1990 -64 2253 -64 
C 2470 -64 2605 13 2829 256 
z
M 1837 787 
C 1837 589 1805 531 1670 448 
C 1517 358 1338 307 1203 307 
C 979 307 800 525 800 800 
L 800 826 
C 800 1203 1062 1434 1837 1715 
L 1837 787 
z
" transform="scale(0.015625)"/>
       <path id="TeXGyreTermes-Regular-63" d="M 2637 941 
L 2547 998 
C 2240 550 2010 397 1645 397 
C 1056 397 653 909 653 1645 
C 653 2310 1005 2758 1523 2758 
C 1754 2758 1837 2688 1901 2451 
L 1939 2310 
C 1990 2125 2106 2016 2246 2016 
C 2413 2016 2547 2138 2547 2285 
C 2547 2643 2099 2944 1562 2944 
C 1261 2944 954 2829 698 2618 
C 352 2330 160 1888 160 1357 
C 160 531 666 -64 1376 -64 
C 1651 -64 1894 26 2112 205 
C 2304 358 2432 544 2637 941 
z
" transform="scale(0.015625)"/>
       <path id="TeXGyreTermes-Regular-74" d="M 1786 422 
L 1702 493 
C 1562 326 1459 269 1318 269 
C 1082 269 986 435 986 845 
L 986 2675 
L 1632 2675 
L 1632 2880 
L 986 2880 
L 986 3622 
C 986 3686 973 3706 941 3706 
C 902 3642 858 3584 813 3526 
C 576 3174 358 2938 192 2842 
C 122 2797 83 2758 83 2720 
C 83 2701 90 2688 109 2675 
L 448 2675 
L 448 749 
C 448 211 640 -64 1011 -64 
C 1331 -64 1574 90 1786 422 
z
" transform="scale(0.015625)"/>
       <path id="TeXGyreTermes-Regular-62" d="M 2995 1555 
C 2995 2342 2509 2944 1869 2944 
C 1478 2944 1107 2714 979 2400 
L 979 4358 
L 947 4371 
C 678 4275 506 4224 205 4141 
L 19 4090 
L 19 3987 
C 58 3994 83 3994 128 3994 
C 384 3994 442 3936 442 3667 
L 442 346 
C 442 147 986 -64 1498 -64 
C 2342 -64 2995 640 2995 1555 
z
M 2432 1261 
C 2432 550 2125 141 1600 141 
C 1267 141 979 288 979 448 
L 979 2061 
C 979 2310 1280 2541 1613 2541 
C 2112 2541 2432 2042 2432 1261 
z
" transform="scale(0.015625)"/>
       <path id="TeXGyreTermes-Regular-69" d="M 1619 0 
L 1619 96 
C 1197 128 1146 192 1146 653 
L 1146 2925 
L 1120 2944 
L 128 2592 
L 128 2496 
L 179 2502 
C 256 2515 339 2522 397 2522 
C 550 2522 608 2419 608 2138 
L 608 653 
C 608 192 544 122 102 96 
L 102 0 
L 1619 0 
z
M 1203 3776 
C 1203 3955 1062 4102 877 4102 
C 698 4102 550 3955 550 3776 
C 550 3590 698 3450 877 3450 
C 1062 3450 1203 3590 1203 3776 
z
" transform="scale(0.015625)"/>
       <path id="TeXGyreTermes-Regular-73" d="M 2227 755 
C 2227 1075 2080 1286 1690 1517 
L 998 1926 
C 819 2029 723 2189 723 2362 
C 723 2624 922 2797 1216 2797 
C 1581 2797 1773 2586 1920 2010 
L 2016 2010 
L 1990 2880 
L 1920 2880 
L 1907 2867 
C 1850 2822 1843 2816 1818 2816 
C 1779 2816 1715 2829 1645 2861 
C 1510 2912 1363 2938 1210 2938 
C 685 2938 326 2618 326 2150 
C 326 1792 531 1542 1075 1229 
L 1446 1018 
C 1670 890 1779 736 1779 538 
C 1779 256 1574 77 1248 77 
C 806 77 582 320 435 973 
L 333 973 
L 333 -26 
L 416 -26 
C 461 38 486 51 563 51 
C 634 51 704 38 858 0 
C 1037 -38 1197 -64 1331 -64 
C 1818 -64 2227 307 2227 755 
z
" transform="scale(0.015625)"/>
       <path id="TeXGyreTermes-Regular-2f" d="M 1837 4326 
L 1408 4326 
L -58 -90 
L 378 -90 
L 1837 4326 
z
" transform="scale(0.015625)"/>
       <path id="TeXGyreTermes-Regular-6c" d="M 1645 0 
L 1645 96 
C 1235 122 1165 186 1165 538 
L 1165 4358 
L 1139 4371 
C 806 4262 563 4198 122 4090 
L 122 3987 
L 160 3987 
C 230 3994 307 4000 358 4000 
C 563 4000 627 3910 627 3610 
L 627 557 
C 627 211 538 128 134 96 
L 134 0 
L 1645 0 
z
" transform="scale(0.015625)"/>
       <path id="TeXGyreTermes-Regular-70" d="M 3008 1581 
C 3008 2374 2560 2944 1939 2944 
C 1581 2944 1299 2784 1018 2438 
L 1018 2931 
L 979 2944 
C 634 2810 410 2726 58 2618 
L 58 2515 
C 115 2522 160 2522 218 2522 
C 435 2522 480 2458 480 2157 
L 480 -838 
C 480 -1171 410 -1242 32 -1280 
L 32 -1389 
L 1581 -1389 
L 1581 -1274 
C 1101 -1267 1018 -1197 1018 -794 
L 1018 211 
C 1242 0 1395 -64 1664 -64 
C 2419 -64 3008 653 3008 1581 
z
M 2458 1331 
C 2458 621 2144 141 1683 141 
C 1382 141 1018 371 1018 563 
L 1018 2138 
C 1018 2330 1376 2560 1670 2560 
C 2144 2560 2458 2074 2458 1331 
z
" transform="scale(0.015625)"/>
       <path id="TeXGyreTermes-Regular-72" d="M 2144 2605 
C 2144 2816 2010 2944 1792 2944 
C 1523 2944 1338 2797 1024 2342 
L 1024 2931 
L 992 2944 
C 653 2803 422 2720 45 2598 
L 45 2496 
C 134 2515 192 2522 269 2522 
C 429 2522 486 2419 486 2138 
L 486 538 
C 486 218 442 173 32 96 
L 32 0 
L 1568 0 
L 1568 96 
C 1133 115 1024 211 1024 576 
L 1024 2016 
C 1024 2221 1299 2541 1472 2541 
C 1510 2541 1568 2509 1638 2445 
C 1741 2355 1811 2317 1894 2317 
C 2048 2317 2144 2426 2144 2605 
z
" transform="scale(0.015625)"/>
       <path id="TeXGyreTermes-Regular-6d" d="M 4960 0 
L 4960 96 
L 4794 109 
C 4602 122 4518 237 4518 486 
L 4518 1805 
C 4518 2560 4269 2944 3776 2944 
C 3405 2944 3078 2778 2733 2406 
C 2618 2771 2400 2944 2054 2944 
C 1773 2944 1594 2854 1062 2451 
L 1062 2931 
L 1018 2944 
C 691 2822 474 2752 122 2656 
L 122 2547 
C 205 2566 256 2573 326 2573 
C 493 2573 550 2470 550 2163 
L 550 544 
C 550 198 461 102 102 96 
L 102 0 
L 1523 0 
L 1523 96 
C 1184 109 1088 179 1088 429 
L 1088 2234 
C 1088 2234 1139 2310 1184 2355 
C 1344 2502 1619 2611 1843 2611 
C 2125 2611 2266 2387 2266 1939 
L 2266 550 
C 2266 192 2195 122 1830 96 
L 1830 0 
L 3264 0 
L 3264 96 
C 2899 102 2803 211 2803 608 
L 2803 2221 
C 2995 2496 3206 2611 3501 2611 
C 3866 2611 3981 2438 3981 1907 
L 3981 557 
C 3981 192 3930 141 3558 96 
L 3558 0 
L 4960 0 
z
" transform="scale(0.015625)"/>
      </defs>
      <use xlink:href="#TeXGyreTermes-Regular-41"/>
      <use xlink:href="#TeXGyreTermes-Regular-64" x="72.199982"/>
      <use xlink:href="#TeXGyreTermes-Regular-64" x="122.199966"/>
      <use xlink:href="#TeXGyreTermes-Regular-65" x="172.199951"/>
      <use xlink:href="#TeXGyreTermes-Regular-64" x="216.599945"/>
      <use xlink:href="#TeXGyreTermes-Regular-20" x="266.59993"/>
      <use xlink:href="#TeXGyreTermes-Regular-65" x="291.599915"/>
      <use xlink:href="#TeXGyreTermes-Regular-78" x="335.999908"/>
      <use xlink:href="#TeXGyreTermes-Regular-61" x="385.999893"/>
      <use xlink:href="#TeXGyreTermes-Regular-63" x="430.399887"/>
      <use xlink:href="#TeXGyreTermes-Regular-74" x="474.799881"/>
      <use xlink:href="#TeXGyreTermes-Regular-20" x="502.599869"/>
      <use xlink:href="#TeXGyreTermes-Regular-62" x="527.599854"/>
      <use xlink:href="#TeXGyreTermes-Regular-69" x="577.599838"/>
      <use xlink:href="#TeXGyreTermes-Regular-74" x="605.399826"/>
      <use xlink:href="#TeXGyreTermes-Regular-73" x="633.199814"/>
      <use xlink:href="#TeXGyreTermes-Regular-20" x="672.099808"/>
      <use xlink:href="#TeXGyreTermes-Regular-2f" x="697.099792"/>
      <use xlink:href="#TeXGyreTermes-Regular-20" x="724.89978"/>
      <use xlink:href="#TeXGyreTermes-Regular-73" x="749.899765"/>
      <use xlink:href="#TeXGyreTermes-Regular-65" x="788.799759"/>
      <use xlink:href="#TeXGyreTermes-Regular-6c" x="833.199753"/>
      <use xlink:href="#TeXGyreTermes-Regular-65" x="860.999741"/>
      <use xlink:href="#TeXGyreTermes-Regular-63" x="905.399734"/>
      <use xlink:href="#TeXGyreTermes-Regular-74" x="949.799728"/>
      <use xlink:href="#TeXGyreTermes-Regular-65" x="977.599716"/>
      <use xlink:href="#TeXGyreTermes-Regular-64" x="1021.99971"/>
      <use xlink:href="#TeXGyreTermes-Regular-20" x="1071.999695"/>
      <use xlink:href="#TeXGyreTermes-Regular-70" x="1096.99968"/>
      <use xlink:href="#TeXGyreTermes-Regular-61" x="1146.999664"/>
      <use xlink:href="#TeXGyreTermes-Regular-72" x="1191.399658"/>
      <use xlink:href="#TeXGyreTermes-Regular-61" x="1224.699646"/>
      <use xlink:href="#TeXGyreTermes-Regular-6d" x="1269.09964"/>
      <use xlink:href="#TeXGyreTermes-Regular-65" x="1346.899628"/>
      <use xlink:href="#TeXGyreTermes-Regular-74" x="1391.299622"/>
      <use xlink:href="#TeXGyreTermes-Regular-65" x="1419.099609"/>
      <use xlink:href="#TeXGyreTermes-Regular-72" x="1463.499603"/>
     </g>
    </g>
   </g>
   <g id="matplotlib.axis_2">
    <g id="ytick_1">
     <g id="line2d_7">
      <path d="M 33.419375 117.061554 
L 141.806237 117.061554 
" clip-path="url(#p5951f9c894)" style="fill: none; stroke-dasharray: 0.45,0.7425; stroke-dashoffset: 0; stroke: #b0b0b0; stroke-opacity: 0.45; stroke-width: 0.45"/>
     </g>
     <g id="line2d_8">
      <defs>
       <path id="md5891e7be4" d="M 0 0 
L -3.5 0 
" style="stroke: #000000; stroke-width: 0.8"/>
      </defs>
      <g>
       <use xlink:href="#md5891e7be4" x="33.419375" y="117.061554" style="stroke: #000000; stroke-width: 0.8"/>
      </g>
     </g>
     <g id="text_5">
      <!-- 0.0 -->
      <g transform="translate(15.169375 120.134913) scale(0.09 -0.09)">
       <use xlink:href="#TeXGyreTermes-Regular-30"/>
       <use xlink:href="#TeXGyreTermes-Regular-2e" x="49.999985"/>
       <use xlink:href="#TeXGyreTermes-Regular-30" x="74.999969"/>
      </g>
     </g>
    </g>
    <g id="ytick_2">
     <g id="line2d_9">
      <path d="M 33.419375 75.289754 
L 141.806237 75.289754 
" clip-path="url(#p5951f9c894)" style="fill: none; stroke-dasharray: 0.45,0.7425; stroke-dashoffset: 0; stroke: #b0b0b0; stroke-opacity: 0.45; stroke-width: 0.45"/>
     </g>
     <g id="line2d_10">
      <g>
       <use xlink:href="#md5891e7be4" x="33.419375" y="75.289754" style="stroke: #000000; stroke-width: 0.8"/>
      </g>
     </g>
     <g id="text_6">
      <!-- 0.1 -->
      <g transform="translate(15.169375 78.363114) scale(0.09 -0.09)">
       <use xlink:href="#TeXGyreTermes-Regular-30"/>
       <use xlink:href="#TeXGyreTermes-Regular-2e" x="49.999985"/>
       <use xlink:href="#TeXGyreTermes-Regular-31" x="74.999969"/>
      </g>
     </g>
    </g>
    <g id="text_7">
     <!-- NLL recovery from Q (nats/token) -->
     <g transform="translate(8.989687 148.89788) rotate(-90) scale(0.1 -0.1)">
      <defs>
       <path id="TeXGyreTermes-Regular-4e" d="M 4525 4115 
L 4525 4237 
L 3021 4237 
L 3021 4115 
C 3264 4096 3354 4070 3450 4013 
C 3578 3923 3635 3693 3635 3296 
L 3635 1139 
L 1171 4237 
L 77 4237 
L 77 4115 
C 352 4115 442 4064 698 3763 
L 698 941 
C 698 282 608 160 77 122 
L 77 0 
L 1581 0 
L 1581 122 
C 1088 147 979 294 979 941 
L 979 3450 
L 3808 -70 
L 3917 -70 
L 3917 3296 
C 3917 3680 3981 3917 4102 4000 
C 4192 4064 4282 4090 4525 4115 
z
" transform="scale(0.015625)"/>
       <path id="TeXGyreTermes-Regular-4c" d="M 3827 1114 
L 3667 1114 
C 3565 890 3482 742 3392 640 
C 3168 371 2816 250 2266 250 
L 1837 250 
C 1370 250 1286 288 1286 512 
L 1286 3539 
C 1286 3994 1376 4083 1882 4115 
L 1882 4237 
L 77 4237 
L 77 4115 
C 550 4077 634 3994 634 3539 
L 634 698 
C 634 243 544 154 77 122 
L 77 0 
L 3520 0 
L 3827 1114 
z
" transform="scale(0.015625)"/>
       <path id="TeXGyreTermes-Regular-6f" d="M 3008 1498 
C 3008 2336 2419 2944 1600 2944 
C 768 2944 186 2330 186 1446 
C 186 582 781 -64 1587 -64 
C 2394 -64 3008 614 3008 1498 
z
M 2432 1274 
C 2432 550 2144 115 1664 115 
C 1414 115 1178 269 1043 525 
C 864 858 762 1306 762 1760 
C 762 2368 1062 2765 1517 2765 
C 2054 2765 2432 2150 2432 1274 
z
" transform="scale(0.015625)"/>
       <path id="TeXGyreTermes-Regular-76" d="M 3053 2784 
L 3053 2880 
L 2163 2880 
L 2163 2784 
C 2368 2765 2464 2701 2464 2579 
C 2464 2515 2451 2451 2426 2387 
L 1792 730 
L 1139 2368 
C 1101 2458 1082 2547 1082 2605 
C 1082 2720 1152 2765 1376 2784 
L 1376 2880 
L 122 2880 
L 122 2784 
C 365 2771 410 2707 704 2048 
L 1472 211 
C 1485 173 1504 128 1523 77 
C 1562 -38 1600 -90 1638 -90 
C 1677 -90 1722 -6 1818 230 
L 2637 2285 
C 2822 2720 2861 2765 3053 2784 
z
" transform="scale(0.015625)"/>
       <path id="TeXGyreTermes-Regular-79" d="M 3040 2784 
L 3040 2880 
L 2176 2880 
L 2176 2784 
C 2381 2784 2483 2726 2483 2624 
C 2483 2598 2477 2560 2458 2515 
L 1837 749 
L 1101 2368 
C 1062 2458 1037 2541 1037 2611 
C 1037 2726 1133 2771 1408 2784 
L 1408 2880 
L 90 2880 
L 90 2790 
C 256 2765 365 2694 416 2586 
L 1472 358 
C 1517 250 1542 173 1542 122 
C 1542 26 1395 -378 1286 -570 
C 1197 -736 1056 -858 966 -858 
C 928 -858 870 -845 806 -813 
C 685 -768 576 -742 467 -742 
C 320 -742 192 -870 192 -1024 
C 192 -1235 397 -1395 666 -1395 
C 1094 -1395 1402 -1037 1747 -115 
L 2733 2496 
C 2816 2701 2886 2765 3040 2784 
z
" transform="scale(0.015625)"/>
       <path id="TeXGyreTermes-Regular-66" d="M 2451 3974 
C 2451 4205 2170 4371 1786 4371 
C 1382 4371 1050 4198 883 3910 
C 717 3622 666 3392 659 2880 
L 134 2880 
L 134 2675 
L 659 2675 
L 659 666 
C 659 198 589 122 128 96 
L 128 0 
L 1792 0 
L 1792 96 
C 1267 115 1197 186 1197 666 
L 1197 2675 
L 1978 2675 
L 1978 2880 
L 1190 2880 
L 1190 3622 
C 1190 4000 1312 4192 1555 4192 
C 1696 4192 1779 4128 1894 3942 
C 1997 3770 2074 3712 2182 3712 
C 2336 3712 2451 3827 2451 3974 
z
" transform="scale(0.015625)"/>
       <path id="TeXGyreTermes-Regular-51" d="M 4486 -1133 
L 4486 -1018 
C 3757 -1018 3245 -717 2726 -45 
C 3162 38 3392 147 3686 403 
C 4160 826 4403 1408 4403 2118 
C 4403 3405 3533 4326 2310 4326 
C 1088 4326 218 3405 218 2106 
C 218 1478 410 954 787 544 
C 1037 275 1242 147 1696 -6 
L 1997 -358 
C 2432 -864 3206 -1139 4224 -1139 
C 4320 -1139 4378 -1139 4448 -1133 
L 4486 -1133 
z
M 3674 2131 
C 3674 1498 3488 845 3232 550 
C 2995 288 2662 141 2310 141 
C 2003 141 1722 250 1491 454 
C 1152 755 947 1395 947 2144 
C 947 2758 1133 3386 1395 3680 
C 1658 3962 1958 4096 2330 4096 
C 2605 4096 2899 3974 3123 3776 
C 3469 3469 3674 2854 3674 2131 
z
" transform="scale(0.015625)"/>
       <path id="TeXGyreTermes-Regular-28" d="M 1946 -1030 
C 1434 -627 1254 -403 1082 77 
C 928 506 858 992 858 1632 
C 858 2304 941 2829 1114 3226 
C 1293 3622 1485 3853 1946 4224 
L 1888 4326 
C 1414 4019 1222 3853 986 3558 
C 531 3002 307 2362 307 1613 
C 307 800 544 173 1107 -480 
C 1370 -787 1536 -928 1869 -1133 
L 1946 -1030 
z
" transform="scale(0.015625)"/>
       <path id="TeXGyreTermes-Regular-6e" d="M 3104 0 
L 3104 96 
C 2790 128 2714 205 2714 518 
L 2714 1984 
C 2714 2586 2432 2944 1958 2944 
C 1664 2944 1466 2835 1030 2426 
L 1030 2931 
L 986 2944 
C 672 2829 454 2758 102 2656 
L 102 2547 
C 141 2566 205 2573 275 2573 
C 454 2573 512 2477 512 2163 
L 512 576 
C 512 211 442 122 115 96 
L 115 0 
L 1472 0 
L 1472 96 
C 1146 122 1050 198 1050 429 
L 1050 2227 
C 1357 2515 1498 2592 1709 2592 
C 2022 2592 2176 2394 2176 1971 
L 2176 634 
C 2176 230 2093 122 1773 96 
L 1773 0 
L 3104 0 
z
" transform="scale(0.015625)"/>
       <path id="TeXGyreTermes-Regular-6b" d="M 3232 0 
L 3232 96 
C 2950 115 2752 237 2483 563 
L 1504 1805 
L 1690 1978 
C 2144 2400 2541 2694 2726 2746 
C 2822 2771 2912 2784 3021 2784 
L 3072 2784 
L 3072 2880 
L 1766 2880 
L 1766 2790 
C 2016 2784 2086 2758 2086 2669 
C 2086 2618 2029 2528 1939 2451 
L 1062 1670 
L 1062 4358 
L 1037 4371 
L 237 4141 
L 45 4090 
L 45 3987 
C 128 3994 186 4000 250 4000 
C 461 4000 525 3917 525 3610 
L 525 525 
C 525 192 506 173 45 96 
L 45 0 
L 1542 0 
L 1542 96 
L 1414 102 
C 1158 115 1062 205 1062 429 
L 1062 1606 
L 1958 410 
L 1978 384 
C 1990 365 2003 346 2022 326 
C 2074 262 2093 224 2093 192 
C 2093 134 2035 96 1958 96 
L 1837 96 
L 1837 0 
L 3232 0 
z
" transform="scale(0.015625)"/>
       <path id="TeXGyreTermes-Regular-29" d="M 1824 1581 
C 1824 2400 1587 3021 1024 3674 
C 762 3981 595 4122 262 4326 
L 186 4224 
C 698 3821 870 3597 1050 3117 
C 1203 2688 1274 2202 1274 1562 
C 1274 896 1190 365 1018 -26 
C 838 -429 646 -659 186 -1030 
L 243 -1133 
C 717 -826 909 -659 1146 -365 
C 1600 192 1824 832 1824 1581 
z
" transform="scale(0.015625)"/>
      </defs>
      <use xlink:href="#TeXGyreTermes-Regular-4e"/>
      <use xlink:href="#TeXGyreTermes-Regular-4c" x="72.199982"/>
      <use xlink:href="#TeXGyreTermes-Regular-4c" x="133.299973"/>
      <use xlink:href="#TeXGyreTermes-Regular-20" x="194.399963"/>
      <use xlink:href="#TeXGyreTermes-Regular-72" x="219.399948"/>
      <use xlink:href="#TeXGyreTermes-Regular-65" x="252.699936"/>
      <use xlink:href="#TeXGyreTermes-Regular-63" x="297.09993"/>
      <use xlink:href="#TeXGyreTermes-Regular-6f" x="341.499924"/>
      <use xlink:href="#TeXGyreTermes-Regular-76" x="391.499908"/>
      <use xlink:href="#TeXGyreTermes-Regular-65" x="441.499893"/>
      <use xlink:href="#TeXGyreTermes-Regular-72" x="485.899887"/>
      <use xlink:href="#TeXGyreTermes-Regular-79" x="519.199875"/>
      <use xlink:href="#TeXGyreTermes-Regular-20" x="569.19986"/>
      <use xlink:href="#TeXGyreTermes-Regular-66" x="594.199844"/>
      <use xlink:href="#TeXGyreTermes-Regular-72" x="627.499832"/>
      <use xlink:href="#TeXGyreTermes-Regular-6f" x="660.79982"/>
      <use xlink:href="#TeXGyreTermes-Regular-6d" x="710.799805"/>
      <use xlink:href="#TeXGyreTermes-Regular-20" x="788.599792"/>
      <use xlink:href="#TeXGyreTermes-Regular-51" x="813.599777"/>
      <use xlink:href="#TeXGyreTermes-Regular-20" x="885.799759"/>
      <use xlink:href="#TeXGyreTermes-Regular-28" x="910.799744"/>
      <use xlink:href="#TeXGyreTermes-Regular-6e" x="944.099731"/>
      <use xlink:href="#TeXGyreTermes-Regular-61" x="994.099716"/>
      <use xlink:href="#TeXGyreTermes-Regular-74" x="1038.49971"/>
      <use xlink:href="#TeXGyreTermes-Regular-73" x="1066.299698"/>
      <use xlink:href="#TeXGyreTermes-Regular-2f" x="1105.199692"/>
      <use xlink:href="#TeXGyreTermes-Regular-74" x="1132.99968"/>
      <use xlink:href="#TeXGyreTermes-Regular-6f" x="1160.799667"/>
      <use xlink:href="#TeXGyreTermes-Regular-6b" x="1210.799652"/>
      <use xlink:href="#TeXGyreTermes-Regular-65" x="1260.799637"/>
      <use xlink:href="#TeXGyreTermes-Regular-6e" x="1305.199631"/>
      <use xlink:href="#TeXGyreTermes-Regular-29" x="1355.199615"/>
     </g>
    </g>
   </g>
   <g id="line2d_11">
    <path d="M 33.419375 117.061554 
L 141.806237 117.061554 
" clip-path="url(#p5951f9c894)" style="fill: none; stroke: #555555; stroke-width: 0.7; stroke-linecap: square"/>
   </g>
   <g id="line2d_12">
    <path d="M 38.346051 124.269822 
L 38.346051 34.675939 
" clip-path="url(#p5951f9c894)" style="fill: none; stroke: #999999; stroke-width: 0.6; stroke-linecap: square"/>
   </g>
   <g id="patch_3">
    <path d="M 33.419375 124.269822 
L 33.419375 34.675939 
" style="fill: none; stroke: #000000; stroke-width: 0.8; stroke-linejoin: miter; stroke-linecap: square"/>
   </g>
   <g id="patch_4">
    <path d="M 33.419375 124.269822 
L 141.806237 124.269822 
" style="fill: none; stroke: #000000; stroke-width: 0.8; stroke-linejoin: miter; stroke-linecap: square"/>
   </g>
   <g id="text_8">
    <g id="patch_5">
     <path d="M 36.224849 47.447663 
L 102.328287 47.447663 
L 102.328287 36.729694 
L 36.224849 36.729694 
z
" style="fill: #ffffff; opacity: 0.78"/>
    </g>
    <!-- within-model only -->
    <g transform="translate(37.754849 44.064929) scale(0.085 -0.085)">
     <defs>
      <path id="TeXGyreTermes-Regular-77" d="M 4442 2784 
L 4442 2880 
L 3654 2880 
L 3654 2784 
C 3872 2739 3936 2694 3936 2586 
C 3936 2490 3898 2336 3827 2163 
L 3251 742 
L 2714 2176 
C 2605 2470 2605 2470 2605 2554 
C 2605 2694 2675 2739 2976 2784 
L 2976 2880 
L 1677 2880 
L 1677 2784 
C 1914 2758 1990 2688 2118 2342 
L 2246 1984 
L 1664 710 
L 1030 2381 
C 1005 2445 992 2509 992 2573 
C 992 2707 1069 2758 1286 2784 
L 1286 2880 
L 134 2880 
L 134 2784 
C 282 2771 333 2707 474 2381 
L 1338 192 
C 1414 0 1466 -90 1504 -90 
C 1536 -90 1587 -6 1664 160 
L 2381 1696 
L 2963 186 
C 3053 -51 3078 -90 3117 -90 
C 3162 -90 3194 -32 3296 224 
L 4179 2438 
C 4294 2707 4314 2739 4442 2784 
z
" transform="scale(0.015625)"/>
      <path id="TeXGyreTermes-Regular-68" d="M 3117 0 
L 3117 96 
C 2771 160 2733 211 2733 653 
L 2733 1926 
C 2733 2598 2464 2944 1946 2944 
C 1568 2944 1299 2790 1005 2406 
L 1005 4352 
L 973 4371 
C 755 4294 595 4243 237 4141 
L 64 4090 
L 64 3987 
C 90 3994 109 3994 141 3994 
C 416 3994 467 3942 467 3667 
L 467 653 
C 467 205 429 147 58 96 
L 58 0 
L 1440 0 
L 1440 96 
C 1069 134 1005 211 1005 653 
L 1005 2195 
C 1274 2490 1466 2598 1715 2598 
C 2035 2598 2195 2368 2195 1920 
L 2195 653 
C 2195 218 2131 134 1760 96 
L 1760 0 
L 3117 0 
z
" transform="scale(0.015625)"/>
      <path id="TeXGyreTermes-Regular-2d" d="M 1824 1242 
L 1824 1645 
L 250 1645 
L 250 1242 
L 1824 1242 
z
" transform="scale(0.015625)"/>
     </defs>
     <use xlink:href="#TeXGyreTermes-Regular-77"/>
     <use xlink:href="#TeXGyreTermes-Regular-69" x="72.199982"/>
     <use xlink:href="#TeXGyreTermes-Regular-74" x="99.999969"/>
     <use xlink:href="#TeXGyreTermes-Regular-68" x="127.799957"/>
     <use xlink:href="#TeXGyreTermes-Regular-69" x="177.799942"/>
     <use xlink:href="#TeXGyreTermes-Regular-6e" x="205.59993"/>
     <use xlink:href="#TeXGyreTermes-Regular-2d" x="255.599915"/>
     <use xlink:href="#TeXGyreTermes-Regular-6d" x="288.899902"/>
     <use xlink:href="#TeXGyreTermes-Regular-6f" x="366.69989"/>
     <use xlink:href="#TeXGyreTermes-Regular-64" x="416.699875"/>
     <use xlink:href="#TeXGyreTermes-Regular-65" x="466.69986"/>
     <use xlink:href="#TeXGyreTermes-Regular-6c" x="511.099854"/>
     <use xlink:href="#TeXGyreTermes-Regular-20" x="538.899841"/>
     <use xlink:href="#TeXGyreTermes-Regular-6f" x="563.899826"/>
     <use xlink:href="#TeXGyreTermes-Regular-6e" x="613.899811"/>
     <use xlink:href="#TeXGyreTermes-Regular-6c" x="663.899796"/>
     <use xlink:href="#TeXGyreTermes-Regular-79" x="691.699783"/>
    </g>
   </g>
   <g id="text_9">
    <!-- (a) -->
    <g transform="translate(13.90974 31.988122) scale(0.1 -0.1)">
     <defs>
      <path id="TeXGyreTermes-Bold-28" d="M 1958 -1075 
L 1958 -896 
C 1594 -666 1434 -499 1299 -211 
C 1107 186 1018 774 1018 1651 
C 1018 2534 1107 3181 1286 3565 
C 1421 3846 1574 4013 1958 4269 
L 1958 4442 
C 1562 4230 1382 4096 1133 3834 
C 589 3245 294 2483 294 1658 
C 294 1075 454 506 762 19 
C 1056 -442 1331 -698 1958 -1075 
z
" transform="scale(0.015625)"/>
      <path id="TeXGyreTermes-Bold-61" d="M 3123 275 
L 3027 410 
L 2963 346 
C 2944 326 2925 320 2893 320 
C 2803 320 2758 371 2758 480 
L 2758 2150 
C 2758 2694 2272 3027 1491 3027 
C 768 3027 282 2701 282 2221 
C 282 1952 435 1798 698 1798 
C 954 1798 1133 1952 1133 2170 
C 1133 2259 1101 2342 1018 2445 
C 960 2509 941 2547 941 2586 
C 941 2720 1114 2822 1344 2822 
C 1722 2822 1882 2650 1882 2259 
L 1882 1792 
C 1133 1562 832 1446 589 1286 
C 301 1094 160 870 160 589 
C 160 198 454 -90 864 -90 
C 1235 -90 1530 38 1882 358 
C 1952 32 2093 -90 2406 -90 
C 2682 -90 2880 13 3123 275 
z
M 1875 640 
C 1702 442 1574 365 1421 365 
C 1229 365 1094 538 1094 794 
C 1094 1165 1363 1427 1875 1568 
L 1875 640 
z
" transform="scale(0.015625)"/>
      <path id="TeXGyreTermes-Bold-29" d="M 1837 1702 
C 1837 2291 1677 2861 1370 3347 
C 1075 3808 800 4064 173 4442 
L 173 4262 
C 538 4026 698 3866 832 3578 
C 1024 3181 1114 2586 1114 1715 
C 1114 832 1024 186 845 -198 
C 717 -480 557 -646 173 -902 
L 173 -1075 
C 570 -864 749 -730 992 -467 
C 1542 122 1837 883 1837 1702 
z
" transform="scale(0.015625)"/>
     </defs>
     <use xlink:href="#TeXGyreTermes-Bold-28"/>
     <use xlink:href="#TeXGyreTermes-Bold-61" x="33.299988"/>
     <use xlink:href="#TeXGyreTermes-Bold-29" x="83.299973"/>
    </g>
   </g>
   <g id="PathCollection_1">
    <defs>
     <path id="m89ec05967a" d="M 0 2.738613 
C 0.726289 2.738613 1.422928 2.450055 1.936492 1.936492 
C 2.450055 1.422928 2.738613 0.726289 2.738613 0 
C 2.738613 -0.726289 2.450055 -1.422928 1.936492 -1.936492 
C 1.422928 -2.450055 0.726289 -2.738613 0 -2.738613 
C -0.726289 -2.738613 -1.422928 -2.450055 -1.936492 -1.936492 
C -2.450055 -1.422928 -2.738613 -0.726289 -2.738613 0 
C -2.738613 0.726289 -2.450055 1.422928 -1.936492 1.936492 
C -1.422928 2.450055 -0.726289 2.738613 0 2.738613 
z
" style="stroke: #0072b2; stroke-width: 1.05"/>
    </defs>
    <g clip-path="url(#p5951f9c894)">
     <use xlink:href="#m89ec05967a" x="38.346051" y="115.350069" style="fill: #0072b2; stroke: #0072b2; stroke-width: 1.05"/>
    </g>
   </g>
   <g id="PathCollection_2">
    <defs>
     <path id="m058189a473" d="M -2.738613 2.738613 
L 2.738613 2.738613 
L 2.738613 -2.738613 
L -2.738613 -2.738613 
z
" style="stroke: #0072b2; stroke-width: 1.05"/>
    </defs>
    <g clip-path="url(#p5951f9c894)">
     <use xlink:href="#m058189a473" x="124.45309" y="74.615564" style="fill: #0072b2; stroke: #0072b2; stroke-width: 1.05"/>
    </g>
   </g>
   <g id="PathCollection_3">
    <defs>
     <path id="mfecdedd1c6" d="M 0 -2.738613 
L -2.738613 2.738613 
L 2.738613 2.738613 
z
" style="stroke: #0072b2; stroke-width: 1.05"/>
    </defs>
    <g clip-path="url(#p5951f9c894)">
     <use xlink:href="#mfecdedd1c6" x="134.951745" y="62.512863" style="fill: #0072b2; stroke: #0072b2; stroke-width: 1.05"/>
    </g>
   </g>
   <g id="PathCollection_4">
    <defs>
     <path id="mce2d67ed01" d="M -0 2.738613 
L 2.738613 -2.738613 
L -2.738613 -2.738613 
z
" style="stroke: #0072b2; stroke-width: 1.05"/>
    </defs>
    <g clip-path="url(#p5951f9c894)">
     <use xlink:href="#mce2d67ed01" x="134.951745" y="51.721511" style="fill: #0072b2; stroke: #0072b2; stroke-width: 1.05"/>
    </g>
   </g>
   <g id="PathCollection_5">
    <defs>
     <path id="m51fb67fe60" d="M 0 -3.674235 
L -0.824917 -1.135401 
L -3.494405 -1.135401 
L -1.334744 0.433685 
L -2.159661 2.972518 
L -0 1.403433 
L 2.159661 2.972518 
L 1.334744 0.433685 
L 3.494405 -1.135401 
L 0.824917 -1.135401 
z
" style="stroke: #0072b2; stroke-width: 1.05"/>
    </defs>
    <g clip-path="url(#p5951f9c894)">
     <use xlink:href="#m51fb67fe60" x="122.725634" y="38.748388" style="fill: #0072b2; stroke: #0072b2; stroke-width: 1.05"/>
    </g>
   </g>
   <g id="PathCollection_6">
    <path d="M 122.725634 44.884058 
L 126.598617 41.011075 
L 122.725634 37.138091 
L 118.85265 41.011075 
L 122.725634 44.884058 
z
" clip-path="url(#p5951f9c894)" style="fill: none; stroke: #0072b2; stroke-width: 1.05"/>
   </g>
   <g id="PathCollection_7">
    <defs>
     <path id="m731f69b139" d="M 0 2.738613 
C 0.726289 2.738613 1.422928 2.450055 1.936492 1.936492 
C 2.450055 1.422928 2.738613 0.726289 2.738613 0 
C 2.738613 -0.726289 2.450055 -1.422928 1.936492 -1.936492 
C 1.422928 -2.450055 0.726289 -2.738613 0 -2.738613 
C -0.726289 -2.738613 -1.422928 -2.450055 -1.936492 -1.936492 
C -2.450055 -1.422928 -2.738613 -0.726289 -2.738613 0 
C -2.738613 0.726289 -2.450055 1.422928 -1.936492 1.936492 
C -1.422928 2.450055 -0.726289 2.738613 0 2.738613 
z
" style="stroke: #009e73; stroke-width: 1.05"/>
    </defs>
    <g clip-path="url(#p5951f9c894)">
     <use xlink:href="#m731f69b139" x="38.346051" y="111.578519" style="fill: #009e73; stroke: #009e73; stroke-width: 1.05"/>
    </g>
   </g>
   <g id="PathCollection_8">
    <defs>
     <path id="m35371ead48" d="M -2.738613 2.738613 
L 2.738613 2.738613 
L 2.738613 -2.738613 
L -2.738613 -2.738613 
z
" style="stroke: #009e73; stroke-width: 1.05"/>
    </defs>
    <g clip-path="url(#p5951f9c894)">
     <use xlink:href="#m35371ead48" x="124.683417" y="88.228371" style="fill: #009e73; stroke: #009e73; stroke-width: 1.05"/>
    </g>
   </g>
   <g id="PathCollection_9">
    <defs>
     <path id="me2e3e4fa5e" d="M 0 -2.738613 
L -2.738613 2.738613 
L 2.738613 2.738613 
z
" style="stroke: #009e73; stroke-width: 1.05"/>
    </defs>
    <g clip-path="url(#p5951f9c894)">
     <use xlink:href="#me2e3e4fa5e" x="135.311701" y="108.097721" style="fill: #009e73; stroke: #009e73; stroke-width: 1.05"/>
    </g>
   </g>
   <g id="PathCollection_10">
    <defs>
     <path id="mc786d95b36" d="M -0 2.738613 
L 2.738613 -2.738613 
L -2.738613 -2.738613 
z
" style="stroke: #009e73; stroke-width: 1.05"/>
    </defs>
    <g clip-path="url(#p5951f9c894)">
     <use xlink:href="#mc786d95b36" x="135.311701" y="104.696006" style="fill: #009e73; stroke: #009e73; stroke-width: 1.05"/>
    </g>
   </g>
   <g id="PathCollection_11">
    <defs>
     <path id="m1cd6e3beb5" d="M 0 -3.674235 
L -0.824917 -1.135401 
L -3.494405 -1.135401 
L -1.334744 0.433685 
L -2.159661 2.972518 
L -0 1.403433 
L 2.159661 2.972518 
L 1.334744 0.433685 
L 3.494405 -1.135401 
L 0.824917 -1.135401 
z
" style="stroke: #009e73; stroke-width: 1.05"/>
    </defs>
    <g clip-path="url(#p5951f9c894)">
     <use xlink:href="#m1cd6e3beb5" x="125.321247" y="93.674592" style="fill: #009e73; stroke: #009e73; stroke-width: 1.05"/>
    </g>
   </g>
   <g id="PathCollection_12">
    <path d="M 125.321247 97.936281 
L 129.194231 94.063298 
L 125.321247 90.190315 
L 121.448264 94.063298 
L 125.321247 97.936281 
z
" clip-path="url(#p5951f9c894)" style="fill: none; stroke: #009e73; stroke-width: 1.05"/>
   </g>
   <g id="PathCollection_13">
    <defs>
     <path id="m90c746f9b8" d="M 0 2.738613 
C 0.726289 2.738613 1.422928 2.450055 1.936492 1.936492 
C 2.450055 1.422928 2.738613 0.726289 2.738613 0 
C 2.738613 -0.726289 2.450055 -1.422928 1.936492 -1.936492 
C 1.422928 -2.450055 0.726289 -2.738613 0 -2.738613 
C -0.726289 -2.738613 -1.422928 -2.450055 -1.936492 -1.936492 
C -2.450055 -1.422928 -2.738613 -0.726289 -2.738613 0 
C -2.738613 0.726289 -2.450055 1.422928 -1.936492 1.936492 
C -1.422928 2.450055 -0.726289 2.738613 0 2.738613 
z
" style="stroke: #d55e00; stroke-width: 1.05"/>
    </defs>
    <g clip-path="url(#p5951f9c894)">
     <use xlink:href="#m90c746f9b8" x="38.346051" y="120.197373" style="fill: #d55e00; stroke: #d55e00; stroke-width: 1.05"/>
    </g>
   </g>
   <g id="PathCollection_14">
    <defs>
     <path id="mec0560cc1c" d="M -2.738613 2.738613 
L 2.738613 2.738613 
L 2.738613 -2.738613 
L -2.738613 -2.738613 
z
" style="stroke: #d55e00; stroke-width: 1.05"/>
    </defs>
    <g clip-path="url(#p5951f9c894)">
     <use xlink:href="#mec0560cc1c" x="131.907727" y="103.093793" style="fill: #d55e00; stroke: #d55e00; stroke-width: 1.05"/>
    </g>
   </g>
   <g id="PathCollection_15">
    <defs>
     <path id="mdeaf487977" d="M 0 -2.738613 
L -2.738613 2.738613 
L 2.738613 2.738613 
z
" style="stroke: #d55e00; stroke-width: 1.05"/>
    </defs>
    <g clip-path="url(#p5951f9c894)">
     <use xlink:href="#mdeaf487977" x="136.879561" y="87.51535" style="fill: #d55e00; stroke: #d55e00; stroke-width: 1.05"/>
    </g>
   </g>
   <g id="PathCollection_16">
    <defs>
     <path id="m4c4ff0cb33" d="M -0 2.738613 
L 2.738613 -2.738613 
L -2.738613 -2.738613 
z
" style="stroke: #d55e00; stroke-width: 1.05"/>
    </defs>
    <g clip-path="url(#p5951f9c894)">
     <use xlink:href="#m4c4ff0cb33" x="136.879561" y="80.828294" style="fill: #d55e00; stroke: #d55e00; stroke-width: 1.05"/>
    </g>
   </g>
   <g id="PathCollection_17">
    <defs>
     <path id="m0f370ebf77" d="M 0 -3.674235 
L -0.824917 -1.135401 
L -3.494405 -1.135401 
L -1.334744 0.433685 
L -2.159661 2.972518 
L -0 1.403433 
L 2.159661 2.972518 
L 1.334744 0.433685 
L 3.494405 -1.135401 
L 0.824917 -1.135401 
z
" style="stroke: #d55e00; stroke-width: 1.05"/>
    </defs>
    <g clip-path="url(#p5951f9c894)">
     <use xlink:href="#m0f370ebf77" x="124.865022" y="79.431249" style="fill: #d55e00; stroke: #d55e00; stroke-width: 1.05"/>
    </g>
   </g>
   <g id="PathCollection_18">
    <path d="M 124.865022 86.33403 
L 128.738005 82.461046 
L 124.865022 78.588063 
L 120.992038 82.461046 
L 124.865022 86.33403 
z
" clip-path="url(#p5951f9c894)" style="fill: none; stroke: #d55e00; stroke-width: 1.05"/>
   </g>
   <g id="legend_1">
    <g id="line2d_13">
     <defs>
      <path id="mc43ef001fe" d="M 0 3 
C 0.795609 3 1.55874 2.683901 2.12132 2.12132 
C 2.683901 1.55874 3 0.795609 3 0 
C 3 -0.795609 2.683901 -1.55874 2.12132 -2.12132 
C 1.55874 -2.683901 0.795609 -3 0 -3 
C -0.795609 -3 -1.55874 -2.683901 -2.12132 -2.12132 
C -2.683901 -1.55874 -3 -0.795609 -3 0 
C -3 0.795609 -2.683901 1.55874 -2.12132 2.12132 
C -1.55874 2.683901 -0.795609 3 0 3 
z
" style="stroke: #0072b2"/>
     </defs>
     <g>
      <use xlink:href="#mc43ef001fe" x="47.401638" y="21.302266" style="fill: #0072b2; stroke: #0072b2"/>
     </g>
    </g>
    <g id="text_10">
     <!-- Pythia-70M -->
     <g transform="translate(57.601638 24.277266) scale(0.085 -0.085)">
      <defs>
       <path id="TeXGyreTermes-Regular-50" d="M 3469 3078 
C 3469 3347 3379 3590 3206 3776 
C 2950 4058 2394 4237 1792 4237 
L 102 4237 
L 102 4115 
C 576 4064 640 4000 640 3539 
L 640 768 
C 640 230 589 166 102 122 
L 102 0 
L 1894 0 
L 1894 122 
C 1389 141 1293 230 1293 698 
L 1293 1862 
C 1459 1850 1568 1843 1734 1843 
C 2234 1843 2579 1907 2854 2061 
C 3238 2266 3469 2656 3469 3078 
z
M 2771 3040 
C 2771 2419 2394 2099 1658 2099 
C 1530 2099 1440 2106 1293 2118 
L 1293 3782 
C 1293 3955 1338 4000 1510 4000 
C 2374 4000 2771 3699 2771 3040 
z
" transform="scale(0.015625)"/>
       <path id="TeXGyreTermes-Regular-37" d="M 2874 4134 
L 2874 4237 
L 506 4237 
L 128 3296 
L 237 3245 
C 512 3680 627 3763 979 3763 
L 2368 3763 
L 1101 -51 
L 1517 -51 
L 2874 4134 
z
" transform="scale(0.015625)"/>
       <path id="TeXGyreTermes-Regular-4d" d="M 5523 0 
L 5523 122 
C 5056 154 4966 243 4966 698 
L 4966 3539 
C 4966 3994 5050 4077 5523 4115 
L 5523 4237 
L 4250 4237 
L 2835 1005 
L 1357 4237 
L 90 4237 
L 90 4115 
C 614 4083 698 4006 698 3539 
L 698 941 
C 698 282 608 160 77 122 
L 77 0 
L 1581 0 
L 1581 122 
C 1088 147 979 294 979 941 
L 979 3520 
L 2586 0 
L 2675 0 
L 4314 3667 
L 4314 768 
C 4314 237 4237 154 3731 122 
L 3731 0 
L 5523 0 
z
" transform="scale(0.015625)"/>
      </defs>
      <use xlink:href="#TeXGyreTermes-Regular-50"/>
      <use xlink:href="#TeXGyreTermes-Regular-79" x="55.599991"/>
      <use xlink:href="#TeXGyreTermes-Regular-74" x="105.599976"/>
      <use xlink:href="#TeXGyreTermes-Regular-68" x="133.399963"/>
      <use xlink:href="#TeXGyreTermes-Regular-69" x="183.399948"/>
      <use xlink:href="#TeXGyreTermes-Regular-61" x="211.199936"/>
      <use xlink:href="#TeXGyreTermes-Regular-2d" x="255.59993"/>
      <use xlink:href="#TeXGyreTermes-Regular-37" x="288.899918"/>
      <use xlink:href="#TeXGyreTermes-Regular-30" x="338.899902"/>
      <use xlink:href="#TeXGyreTermes-Regular-4d" x="388.899887"/>
     </g>
    </g>
    <g id="line2d_14">
     <defs>
      <path id="md881d3e7f7" d="M 0 3 
C 0.795609 3 1.55874 2.683901 2.12132 2.12132 
C 2.683901 1.55874 3 0.795609 3 0 
C 3 -0.795609 2.683901 -1.55874 2.12132 -2.12132 
C 1.55874 -2.683901 0.795609 -3 0 -3 
C -0.795609 -3 -1.55874 -2.683901 -2.12132 -2.12132 
C -2.683901 -1.55874 -3 -0.795609 -3 0 
C -3 0.795609 -2.683901 1.55874 -2.12132 2.12132 
C -1.55874 2.683901 -0.795609 3 0 3 
z
" style="stroke: #009e73"/>
     </defs>
     <g>
      <use xlink:href="#md881d3e7f7" x="110.539372" y="21.302266" style="fill: #009e73; stroke: #009e73"/>
     </g>
    </g>
    <g id="text_11">
     <!-- OPT-125M -->
     <g transform="translate(120.739372 24.277266) scale(0.085 -0.085)">
      <defs>
       <path id="TeXGyreTermes-Regular-4f" d="M 4403 2093 
C 4403 2726 4218 3270 3866 3654 
C 3462 4096 2925 4326 2310 4326 
C 1088 4326 218 3405 218 2118 
C 218 1517 422 934 768 563 
C 1139 160 1709 -90 2272 -90 
C 3533 -90 4403 806 4403 2093 
z
M 3674 2099 
C 3674 1722 3590 1280 3462 947 
C 3405 787 3296 627 3149 480 
C 2925 256 2637 141 2298 141 
C 2003 141 1715 256 1491 454 
C 1158 749 947 1395 947 2106 
C 947 2758 1126 3379 1395 3680 
C 1645 3955 1958 4096 2310 4096 
C 2605 4096 2899 3981 3130 3776 
C 3475 3462 3674 2861 3674 2099 
z
" transform="scale(0.015625)"/>
       <path id="TeXGyreTermes-Regular-54" d="M 3795 3149 
L 3757 4237 
L 147 4237 
L 109 3149 
L 262 3149 
C 416 3853 563 3968 1280 3968 
L 1626 3968 
L 1626 768 
C 1626 224 1555 154 1024 122 
L 1024 0 
L 2893 0 
L 2893 122 
C 2368 147 2278 230 2278 698 
L 2278 3968 
L 2624 3968 
C 3354 3968 3494 3853 3642 3149 
L 3795 3149 
z
" transform="scale(0.015625)"/>
       <path id="TeXGyreTermes-Regular-32" d="M 3040 877 
L 2957 909 
C 2720 544 2637 486 2349 486 
L 819 486 
L 1894 1613 
C 2464 2208 2714 2694 2714 3194 
C 2714 3834 2195 4326 1530 4326 
C 1178 4326 845 4186 608 3930 
C 403 3712 307 3507 198 3053 
L 333 3021 
C 589 3648 819 3853 1261 3853 
C 1798 3853 2163 3488 2163 2950 
C 2163 2451 1869 1856 1331 1286 
L 192 77 
L 192 0 
L 2688 0 
L 3040 877 
z
" transform="scale(0.015625)"/>
      </defs>
      <use xlink:href="#TeXGyreTermes-Regular-4f"/>
      <use xlink:href="#TeXGyreTermes-Regular-50" x="72.199982"/>
      <use xlink:href="#TeXGyreTermes-Regular-54" x="127.799973"/>
      <use xlink:href="#TeXGyreTermes-Regular-2d" x="188.899963"/>
      <use xlink:href="#TeXGyreTermes-Regular-31" x="222.199951"/>
      <use xlink:href="#TeXGyreTermes-Regular-32" x="272.199936"/>
      <use xlink:href="#TeXGyreTermes-Regular-35" x="322.199921"/>
      <use xlink:href="#TeXGyreTermes-Regular-4d" x="372.199905"/>
     </g>
    </g>
    <g id="line2d_15">
     <defs>
      <path id="md57eb8507f" d="M 0 3 
C 0.795609 3 1.55874 2.683901 2.12132 2.12132 
C 2.683901 1.55874 3 0.795609 3 0 
C 3 -0.795609 2.683901 -1.55874 2.12132 -2.12132 
C 1.55874 -2.683901 0.795609 -3 0 -3 
C -0.795609 -3 -1.55874 -2.683901 -2.12132 -2.12132 
C -2.683901 -1.55874 -3 -0.795609 -3 0 
C -3 0.795609 -2.683901 1.55874 -2.12132 2.12132 
C -1.55874 2.683901 -0.795609 3 0 3 
z
" style="stroke: #d55e00"/>
     </defs>
     <g>
      <use xlink:href="#md57eb8507f" x="172.257341" y="21.302266" style="fill: #d55e00; stroke: #d55e00"/>
     </g>
    </g>
    <g id="text_12">
     <!-- Qwen3-0.6B -->
     <g transform="translate(182.457341 24.277266) scale(0.085 -0.085)">
      <defs>
       <path id="TeXGyreTermes-Regular-33" d="M 2765 1402 
C 2765 1728 2662 2029 2477 2227 
C 2349 2368 2227 2445 1946 2566 
C 2387 2867 2547 3104 2547 3450 
C 2547 3968 2138 4326 1549 4326 
C 1229 4326 947 4218 717 4013 
C 525 3840 429 3674 288 3290 
L 384 3264 
C 646 3731 934 3942 1338 3942 
C 1754 3942 2042 3661 2042 3258 
C 2042 3027 1946 2797 1786 2637 
C 1594 2445 1414 2349 979 2195 
L 979 2112 
C 1357 2112 1504 2099 1658 2042 
C 2054 1901 2304 1536 2304 1094 
C 2304 557 1939 141 1466 141 
C 1293 141 1165 186 928 339 
C 736 454 627 499 518 499 
C 371 499 275 410 275 275 
C 275 51 550 -90 998 -90 
C 1491 -90 1997 77 2298 339 
C 2598 602 2765 973 2765 1402 
z
" transform="scale(0.015625)"/>
       <path id="TeXGyreTermes-Regular-36" d="M 2995 1402 
C 2995 2221 2528 2739 1792 2739 
C 1510 2739 1376 2694 973 2451 
C 1146 3418 1862 4109 2867 4275 
L 2854 4378 
C 2125 4314 1754 4192 1286 3866 
C 595 3373 218 2643 218 1786 
C 218 1229 390 666 666 346 
C 909 64 1254 -90 1651 -90 
C 2445 -90 2995 518 2995 1402 
z
M 2419 1184 
C 2419 480 2170 90 1722 90 
C 1158 90 813 691 813 1683 
C 813 2010 864 2189 992 2285 
C 1126 2387 1325 2445 1549 2445 
C 2099 2445 2419 1984 2419 1184 
z
" transform="scale(0.015625)"/>
       <path id="TeXGyreTermes-Regular-42" d="M 3795 1152 
C 3795 1434 3680 1690 3482 1875 
C 3290 2048 3117 2125 2701 2227 
C 3034 2310 3168 2374 3322 2509 
C 3482 2650 3578 2886 3578 3149 
C 3578 3866 3008 4237 1901 4237 
L 109 4237 
L 109 4115 
C 646 4083 723 4013 723 3539 
L 723 698 
C 723 224 640 141 109 122 
L 109 0 
L 2246 0 
C 2746 0 3200 134 3437 352 
C 3667 557 3795 845 3795 1152 
z
M 3059 1146 
C 3059 800 2925 550 2669 403 
C 2464 288 2202 237 1779 237 
C 1466 237 1376 294 1376 499 
L 1376 2086 
C 1997 2086 2291 2054 2522 1958 
C 2886 1805 3059 1549 3059 1146 
z
M 2925 3123 
C 2925 2624 2586 2342 1984 2342 
L 1376 2342 
L 1376 3808 
C 1376 3942 1421 4000 1517 4000 
L 1798 4000 
C 2534 4000 2925 3693 2925 3123 
z
" transform="scale(0.015625)"/>
      </defs>
      <use xlink:href="#TeXGyreTermes-Regular-51"/>
      <use xlink:href="#TeXGyreTermes-Regular-77" x="72.199982"/>
      <use xlink:href="#TeXGyreTermes-Regular-65" x="144.399963"/>
      <use xlink:href="#TeXGyreTermes-Regular-6e" x="188.799957"/>
      <use xlink:href="#TeXGyreTermes-Regular-33" x="238.799942"/>
      <use xlink:href="#TeXGyreTermes-Regular-2d" x="288.799927"/>
      <use xlink:href="#TeXGyreTermes-Regular-30" x="322.099915"/>
      <use xlink:href="#TeXGyreTermes-Regular-2e" x="372.099899"/>
      <use xlink:href="#TeXGyreTermes-Regular-36" x="397.099884"/>
      <use xlink:href="#TeXGyreTermes-Regular-42" x="447.099869"/>
     </g>
    </g>
   </g>
   <g id="legend_2">
    <g id="line2d_16">
     <defs>
      <path id="m56a8f0f34c" d="M 0 3 
C 0.795609 3 1.55874 2.683901 2.12132 2.12132 
C 2.683901 1.55874 3 0.795609 3 0 
C 3 -0.795609 2.683901 -1.55874 2.12132 -2.12132 
C 1.55874 -2.683901 0.795609 -3 0 -3 
C -0.795609 -3 -1.55874 -2.683901 -2.12132 -2.12132 
C -2.683901 -1.55874 -3 -0.795609 -3 0 
C -3 0.795609 -2.683901 1.55874 -2.12132 2.12132 
C -1.55874 2.683901 -0.795609 3 0 3 
z
" style="stroke: #333333"/>
     </defs>
     <g>
      <use xlink:href="#m56a8f0f34c" x="25.616595" y="159.981109" style="fill: #333333; stroke: #333333"/>
     </g>
    </g>
    <g id="text_13">
     <!-- global scale -->
     <g transform="translate(35.816595 162.956109) scale(0.085 -0.085)">
      <defs>
       <path id="TeXGyreTermes-Regular-67" d="M 3008 2483 
L 3008 2733 
L 2515 2733 
C 2387 2733 2291 2752 2163 2797 
L 2022 2848 
C 1850 2912 1677 2944 1510 2944 
C 915 2944 442 2483 442 1901 
C 442 1498 614 1254 1037 1043 
L 762 787 
C 550 602 467 474 467 346 
C 467 211 544 134 806 6 
C 352 -326 179 -538 179 -774 
C 179 -1114 678 -1395 1286 -1395 
C 1766 -1395 2266 -1229 2598 -960 
C 2842 -762 2950 -557 2950 -314 
C 2950 83 2650 352 2176 371 
L 1350 410 
C 1011 422 851 480 851 582 
C 851 710 1062 934 1235 986 
C 1293 979 1338 973 1357 973 
C 1478 960 1562 954 1600 954 
C 1837 954 2093 1050 2291 1222 
C 2502 1402 2598 1626 2598 1946 
C 2598 2131 2566 2278 2477 2483 
L 3008 2483 
z
M 2771 -410 
C 2771 -781 2285 -1030 1562 -1030 
C 998 -1030 627 -845 627 -563 
C 627 -416 672 -333 941 -13 
C 1152 -58 1664 -96 1978 -96 
C 2560 -96 2771 -179 2771 -410 
z
M 2106 1696 
C 2106 1338 1920 1114 1626 1114 
C 1242 1114 973 1530 973 2144 
L 973 2163 
C 973 2541 1152 2765 1446 2765 
C 1645 2765 1811 2656 1914 2464 
C 2029 2240 2106 1946 2106 1696 
z
" transform="scale(0.015625)"/>
      </defs>
      <use xlink:href="#TeXGyreTermes-Regular-67"/>
      <use xlink:href="#TeXGyreTermes-Regular-6c" x="49.999985"/>
      <use xlink:href="#TeXGyreTermes-Regular-6f" x="77.799973"/>
      <use xlink:href="#TeXGyreTermes-Regular-62" x="127.799957"/>
      <use xlink:href="#TeXGyreTermes-Regular-61" x="177.799942"/>
      <use xlink:href="#TeXGyreTermes-Regular-6c" x="222.199936"/>
      <use xlink:href="#TeXGyreTermes-Regular-20" x="249.999924"/>
      <use xlink:href="#TeXGyreTermes-Regular-73" x="274.999908"/>
      <use xlink:href="#TeXGyreTermes-Regular-63" x="313.899902"/>
      <use xlink:href="#TeXGyreTermes-Regular-61" x="358.299896"/>
      <use xlink:href="#TeXGyreTermes-Regular-6c" x="402.69989"/>
      <use xlink:href="#TeXGyreTermes-Regular-65" x="430.499878"/>
     </g>
    </g>
    <g id="line2d_17">
     <defs>
      <path id="m5ee7480343" d="M -3 3 
L 3 3 
L 3 -3 
L -3 -3 
z
" style="stroke: #333333; stroke-linejoin: miter"/>
     </defs>
     <g>
      <use xlink:href="#m5ee7480343" x="25.616595" y="172.033844" style="fill: #333333; stroke: #333333; stroke-linejoin: miter"/>
     </g>
    </g>
    <g id="text_14">
     <!-- block scale -->
     <g transform="translate(35.816595 175.008844) scale(0.085 -0.085)">
      <use xlink:href="#TeXGyreTermes-Regular-62"/>
      <use xlink:href="#TeXGyreTermes-Regular-6c" x="49.999985"/>
      <use xlink:href="#TeXGyreTermes-Regular-6f" x="77.799973"/>
      <use xlink:href="#TeXGyreTermes-Regular-63" x="127.799957"/>
      <use xlink:href="#TeXGyreTermes-Regular-6b" x="172.199951"/>
      <use xlink:href="#TeXGyreTermes-Regular-20" x="222.199936"/>
      <use xlink:href="#TeXGyreTermes-Regular-73" x="247.199921"/>
      <use xlink:href="#TeXGyreTermes-Regular-63" x="286.099915"/>
      <use xlink:href="#TeXGyreTermes-Regular-61" x="330.499908"/>
      <use xlink:href="#TeXGyreTermes-Regular-6c" x="374.899902"/>
      <use xlink:href="#TeXGyreTermes-Regular-65" x="402.69989"/>
     </g>
    </g>
    <g id="line2d_18">
     <defs>
      <path id="m660716cf04" d="M 0 -3 
L -3 3 
L 3 3 
z
" style="stroke: #333333; stroke-linejoin: miter"/>
     </defs>
     <g>
      <use xlink:href="#m660716cf04" x="25.616595" y="184.078609" style="fill: #333333; stroke: #333333; stroke-linejoin: miter"/>
     </g>
    </g>
    <g id="text_15">
     <!-- Q+S -->
     <g transform="translate(35.816595 187.053609) scale(0.085 -0.085)">
      <defs>
       <path id="TeXGyreTermes-Regular-2b" d="M 3354 1389 
L 3354 1811 
L 2016 1811 
L 2016 3149 
L 1594 3149 
L 1594 1811 
L 256 1811 
L 256 1389 
L 1594 1389 
L 1594 51 
L 2016 51 
L 2016 1389 
L 3354 1389 
z
" transform="scale(0.015625)"/>
       <path id="TeXGyreTermes-Regular-53" d="M 3142 1075 
C 3142 1606 2790 2016 1946 2477 
C 1274 2842 1005 3123 1005 3475 
C 1005 3827 1274 4064 1670 4064 
C 1958 4064 2227 3942 2451 3712 
C 2650 3507 2739 3341 2842 2963 
L 3002 2963 
L 2861 4326 
L 2726 4326 
C 2701 4186 2630 4109 2522 4109 
C 2458 4109 2355 4134 2240 4186 
C 2003 4275 1773 4326 1549 4326 
C 1299 4326 1030 4224 826 4058 
C 576 3853 454 3578 454 3226 
C 454 2720 736 2362 1453 1984 
C 1914 1734 2246 1478 2406 1235 
C 2464 1146 2496 1018 2496 858 
C 2496 435 2176 141 1709 141 
C 1133 141 736 493 416 1274 
L 269 1274 
L 461 -83 
L 602 -83 
C 608 38 685 128 781 128 
C 851 128 960 102 1082 58 
C 1325 -38 1581 -90 1837 -90 
C 2579 -90 3142 416 3142 1075 
z
" transform="scale(0.015625)"/>
      </defs>
      <use xlink:href="#TeXGyreTermes-Regular-51"/>
      <use xlink:href="#TeXGyreTermes-Regular-2b" x="72.199982"/>
      <use xlink:href="#TeXGyreTermes-Regular-53" x="128.599976"/>
     </g>
    </g>
    <g id="line2d_19">
     <defs>
      <path id="m8b1fa45050" d="M -0 3 
L 3 -3 
L -3 -3 
z
" style="stroke: #333333; stroke-linejoin: miter"/>
     </defs>
     <g>
      <use xlink:href="#m8b1fa45050" x="89.359954" y="159.981109" style="fill: #333333; stroke: #333333; stroke-linejoin: miter"/>
     </g>
    </g>
    <g id="text_16">
     <!-- Q+S (OBS) -->
     <g transform="translate(99.559954 162.956109) scale(0.085 -0.085)">
      <use xlink:href="#TeXGyreTermes-Regular-51"/>
      <use xlink:href="#TeXGyreTermes-Regular-2b" x="72.199982"/>
      <use xlink:href="#TeXGyreTermes-Regular-53" x="128.599976"/>
      <use xlink:href="#TeXGyreTermes-Regular-20" x="184.199966"/>
      <use xlink:href="#TeXGyreTermes-Regular-28" x="209.199951"/>
      <use xlink:href="#TeXGyreTermes-Regular-4f" x="242.499939"/>
      <use xlink:href="#TeXGyreTermes-Regular-42" x="314.699921"/>
      <use xlink:href="#TeXGyreTermes-Regular-53" x="381.399918"/>
      <use xlink:href="#TeXGyreTermes-Regular-29" x="436.999908"/>
     </g>
    </g>
    <g id="line2d_20">
     <defs>
      <path id="m172e869e02" d="M 0 -3 
L -0.673542 -0.927051 
L -2.85317 -0.927051 
L -1.089814 0.354102 
L -1.763356 2.427051 
L -0 1.145898 
L 1.763356 2.427051 
L 1.089814 0.354102 
L 2.85317 -0.927051 
L 0.673542 -0.927051 
z
" style="stroke: #333333; stroke-linejoin: bevel"/>
     </defs>
     <g>
      <use xlink:href="#m172e869e02" x="89.359954" y="172.025875" style="fill: #333333; stroke: #333333; stroke-linejoin: bevel"/>
     </g>
    </g>
    <g id="text_17">
     <!-- Q+L -->
     <g transform="translate(99.559954 175.000875) scale(0.085 -0.085)">
      <use xlink:href="#TeXGyreTermes-Regular-51"/>
      <use xlink:href="#TeXGyreTermes-Regular-2b" x="72.199982"/>
      <use xlink:href="#TeXGyreTermes-Regular-4c" x="128.599976"/>
     </g>
    </g>
    <g id="line2d_21">
     <defs>
      <path id="m21e47b6ff3" d="M 0 4.242641 
L 4.242641 0 
L 0 -4.242641 
L -4.242641 0 
z
" style="stroke: #333333; stroke-linejoin: miter"/>
     </defs>
     <g>
      <use xlink:href="#m21e47b6ff3" x="89.359954" y="184.07064" style="fill-opacity: 0; stroke: #333333; stroke-linejoin: miter"/>
     </g>
    </g>
    <g id="text_18">
     <!-- strict scaled QSL -->
     <g transform="translate(99.559954 187.04564) scale(0.085 -0.085)">
      <use xlink:href="#TeXGyreTermes-Regular-73"/>
      <use xlink:href="#TeXGyreTermes-Regular-74" x="38.899994"/>
      <use xlink:href="#TeXGyreTermes-Regular-72" x="66.699982"/>
      <use xlink:href="#TeXGyreTermes-Regular-69" x="99.999969"/>
      <use xlink:href="#TeXGyreTermes-Regular-63" x="127.799957"/>
      <use xlink:href="#TeXGyreTermes-Regular-74" x="172.199951"/>
      <use xlink:href="#TeXGyreTermes-Regular-20" x="199.999939"/>
      <use xlink:href="#TeXGyreTermes-Regular-73" x="224.999924"/>
      <use xlink:href="#TeXGyreTermes-Regular-63" x="263.899918"/>
      <use xlink:href="#TeXGyreTermes-Regular-61" x="308.299911"/>
      <use xlink:href="#TeXGyreTermes-Regular-6c" x="352.699905"/>
      <use xlink:href="#TeXGyreTermes-Regular-65" x="380.499893"/>
      <use xlink:href="#TeXGyreTermes-Regular-64" x="424.899887"/>
      <use xlink:href="#TeXGyreTermes-Regular-20" x="474.899872"/>
      <use xlink:href="#TeXGyreTermes-Regular-51" x="499.899857"/>
      <use xlink:href="#TeXGyreTermes-Regular-53" x="572.099838"/>
      <use xlink:href="#TeXGyreTermes-Regular-4c" x="627.699829"/>
     </g>
    </g>
   </g>
  </g>
  <g id="axes_2">
   <g id="patch_6">
    <path d="M 218.549378 124.269822 
L 326.93624 124.269822 
L 326.93624 34.675939 
L 218.549378 34.675939 
z
" style="fill: #ffffff"/>
   </g>
   <g id="matplotlib.axis_3">
    <g id="xtick_4">
     <g id="line2d_22">
      <g>
       <use xlink:href="#mafe5ff414d" x="223.476054" y="124.269822" style="stroke: #000000; stroke-width: 0.8"/>
      </g>
     </g>
     <g id="text_19">
      <!-- Pythia-70M -->
      <g transform="translate(181.972785 150.403961) rotate(-18) scale(0.09 -0.09)">
       <use xlink:href="#TeXGyreTermes-Regular-50"/>
       <use xlink:href="#TeXGyreTermes-Regular-79" x="55.599991"/>
       <use xlink:href="#TeXGyreTermes-Regular-74" x="105.599976"/>
       <use xlink:href="#TeXGyreTermes-Regular-68" x="133.399963"/>
       <use xlink:href="#TeXGyreTermes-Regular-69" x="183.399948"/>
       <use xlink:href="#TeXGyreTermes-Regular-61" x="211.199936"/>
       <use xlink:href="#TeXGyreTermes-Regular-2d" x="255.59993"/>
       <use xlink:href="#TeXGyreTermes-Regular-37" x="288.899918"/>
       <use xlink:href="#TeXGyreTermes-Regular-30" x="338.899902"/>
       <use xlink:href="#TeXGyreTermes-Regular-4d" x="388.899887"/>
      </g>
     </g>
    </g>
    <g id="xtick_5">
     <g id="line2d_23">
      <g>
       <use xlink:href="#mafe5ff414d" x="272.742809" y="124.269822" style="stroke: #000000; stroke-width: 0.8"/>
      </g>
     </g>
     <g id="text_20">
      <!-- OPT-125M -->
      <g transform="translate(232.671853 149.939421) rotate(-18) scale(0.09 -0.09)">
       <use xlink:href="#TeXGyreTermes-Regular-4f"/>
       <use xlink:href="#TeXGyreTermes-Regular-50" x="72.199982"/>
       <use xlink:href="#TeXGyreTermes-Regular-54" x="127.799973"/>
       <use xlink:href="#TeXGyreTermes-Regular-2d" x="188.899963"/>
       <use xlink:href="#TeXGyreTermes-Regular-31" x="222.199951"/>
       <use xlink:href="#TeXGyreTermes-Regular-32" x="272.199936"/>
       <use xlink:href="#TeXGyreTermes-Regular-35" x="322.199921"/>
       <use xlink:href="#TeXGyreTermes-Regular-4d" x="372.199905"/>
      </g>
     </g>
    </g>
    <g id="xtick_6">
     <g id="line2d_24">
      <g>
       <use xlink:href="#mafe5ff414d" x="322.009565" y="124.269822" style="stroke: #000000; stroke-width: 0.8"/>
      </g>
     </g>
     <g id="text_21">
      <!-- Qwen3-0.6B -->
      <g transform="translate(277.426142 151.40561) rotate(-18) scale(0.09 -0.09)">
       <use xlink:href="#TeXGyreTermes-Regular-51"/>
       <use xlink:href="#TeXGyreTermes-Regular-77" x="72.199982"/>
       <use xlink:href="#TeXGyreTermes-Regular-65" x="144.399963"/>
       <use xlink:href="#TeXGyreTermes-Regular-6e" x="188.799957"/>
       <use xlink:href="#TeXGyreTermes-Regular-33" x="238.799942"/>
       <use xlink:href="#TeXGyreTermes-Regular-2d" x="288.799927"/>
       <use xlink:href="#TeXGyreTermes-Regular-30" x="322.099915"/>
       <use xlink:href="#TeXGyreTermes-Regular-2e" x="372.099899"/>
       <use xlink:href="#TeXGyreTermes-Regular-36" x="397.099884"/>
       <use xlink:href="#TeXGyreTermes-Regular-42" x="447.099869"/>
      </g>
     </g>
    </g>
   </g>
   <g id="matplotlib.axis_4">
    <g id="ytick_3">
     <g id="line2d_25">
      <path d="M 218.549378 123.500237 
L 326.93624 123.500237 
" clip-path="url(#p766ce84b87)" style="fill: none; stroke-dasharray: 0.45,0.7425; stroke-dashoffset: 0; stroke: #b0b0b0; stroke-opacity: 0.45; stroke-width: 0.45"/>
     </g>
     <g id="line2d_26">
      <g>
       <use xlink:href="#md5891e7be4" x="218.549378" y="123.500237" style="stroke: #000000; stroke-width: 0.8"/>
      </g>
     </g>
     <g id="text_22">
      <!-- −0.01 -->
      <g transform="translate(190.722816 126.573597) scale(0.09 -0.09)">
       <defs>
        <path id="TeXGyreTermes-Regular-2212" d="M 3354 1389 
L 3354 1811 
L 256 1811 
L 256 1389 
L 3354 1389 
z
" transform="scale(0.015625)"/>
       </defs>
       <use xlink:href="#TeXGyreTermes-Regular-2212"/>
       <use xlink:href="#TeXGyreTermes-Regular-30" x="56.399994"/>
       <use xlink:href="#TeXGyreTermes-Regular-2e" x="106.399979"/>
       <use xlink:href="#TeXGyreTermes-Regular-30" x="131.399963"/>
       <use xlink:href="#TeXGyreTermes-Regular-31" x="181.399948"/>
      </g>
     </g>
    </g>
    <g id="ytick_4">
     <g id="line2d_27">
      <path d="M 218.549378 94.942162 
L 326.93624 94.942162 
" clip-path="url(#p766ce84b87)" style="fill: none; stroke-dasharray: 0.45,0.7425; stroke-dashoffset: 0; stroke: #b0b0b0; stroke-opacity: 0.45; stroke-width: 0.45"/>
     </g>
     <g id="line2d_28">
      <g>
       <use xlink:href="#md5891e7be4" x="218.549378" y="94.942162" style="stroke: #000000; stroke-width: 0.8"/>
      </g>
     </g>
     <g id="text_23">
      <!-- 0.00 -->
      <g transform="translate(195.799378 98.015521) scale(0.09 -0.09)">
       <use xlink:href="#TeXGyreTermes-Regular-30"/>
       <use xlink:href="#TeXGyreTermes-Regular-2e" x="49.999985"/>
       <use xlink:href="#TeXGyreTermes-Regular-30" x="74.999969"/>
       <use xlink:href="#TeXGyreTermes-Regular-30" x="124.999954"/>
      </g>
     </g>
    </g>
    <g id="ytick_5">
     <g id="line2d_29">
      <path d="M 218.549378 66.384086 
L 326.93624 66.384086 
" clip-path="url(#p766ce84b87)" style="fill: none; stroke-dasharray: 0.45,0.7425; stroke-dashoffset: 0; stroke: #b0b0b0; stroke-opacity: 0.45; stroke-width: 0.45"/>
     </g>
     <g id="line2d_30">
      <g>
       <use xlink:href="#md5891e7be4" x="218.549378" y="66.384086" style="stroke: #000000; stroke-width: 0.8"/>
      </g>
     </g>
     <g id="text_24">
      <!-- 0.01 -->
      <g transform="translate(195.799378 69.457445) scale(0.09 -0.09)">
       <use xlink:href="#TeXGyreTermes-Regular-30"/>
       <use xlink:href="#TeXGyreTermes-Regular-2e" x="49.999985"/>
       <use xlink:href="#TeXGyreTermes-Regular-30" x="74.999969"/>
       <use xlink:href="#TeXGyreTermes-Regular-31" x="124.999954"/>
      </g>
     </g>
    </g>
    <g id="ytick_6">
     <g id="line2d_31">
      <path d="M 218.549378 37.82601 
L 326.93624 37.82601 
" clip-path="url(#p766ce84b87)" style="fill: none; stroke-dasharray: 0.45,0.7425; stroke-dashoffset: 0; stroke: #b0b0b0; stroke-opacity: 0.45; stroke-width: 0.45"/>
     </g>
     <g id="line2d_32">
      <g>
       <use xlink:href="#md5891e7be4" x="218.549378" y="37.82601" style="stroke: #000000; stroke-width: 0.8"/>
      </g>
     </g>
     <g id="text_25">
      <!-- 0.02 -->
      <g transform="translate(195.799378 40.89937) scale(0.09 -0.09)">
       <use xlink:href="#TeXGyreTermes-Regular-30"/>
       <use xlink:href="#TeXGyreTermes-Regular-2e" x="49.999985"/>
       <use xlink:href="#TeXGyreTermes-Regular-30" x="74.999969"/>
       <use xlink:href="#TeXGyreTermes-Regular-32" x="124.999954"/>
      </g>
     </g>
    </g>
    <g id="text_26">
     <!-- Strict scaled QSL $-$ QL -->
     <g transform="translate(174.186566 127.37288) rotate(-90) scale(0.1 -0.1)">
      <defs>
       <path id="STIXGeneral-Regular-2212" d="M 3974 1408 
L 410 1408 
L 410 1830 
L 3974 1830 
L 3974 1408 
z
" transform="scale(0.015625)"/>
      </defs>
      <use xlink:href="#TeXGyreTermes-Regular-53" transform="translate(0 0.703125)"/>
      <use xlink:href="#TeXGyreTermes-Regular-74" transform="translate(55.599991 0.703125)"/>
      <use xlink:href="#TeXGyreTermes-Regular-72" transform="translate(83.399979 0.703125)"/>
      <use xlink:href="#TeXGyreTermes-Regular-69" transform="translate(116.699966 0.703125)"/>
      <use xlink:href="#TeXGyreTermes-Regular-63" transform="translate(144.499954 0.703125)"/>
      <use xlink:href="#TeXGyreTermes-Regular-74" transform="translate(188.899948 0.703125)"/>
      <use xlink:href="#TeXGyreTermes-Regular-20" transform="translate(216.699936 0.703125)"/>
      <use xlink:href="#TeXGyreTermes-Regular-73" transform="translate(241.699921 0.703125)"/>
      <use xlink:href="#TeXGyreTermes-Regular-63" transform="translate(280.599915 0.703125)"/>
      <use xlink:href="#TeXGyreTermes-Regular-61" transform="translate(324.999908 0.703125)"/>
      <use xlink:href="#TeXGyreTermes-Regular-6c" transform="translate(369.399902 0.703125)"/>
      <use xlink:href="#TeXGyreTermes-Regular-65" transform="translate(397.19989 0.703125)"/>
      <use xlink:href="#TeXGyreTermes-Regular-64" transform="translate(441.599884 0.703125)"/>
      <use xlink:href="#TeXGyreTermes-Regular-20" transform="translate(491.599869 0.703125)"/>
      <use xlink:href="#TeXGyreTermes-Regular-51" transform="translate(516.599854 0.703125)"/>
      <use xlink:href="#TeXGyreTermes-Regular-53" transform="translate(588.799835 0.703125)"/>
      <use xlink:href="#TeXGyreTermes-Regular-4c" transform="translate(644.399826 0.703125)"/>
      <use xlink:href="#TeXGyreTermes-Regular-20" transform="translate(705.499817 0.703125)"/>
      <use xlink:href="#STIXGeneral-Regular-2212" transform="translate(730.499802 0.703125)"/>
      <use xlink:href="#TeXGyreTermes-Regular-20" transform="translate(798.999786 0.703125)"/>
      <use xlink:href="#TeXGyreTermes-Regular-51" transform="translate(823.999771 0.703125)"/>
      <use xlink:href="#TeXGyreTermes-Regular-4c" transform="translate(896.199753 0.703125)"/>
     </g>
     <!-- paired NLL (nats/token) -->
     <g transform="translate(184.552503 128.07288) rotate(-90) scale(0.1 -0.1)">
      <use xlink:href="#TeXGyreTermes-Regular-70"/>
      <use xlink:href="#TeXGyreTermes-Regular-61" x="49.999985"/>
      <use xlink:href="#TeXGyreTermes-Regular-69" x="94.399979"/>
      <use xlink:href="#TeXGyreTermes-Regular-72" x="122.199966"/>
      <use xlink:href="#TeXGyreTermes-Regular-65" x="155.499954"/>
      <use xlink:href="#TeXGyreTermes-Regular-64" x="199.899948"/>
      <use xlink:href="#TeXGyreTermes-Regular-20" x="249.899933"/>
      <use xlink:href="#TeXGyreTermes-Regular-4e" x="274.899918"/>
      <use xlink:href="#TeXGyreTermes-Regular-4c" x="347.099899"/>
      <use xlink:href="#TeXGyreTermes-Regular-4c" x="408.19989"/>
      <use xlink:href="#TeXGyreTermes-Regular-20" x="469.299881"/>
      <use xlink:href="#TeXGyreTermes-Regular-28" x="494.299866"/>
      <use xlink:href="#TeXGyreTermes-Regular-6e" x="527.599854"/>
      <use xlink:href="#TeXGyreTermes-Regular-61" x="577.599838"/>
      <use xlink:href="#TeXGyreTermes-Regular-74" x="621.999832"/>
      <use xlink:href="#TeXGyreTermes-Regular-73" x="649.79982"/>
      <use xlink:href="#TeXGyreTermes-Regular-2f" x="688.699814"/>
      <use xlink:href="#TeXGyreTermes-Regular-74" x="716.499802"/>
      <use xlink:href="#TeXGyreTermes-Regular-6f" x="744.299789"/>
      <use xlink:href="#TeXGyreTermes-Regular-6b" x="794.299774"/>
      <use xlink:href="#TeXGyreTermes-Regular-65" x="844.299759"/>
      <use xlink:href="#TeXGyreTermes-Regular-6e" x="888.699753"/>
      <use xlink:href="#TeXGyreTermes-Regular-29" x="938.699738"/>
     </g>
    </g>
   </g>
   <g id="LineCollection_1">
    <path d="M 223.476054 120.197373 
L 223.476054 38.748388 
" clip-path="url(#p766ce84b87)" style="fill: none; stroke: #0072b2"/>
   </g>
   <g id="line2d_33">
    <defs>
     <path id="m934808ec08" d="M 2.5 0 
L -2.5 -0 
" style="stroke: #0072b2; stroke-width: 1.15"/>
    </defs>
    <g clip-path="url(#p766ce84b87)">
     <use xlink:href="#m934808ec08" x="223.476054" y="120.197373" style="fill: #0072b2; stroke: #0072b2; stroke-width: 1.15"/>
    </g>
   </g>
   <g id="line2d_34">
    <g clip-path="url(#p766ce84b87)">
     <use xlink:href="#m934808ec08" x="223.476054" y="38.748388" style="fill: #0072b2; stroke: #0072b2; stroke-width: 1.15"/>
    </g>
   </g>
   <g id="LineCollection_2">
    <path d="M 272.742809 114.282854 
L 272.742809 70.28655 
" clip-path="url(#p766ce84b87)" style="fill: none; stroke: #009e73"/>
   </g>
   <g id="line2d_35">
    <defs>
     <path id="m3987b1eab2" d="M 2.5 0 
L -2.5 -0 
" style="stroke: #009e73; stroke-width: 1.15"/>
    </defs>
    <g clip-path="url(#p766ce84b87)">
     <use xlink:href="#m3987b1eab2" x="272.742809" y="114.282854" style="fill: #009e73; stroke: #009e73; stroke-width: 1.15"/>
    </g>
   </g>
   <g id="line2d_36">
    <g clip-path="url(#p766ce84b87)">
     <use xlink:href="#m3987b1eab2" x="272.742809" y="70.28655" style="fill: #009e73; stroke: #009e73; stroke-width: 1.15"/>
    </g>
   </g>
   <g id="LineCollection_3">
    <path d="M 322.009565 88.585612 
L 322.009565 59.87116 
" clip-path="url(#p766ce84b87)" style="fill: none; stroke: #d55e00"/>
   </g>
   <g id="line2d_37">
    <defs>
     <path id="m201bb9a0db" d="M 2.5 0 
L -2.5 -0 
" style="stroke: #d55e00; stroke-width: 1.15"/>
    </defs>
    <g clip-path="url(#p766ce84b87)">
     <use xlink:href="#m201bb9a0db" x="322.009565" y="88.585612" style="fill: #d55e00; stroke: #d55e00; stroke-width: 1.15"/>
    </g>
   </g>
   <g id="line2d_38">
    <g clip-path="url(#p766ce84b87)">
     <use xlink:href="#m201bb9a0db" x="322.009565" y="59.87116" style="fill: #d55e00; stroke: #d55e00; stroke-width: 1.15"/>
    </g>
   </g>
   <g id="line2d_39">
    <path d="M 218.549378 94.942162 
L 326.93624 94.942162 
" clip-path="url(#p766ce84b87)" style="fill: none; stroke: #333333; stroke-width: 0.75; stroke-linecap: square"/>
   </g>
   <g id="line2d_40">
    <defs>
     <path id="mcf8cccd26a" d="M 0 3.676955 
L 3.676955 0 
L 0 -3.676955 
L -3.676955 0 
z
" style="stroke: #0072b2; stroke-width: 1.15; stroke-linejoin: miter"/>
    </defs>
    <g clip-path="url(#p766ce84b87)">
     <use xlink:href="#mcf8cccd26a" x="223.476054" y="79.47288" style="fill-opacity: 0; stroke: #0072b2; stroke-width: 1.15; stroke-linejoin: miter"/>
    </g>
   </g>
   <g id="line2d_41">
    <defs>
     <path id="me9f4a287ad" d="M 0 3.676955 
L 3.676955 0 
L 0 -3.676955 
L -3.676955 0 
z
" style="stroke: #009e73; stroke-width: 1.15; stroke-linejoin: miter"/>
    </defs>
    <g clip-path="url(#p766ce84b87)">
     <use xlink:href="#me9f4a287ad" x="272.742809" y="92.284702" style="fill-opacity: 0; stroke: #009e73; stroke-width: 1.15; stroke-linejoin: miter"/>
    </g>
   </g>
   <g id="line2d_42">
    <defs>
     <path id="m2f1d0df203" d="M 0 3.676955 
L 3.676955 0 
L 0 -3.676955 
L -3.676955 0 
z
" style="stroke: #d55e00; stroke-width: 1.15; stroke-linejoin: miter"/>
    </defs>
    <g clip-path="url(#p766ce84b87)">
     <use xlink:href="#m2f1d0df203" x="322.009565" y="74.228386" style="fill-opacity: 0; stroke: #d55e00; stroke-width: 1.15; stroke-linejoin: miter"/>
    </g>
   </g>
   <g id="patch_7">
    <path d="M 218.549378 124.269822 
L 218.549378 34.675939 
" style="fill: none; stroke: #000000; stroke-width: 0.8; stroke-linejoin: miter; stroke-linecap: square"/>
   </g>
   <g id="patch_8">
    <path d="M 218.549378 124.269822 
L 326.93624 124.269822 
" style="fill: none; stroke: #000000; stroke-width: 0.8; stroke-linejoin: miter; stroke-linecap: square"/>
   </g>
   <g id="text_27">
    <!-- 8 fixed windows; descriptive -->
    <g transform="translate(226.319909 42.273051) scale(0.085 -0.085)">
     <defs>
      <path id="TeXGyreTermes-Regular-38" d="M 2848 992 
C 2848 1485 2630 1798 1856 2374 
C 2490 2714 2714 2982 2714 3418 
C 2714 3942 2253 4326 1613 4326 
C 915 4326 397 3898 397 3315 
C 397 2899 518 2714 1190 2125 
C 499 1600 358 1402 358 966 
C 358 346 864 -90 1587 -90 
C 2355 -90 2848 333 2848 992 
z
M 2362 794 
C 2362 378 2074 90 1658 90 
C 1171 90 845 461 845 1018 
C 845 1427 986 1696 1357 1997 
L 1741 1715 
C 2208 1382 2362 1152 2362 794 
z
M 2272 3424 
C 2272 3059 2093 2771 1728 2528 
C 1696 2509 1696 2509 1670 2490 
C 1101 2861 870 3155 870 3514 
C 870 3885 1158 4147 1562 4147 
C 1997 4147 2272 3866 2272 3424 
z
" transform="scale(0.015625)"/>
      <path id="TeXGyreTermes-Regular-3b" d="M 1402 83 
C 1402 403 1178 653 890 653 
C 666 653 512 512 512 294 
C 512 83 653 -38 890 -38 
C 928 -38 973 -32 1011 -26 
C 1056 -13 1062 -13 1062 -13 
C 1114 -13 1152 -51 1152 -102 
C 1152 -307 973 -544 627 -781 
L 685 -902 
C 1126 -685 1402 -301 1402 83 
z
M 1229 2573 
C 1229 2771 1062 2938 870 2938 
C 678 2938 518 2771 518 2573 
C 518 2387 678 2227 864 2227 
C 1062 2227 1229 2387 1229 2573 
z
" transform="scale(0.015625)"/>
     </defs>
     <use xlink:href="#TeXGyreTermes-Regular-38"/>
     <use xlink:href="#TeXGyreTermes-Regular-20" x="49.999985"/>
     <use xlink:href="#TeXGyreTermes-Regular-66" x="74.999969"/>
     <use xlink:href="#TeXGyreTermes-Regular-69" x="108.299957"/>
     <use xlink:href="#TeXGyreTermes-Regular-78" x="136.099945"/>
     <use xlink:href="#TeXGyreTermes-Regular-65" x="186.09993"/>
     <use xlink:href="#TeXGyreTermes-Regular-64" x="230.499924"/>
     <use xlink:href="#TeXGyreTermes-Regular-20" x="280.499908"/>
     <use xlink:href="#TeXGyreTermes-Regular-77" x="305.499893"/>
     <use xlink:href="#TeXGyreTermes-Regular-69" x="377.699875"/>
     <use xlink:href="#TeXGyreTermes-Regular-6e" x="405.499863"/>
     <use xlink:href="#TeXGyreTermes-Regular-64" x="455.499847"/>
     <use xlink:href="#TeXGyreTermes-Regular-6f" x="505.499832"/>
     <use xlink:href="#TeXGyreTermes-Regular-77" x="555.499817"/>
     <use xlink:href="#TeXGyreTermes-Regular-73" x="627.699799"/>
     <use xlink:href="#TeXGyreTermes-Regular-3b" x="666.599792"/>
     <use xlink:href="#TeXGyreTermes-Regular-20" x="694.39978"/>
     <use xlink:href="#TeXGyreTermes-Regular-64" x="719.399765"/>
     <use xlink:href="#TeXGyreTermes-Regular-65" x="769.39975"/>
     <use xlink:href="#TeXGyreTermes-Regular-73" x="813.799744"/>
     <use xlink:href="#TeXGyreTermes-Regular-63" x="852.699738"/>
     <use xlink:href="#TeXGyreTermes-Regular-72" x="897.099731"/>
     <use xlink:href="#TeXGyreTermes-Regular-69" x="930.399719"/>
     <use xlink:href="#TeXGyreTermes-Regular-70" x="958.199707"/>
     <use xlink:href="#TeXGyreTermes-Regular-74" x="1008.199692"/>
     <use xlink:href="#TeXGyreTermes-Regular-69" x="1035.99968"/>
     <use xlink:href="#TeXGyreTermes-Regular-76" x="1063.799667"/>
     <use xlink:href="#TeXGyreTermes-Regular-65" x="1113.799652"/>
    </g>
   </g>
   <g id="text_28">
    <!-- (b) -->
    <g transform="translate(199.039743 31.988122) scale(0.1 -0.1)">
     <defs>
      <path id="TeXGyreTermes-Bold-62" d="M 3334 1530 
C 3334 2413 2842 3027 2131 3027 
C 1824 3027 1587 2918 1350 2669 
L 1350 4326 
L 109 4326 
L 109 4173 
C 403 4115 461 4058 461 3802 
L 461 -83 
L 538 -83 
L 1043 275 
C 1338 13 1568 -90 1888 -90 
C 2739 -90 3334 576 3334 1530 
z
M 2394 1414 
C 2394 531 2202 115 1792 115 
C 1523 115 1350 314 1350 621 
L 1350 2304 
C 1459 2579 1587 2682 1798 2682 
C 2195 2682 2394 2253 2394 1414 
z
" transform="scale(0.015625)"/>
     </defs>
     <use xlink:href="#TeXGyreTermes-Bold-28"/>
     <use xlink:href="#TeXGyreTermes-Bold-62" x="33.299988"/>
     <use xlink:href="#TeXGyreTermes-Bold-29" x="88.899979"/>
    </g>
   </g>
  </g>
  <g id="axes_3">
   <g id="patch_9">
    <path d="M 373.772658 124.269822 
L 482.15952 124.269822 
L 482.15952 34.675939 
L 373.772658 34.675939 
z
" style="fill: #ffffff"/>
   </g>
   <g id="patch_10">
    <path d="M 378.699334 48.414686 
L 386.848722 48.414686 
L 386.848722 45.868224 
L 378.699334 45.868224 
z
" clip-path="url(#pc6e336acf8)" style="fill: #0072b2; opacity: 0.88"/>
   </g>
   <g id="patch_11">
    <path d="M 415.742007 48.414686 
L 423.891395 48.414686 
L 423.891395 39.990598 
L 415.742007 39.990598 
z
" clip-path="url(#pc6e336acf8)" style="fill: #0072b2; opacity: 0.88"/>
   </g>
   <g id="patch_12">
    <path d="M 452.78468 48.414686 
L 460.934068 48.414686 
L 460.934068 46.282608 
L 452.78468 46.282608 
z
" clip-path="url(#pc6e336acf8)" style="fill: #0072b2; opacity: 0.88"/>
   </g>
   <g id="patch_13">
    <path d="M 386.848722 48.414686 
L 394.99811 48.414686 
L 394.99811 80.698113 
L 386.848722 80.698113 
z
" clip-path="url(#pc6e336acf8)" style="fill: #e69f00; opacity: 0.88"/>
   </g>
   <g id="patch_14">
    <path d="M 423.891395 48.414686 
L 432.040783 48.414686 
L 432.040783 83.894082 
L 423.891395 83.894082 
z
" clip-path="url(#pc6e336acf8)" style="fill: #e69f00; opacity: 0.88"/>
   </g>
   <g id="patch_15">
    <path d="M 460.934068 48.414686 
L 469.083456 48.414686 
L 469.083456 98.788194 
L 460.934068 98.788194 
z
" clip-path="url(#pc6e336acf8)" style="fill: #e69f00; opacity: 0.88"/>
   </g>
   <g id="patch_16">
    <path d="M 394.99811 48.414686 
L 403.147498 48.414686 
L 403.147498 105.236394 
L 394.99811 105.236394 
z
" clip-path="url(#pc6e336acf8)" style="fill: #cc79a7; opacity: 0.88"/>
   </g>
   <g id="patch_17">
    <path d="M 432.040783 48.414686 
L 440.190171 48.414686 
L 440.190171 107.439181 
L 432.040783 107.439181 
z
" clip-path="url(#pc6e336acf8)" style="fill: #cc79a7; opacity: 0.88"/>
   </g>
   <g id="patch_18">
    <path d="M 469.083456 48.414686 
L 477.232844 48.414686 
L 477.232844 120.197373 
L 469.083456 120.197373 
z
" clip-path="url(#pc6e336acf8)" style="fill: #cc79a7; opacity: 0.88"/>
   </g>
   <g id="patch_19">
    <path d="M 373.772658 58.080983 
L 373.772658 38.748388 
L 482.15952 38.748388 
L 482.15952 58.080983 
z
" clip-path="url(#pc6e336acf8)" style="fill: #bbbbbb; opacity: 0.25; stroke: #bbbbbb; stroke-linejoin: miter"/>
   </g>
   <g id="matplotlib.axis_5">
    <g id="xtick_7">
     <g id="line2d_43">
      <g>
       <use xlink:href="#mafe5ff414d" x="390.923416" y="124.269822" style="stroke: #000000; stroke-width: 0.8"/>
      </g>
     </g>
     <g id="text_29">
      <!-- Pythia-70M -->
      <g transform="translate(349.420146 150.403961) rotate(-18) scale(0.09 -0.09)">
       <use xlink:href="#TeXGyreTermes-Regular-50"/>
       <use xlink:href="#TeXGyreTermes-Regular-79" x="55.599991"/>
       <use xlink:href="#TeXGyreTermes-Regular-74" x="105.599976"/>
       <use xlink:href="#TeXGyreTermes-Regular-68" x="133.399963"/>
       <use xlink:href="#TeXGyreTermes-Regular-69" x="183.399948"/>
       <use xlink:href="#TeXGyreTermes-Regular-61" x="211.199936"/>
       <use xlink:href="#TeXGyreTermes-Regular-2d" x="255.59993"/>
       <use xlink:href="#TeXGyreTermes-Regular-37" x="288.899918"/>
       <use xlink:href="#TeXGyreTermes-Regular-30" x="338.899902"/>
       <use xlink:href="#TeXGyreTermes-Regular-4d" x="388.899887"/>
      </g>
     </g>
    </g>
    <g id="xtick_8">
     <g id="line2d_44">
      <g>
       <use xlink:href="#mafe5ff414d" x="427.966089" y="124.269822" style="stroke: #000000; stroke-width: 0.8"/>
      </g>
     </g>
     <g id="text_30">
      <!-- OPT-125M -->
      <g transform="translate(387.895132 149.939421) rotate(-18) scale(0.09 -0.09)">
       <use xlink:href="#TeXGyreTermes-Regular-4f"/>
       <use xlink:href="#TeXGyreTermes-Regular-50" x="72.199982"/>
       <use xlink:href="#TeXGyreTermes-Regular-54" x="127.799973"/>
       <use xlink:href="#TeXGyreTermes-Regular-2d" x="188.899963"/>
       <use xlink:href="#TeXGyreTermes-Regular-31" x="222.199951"/>
       <use xlink:href="#TeXGyreTermes-Regular-32" x="272.199936"/>
       <use xlink:href="#TeXGyreTermes-Regular-35" x="322.199921"/>
       <use xlink:href="#TeXGyreTermes-Regular-4d" x="372.199905"/>
      </g>
     </g>
    </g>
    <g id="xtick_9">
     <g id="line2d_45">
      <g>
       <use xlink:href="#mafe5ff414d" x="465.008762" y="124.269822" style="stroke: #000000; stroke-width: 0.8"/>
      </g>
     </g>
     <g id="text_31">
      <!-- Qwen3-0.6B -->
      <g transform="translate(420.42534 151.40561) rotate(-18) scale(0.09 -0.09)">
       <use xlink:href="#TeXGyreTermes-Regular-51"/>
       <use xlink:href="#TeXGyreTermes-Regular-77" x="72.199982"/>
       <use xlink:href="#TeXGyreTermes-Regular-65" x="144.399963"/>
       <use xlink:href="#TeXGyreTermes-Regular-6e" x="188.799957"/>
       <use xlink:href="#TeXGyreTermes-Regular-33" x="238.799942"/>
       <use xlink:href="#TeXGyreTermes-Regular-2d" x="288.799927"/>
       <use xlink:href="#TeXGyreTermes-Regular-30" x="322.099915"/>
       <use xlink:href="#TeXGyreTermes-Regular-2e" x="372.099899"/>
       <use xlink:href="#TeXGyreTermes-Regular-36" x="397.099884"/>
       <use xlink:href="#TeXGyreTermes-Regular-42" x="447.099869"/>
      </g>
     </g>
    </g>
   </g>
   <g id="matplotlib.axis_6">
    <g id="ytick_7">
     <g id="line2d_46">
      <path d="M 373.772658 120.911917 
L 482.15952 120.911917 
" clip-path="url(#pc6e336acf8)" style="fill: none; stroke-dasharray: 0.45,0.7425; stroke-dashoffset: 0; stroke: #b0b0b0; stroke-opacity: 0.45; stroke-width: 0.45"/>
     </g>
     <g id="line2d_47">
      <g>
       <use xlink:href="#md5891e7be4" x="373.772658" y="120.911917" style="stroke: #000000; stroke-width: 0.8"/>
      </g>
     </g>
     <g id="text_32">
      <!-- −0.75 -->
      <g transform="translate(345.946095 123.985276) scale(0.09 -0.09)">
       <use xlink:href="#TeXGyreTermes-Regular-2212"/>
       <use xlink:href="#TeXGyreTermes-Regular-30" x="56.399994"/>
       <use xlink:href="#TeXGyreTermes-Regular-2e" x="106.399979"/>
       <use xlink:href="#TeXGyreTermes-Regular-37" x="131.399963"/>
       <use xlink:href="#TeXGyreTermes-Regular-35" x="181.399948"/>
      </g>
     </g>
    </g>
    <g id="ytick_8">
     <g id="line2d_48">
      <path d="M 373.772658 96.746173 
L 482.15952 96.746173 
" clip-path="url(#pc6e336acf8)" style="fill: none; stroke-dasharray: 0.45,0.7425; stroke-dashoffset: 0; stroke: #b0b0b0; stroke-opacity: 0.45; stroke-width: 0.45"/>
     </g>
     <g id="line2d_49">
      <g>
       <use xlink:href="#md5891e7be4" x="373.772658" y="96.746173" style="stroke: #000000; stroke-width: 0.8"/>
      </g>
     </g>
     <g id="text_33">
      <!-- −0.50 -->
      <g transform="translate(345.946095 99.819532) scale(0.09 -0.09)">
       <use xlink:href="#TeXGyreTermes-Regular-2212"/>
       <use xlink:href="#TeXGyreTermes-Regular-30" x="56.399994"/>
       <use xlink:href="#TeXGyreTermes-Regular-2e" x="106.399979"/>
       <use xlink:href="#TeXGyreTermes-Regular-35" x="131.399963"/>
       <use xlink:href="#TeXGyreTermes-Regular-30" x="181.399948"/>
      </g>
     </g>
    </g>
    <g id="ytick_9">
     <g id="line2d_50">
      <path d="M 373.772658 72.580429 
L 482.15952 72.580429 
" clip-path="url(#pc6e336acf8)" style="fill: none; stroke-dasharray: 0.45,0.7425; stroke-dashoffset: 0; stroke: #b0b0b0; stroke-opacity: 0.45; stroke-width: 0.45"/>
     </g>
     <g id="line2d_51">
      <g>
       <use xlink:href="#md5891e7be4" x="373.772658" y="72.580429" style="stroke: #000000; stroke-width: 0.8"/>
      </g>
     </g>
     <g id="text_34">
      <!-- −0.25 -->
      <g transform="translate(345.946095 75.653789) scale(0.09 -0.09)">
       <use xlink:href="#TeXGyreTermes-Regular-2212"/>
       <use xlink:href="#TeXGyreTermes-Regular-30" x="56.399994"/>
       <use xlink:href="#TeXGyreTermes-Regular-2e" x="106.399979"/>
       <use xlink:href="#TeXGyreTermes-Regular-32" x="131.399963"/>
       <use xlink:href="#TeXGyreTermes-Regular-35" x="181.399948"/>
      </g>
     </g>
    </g>
    <g id="ytick_10">
     <g id="line2d_52">
      <path d="M 373.772658 48.414686 
L 482.15952 48.414686 
" clip-path="url(#pc6e336acf8)" style="fill: none; stroke-dasharray: 0.45,0.7425; stroke-dashoffset: 0; stroke: #b0b0b0; stroke-opacity: 0.45; stroke-width: 0.45"/>
     </g>
     <g id="line2d_53">
      <g>
       <use xlink:href="#md5891e7be4" x="373.772658" y="48.414686" style="stroke: #000000; stroke-width: 0.8"/>
      </g>
     </g>
     <g id="text_35">
      <!-- 0.00 -->
      <g transform="translate(351.022658 51.488045) scale(0.09 -0.09)">
       <use xlink:href="#TeXGyreTermes-Regular-30"/>
       <use xlink:href="#TeXGyreTermes-Regular-2e" x="49.999985"/>
       <use xlink:href="#TeXGyreTermes-Regular-30" x="74.999969"/>
       <use xlink:href="#TeXGyreTermes-Regular-30" x="124.999954"/>
      </g>
     </g>
    </g>
    <g id="text_36">
     <!-- Signed PSD-proxy correlation -->
     <g transform="translate(339.766408 140.022099) rotate(-90) scale(0.1 -0.1)">
      <defs>
       <path id="TeXGyreTermes-Regular-44" d="M 4384 2138 
C 4384 2714 4192 3213 3840 3565 
C 3405 4006 2707 4237 1830 4237 
L 102 4237 
L 102 4115 
C 608 4070 666 4013 666 3539 
L 666 698 
C 666 237 589 154 102 122 
L 102 0 
L 1920 0 
C 2662 0 3334 211 3731 570 
C 4147 947 4384 1517 4384 2138 
z
M 3686 2093 
C 3686 1338 3424 800 2906 499 
C 2579 314 2208 237 1651 237 
C 1395 237 1318 294 1318 499 
L 1318 3750 
C 1318 3949 1389 4000 1651 4000 
C 2202 4000 2618 3898 2925 3680 
C 3424 3334 3686 2784 3686 2093 
z
" transform="scale(0.015625)"/>
      </defs>
      <use xlink:href="#TeXGyreTermes-Regular-53"/>
      <use xlink:href="#TeXGyreTermes-Regular-69" x="55.599991"/>
      <use xlink:href="#TeXGyreTermes-Regular-67" x="83.399979"/>
      <use xlink:href="#TeXGyreTermes-Regular-6e" x="133.399963"/>
      <use xlink:href="#TeXGyreTermes-Regular-65" x="183.399948"/>
      <use xlink:href="#TeXGyreTermes-Regular-64" x="227.799942"/>
      <use xlink:href="#TeXGyreTermes-Regular-20" x="277.799927"/>
      <use xlink:href="#TeXGyreTermes-Regular-50" x="302.799911"/>
      <use xlink:href="#TeXGyreTermes-Regular-53" x="358.399902"/>
      <use xlink:href="#TeXGyreTermes-Regular-44" x="413.999893"/>
      <use xlink:href="#TeXGyreTermes-Regular-2d" x="486.199875"/>
      <use xlink:href="#TeXGyreTermes-Regular-70" x="519.499863"/>
      <use xlink:href="#TeXGyreTermes-Regular-72" x="569.499847"/>
      <use xlink:href="#TeXGyreTermes-Regular-6f" x="602.799835"/>
      <use xlink:href="#TeXGyreTermes-Regular-78" x="652.79982"/>
      <use xlink:href="#TeXGyreTermes-Regular-79" x="702.799805"/>
      <use xlink:href="#TeXGyreTermes-Regular-20" x="752.799789"/>
      <use xlink:href="#TeXGyreTermes-Regular-63" x="777.799774"/>
      <use xlink:href="#TeXGyreTermes-Regular-6f" x="822.199768"/>
      <use xlink:href="#TeXGyreTermes-Regular-72" x="872.199753"/>
      <use xlink:href="#TeXGyreTermes-Regular-72" x="905.499741"/>
      <use xlink:href="#TeXGyreTermes-Regular-65" x="938.799728"/>
      <use xlink:href="#TeXGyreTermes-Regular-6c" x="983.199722"/>
      <use xlink:href="#TeXGyreTermes-Regular-61" x="1010.99971"/>
      <use xlink:href="#TeXGyreTermes-Regular-74" x="1055.399704"/>
      <use xlink:href="#TeXGyreTermes-Regular-69" x="1083.199692"/>
      <use xlink:href="#TeXGyreTermes-Regular-6f" x="1110.99968"/>
      <use xlink:href="#TeXGyreTermes-Regular-6e" x="1160.999664"/>
     </g>
    </g>
   </g>
   <g id="line2d_54">
    <path d="M 373.772658 48.414686 
L 482.15952 48.414686 
" clip-path="url(#pc6e336acf8)" style="fill: none; stroke: #333333; stroke-width: 0.7; stroke-linecap: square"/>
   </g>
   <g id="patch_20">
    <path d="M 373.772658 124.269822 
L 373.772658 34.675939 
" style="fill: none; stroke: #000000; stroke-width: 0.8; stroke-linejoin: miter; stroke-linecap: square"/>
   </g>
   <g id="patch_21">
    <path d="M 373.772658 124.269822 
L 482.15952 124.269822 
" style="fill: none; stroke: #000000; stroke-width: 0.8; stroke-linejoin: miter; stroke-linecap: square"/>
   </g>
   <g id="text_37">
    <!-- (c) -->
    <g transform="translate(354.263023 31.988122) scale(0.1 -0.1)">
     <defs>
      <path id="TeXGyreTermes-Bold-63" d="M 2752 582 
L 2637 698 
C 2400 429 2234 339 1971 339 
C 1414 339 1062 896 1062 1766 
C 1062 2426 1267 2829 1600 2829 
C 1702 2829 1798 2778 1837 2707 
C 1869 2650 1869 2650 1869 2381 
C 1875 2061 1984 1920 2227 1920 
C 2496 1920 2662 2074 2662 2323 
C 2662 2720 2234 3027 1677 3027 
C 800 3027 160 2355 160 1427 
C 160 538 730 -90 1530 -90 
C 2022 -90 2381 109 2752 582 
z
" transform="scale(0.015625)"/>
     </defs>
     <use xlink:href="#TeXGyreTermes-Bold-28"/>
     <use xlink:href="#TeXGyreTermes-Bold-63" x="33.299988"/>
     <use xlink:href="#TeXGyreTermes-Bold-29" x="77.699982"/>
    </g>
   </g>
   <g id="legend_3">
    <g id="patch_22">
     <path d="M 379.254921 11.51 
L 396.254921 11.51 
L 396.254921 5.56 
L 379.254921 5.56 
z
" style="fill: #bbbbbb; opacity: 0.25; stroke: #bbbbbb; stroke-linejoin: miter"/>
    </g>
    <g id="text_38">
     <!-- $|\rho|\leq0.1$ -->
     <g transform="translate(398.379921 11.51) scale(0.085 -0.085)">
      <defs>
       <path id="STIXGeneral-Regular-7c" d="M 851 -90 
L 429 -90 
L 429 4326 
L 851 4326 
L 851 -90 
z
" transform="scale(0.015625)"/>
       <path id="STIXGeneral-Italic-3c1" d="M -58 -864 
L 422 966 
Q 640 1811 1081 2316 
Q 1523 2822 2042 2822 
Q 2189 2822 2278 2816 
Q 2368 2810 2525 2765 
Q 2682 2720 2774 2633 
Q 2867 2547 2940 2371 
Q 3014 2195 3014 1946 
Q 3014 1210 2403 570 
Q 1792 -70 1107 -70 
Q 864 -70 672 38 
L 442 -864 
Q 378 -1126 243 -1312 
L -256 -1312 
Q -128 -1114 -58 -864 
z
M 2445 1997 
Q 2445 2291 2333 2489 
Q 2221 2688 2022 2688 
Q 1747 2688 1472 2361 
Q 1197 2035 1056 1530 
Q 762 467 762 288 
Q 762 186 851 118 
Q 941 51 1075 51 
Q 1472 58 1798 390 
Q 2125 723 2285 1161 
Q 2445 1600 2445 1997 
z
" transform="scale(0.015625)"/>
       <path id="STIXGeneral-Regular-2264" d="M 4026 326 
L 410 2074 
L 410 2138 
L 4026 3898 
L 4026 3482 
L 1261 2106 
L 4026 730 
L 4026 326 
z
M 4026 -659 
L 410 -659 
L 410 -237 
L 4026 -237 
L 4026 -659 
z
" transform="scale(0.015625)"/>
       <path id="STIXGeneral-Regular-30" d="M 3046 2112 
Q 3046 1683 2963 1302 
Q 2880 922 2717 602 
Q 2554 282 2266 96 
Q 1978 -90 1600 -90 
Q 1210 -90 915 108 
Q 621 307 461 640 
Q 301 973 227 1350 
Q 154 1728 154 2150 
Q 154 2746 301 3222 
Q 448 3699 790 4012 
Q 1133 4326 1626 4326 
Q 2253 4326 2649 3712 
Q 3046 3098 3046 2112 
z
M 2432 2080 
Q 2432 3091 2217 3625 
Q 2003 4160 1587 4160 
Q 1190 4160 979 3622 
Q 768 3085 768 2106 
Q 768 1120 979 598 
Q 1190 77 1600 77 
Q 2003 77 2217 598 
Q 2432 1120 2432 2080 
z
" transform="scale(0.015625)"/>
       <path id="STIXGeneral-Regular-2e" d="M 1158 275 
Q 1158 134 1052 32 
Q 947 -70 800 -70 
Q 653 -70 550 32 
Q 448 134 448 281 
Q 448 429 553 534 
Q 659 640 806 640 
Q 947 640 1052 531 
Q 1158 422 1158 275 
z
" transform="scale(0.015625)"/>
       <path id="STIXGeneral-Regular-31" d="M 2522 0 
L 755 0 
L 755 96 
Q 1107 115 1235 227 
Q 1363 339 1363 608 
L 1363 3482 
Q 1363 3795 1171 3795 
Q 1082 3795 883 3718 
L 710 3654 
L 710 3744 
L 1856 4326 
L 1914 4307 
L 1914 486 
Q 1914 275 2042 185 
Q 2170 96 2522 96 
L 2522 0 
z
" transform="scale(0.015625)"/>
      </defs>
      <use xlink:href="#STIXGeneral-Regular-7c" transform="translate(0 0.40625)"/>
      <use xlink:href="#STIXGeneral-Italic-3c1" transform="translate(19.999985 0.40625)"/>
      <use xlink:href="#STIXGeneral-Regular-7c" transform="translate(70.399979 0.40625)"/>
      <use xlink:href="#STIXGeneral-Regular-2264" transform="translate(104.83996 0.40625)"/>
      <use xlink:href="#STIXGeneral-Regular-30" transform="translate(187.779941 0.40625)"/>
      <use xlink:href="#STIXGeneral-Regular-2e" transform="translate(237.779926 0.40625)"/>
      <use xlink:href="#STIXGeneral-Regular-31" transform="translate(262.77991 0.40625)"/>
     </g>
    </g>
    <g id="patch_23">
     <path d="M 379.254921 23.554766 
L 396.254921 23.554766 
L 396.254921 17.604766 
L 379.254921 17.604766 
z
" style="fill: #0072b2; opacity: 0.88"/>
    </g>
    <g id="text_39">
     <!-- $\rho_{SL}$ -->
     <g transform="translate(398.379921 23.554766) scale(0.085 -0.085)">
      <defs>
       <path id="STIXGeneral-Italic-53" d="M 3251 4269 
L 2995 2989 
L 2880 3008 
Q 2880 3539 2720 3795 
Q 2560 4051 2118 4051 
Q 1786 4051 1594 3881 
Q 1402 3712 1402 3411 
Q 1402 3168 1504 3005 
Q 1606 2842 2035 2413 
Q 2464 1978 2611 1715 
Q 2758 1453 2758 1133 
Q 2758 589 2390 237 
Q 2022 -115 1466 -115 
Q 1222 -115 800 32 
Q 595 109 499 109 
Q 288 109 224 -96 
L 109 -96 
L 326 1338 
L 454 1325 
Q 442 1267 442 1178 
Q 442 710 701 409 
Q 960 109 1363 109 
Q 1734 109 1968 336 
Q 2202 563 2202 928 
Q 2202 1139 2118 1308 
Q 2035 1478 1818 1715 
L 1568 1984 
Q 1549 2003 1459 2102 
Q 1370 2202 1318 2253 
Q 1030 2560 934 2755 
Q 838 2950 838 3213 
Q 838 3699 1168 3980 
Q 1498 4262 1978 4262 
Q 2310 4262 2522 4173 
Q 2707 4102 2816 4102 
Q 2925 4102 2982 4134 
Q 3040 4166 3104 4269 
L 3251 4269 
z
" transform="scale(0.015625)"/>
       <path id="STIXGeneral-Italic-4c" d="M 3578 1152 
L 3206 0 
L -51 0 
L -51 102 
Q 218 128 301 211 
Q 384 294 474 602 
L 1254 3405 
Q 1325 3642 1325 3802 
Q 1325 3942 1225 4000 
Q 1126 4058 832 4077 
L 832 4179 
L 2579 4179 
L 2579 4077 
Q 2285 4058 2147 3955 
Q 2010 3853 1933 3584 
L 1165 838 
Q 1101 595 1101 493 
Q 1101 346 1241 288 
Q 1382 230 1773 230 
Q 2266 230 2480 275 
Q 2694 320 2925 474 
Q 3187 646 3450 1190 
L 3578 1152 
z
" transform="scale(0.015625)"/>
      </defs>
      <use xlink:href="#STIXGeneral-Italic-3c1" transform="translate(0 0.90625)"/>
      <use xlink:href="#STIXGeneral-Italic-53" transform="translate(50.399994 -12.321875) scale(0.7)"/>
      <use xlink:href="#STIXGeneral-Italic-4c" transform="translate(85.399983 -12.321875) scale(0.7)"/>
     </g>
    </g>
    <g id="patch_24">
     <path d="M 429.659921 11.51 
L 446.659921 11.51 
L 446.659921 5.56 
L 429.659921 5.56 
z
" style="fill: #e69f00; opacity: 0.88"/>
    </g>
    <g id="text_40">
     <!-- $\rho_{QS}$ -->
     <g transform="translate(448.784921 11.51) scale(0.085 -0.085)">
      <defs>
       <path id="STIXGeneral-Italic-51" d="M 442 -1082 
L 378 -979 
Q 749 -717 912 -589 
Q 1075 -461 1510 -77 
Q 966 32 675 425 
Q 384 819 384 1440 
Q 384 2035 678 2624 
Q 973 3213 1491 3661 
Q 2202 4262 3034 4262 
Q 3680 4262 4077 3833 
Q 4474 3405 4474 2746 
Q 4474 1997 4019 1277 
Q 3565 557 2835 173 
Q 2400 -64 1786 -102 
L 1440 -467 
L 1600 -467 
Q 1824 -467 2387 -595 
Q 2938 -730 3098 -730 
Q 3443 -730 3673 -624 
Q 3904 -518 4173 -237 
L 4275 -307 
Q 4122 -525 3942 -685 
Q 3411 -1165 2720 -1165 
Q 2298 -1165 1773 -998 
Q 1421 -883 1178 -883 
Q 800 -883 442 -1082 
z
M 3802 3072 
Q 3802 3526 3581 3788 
Q 3360 4051 2976 4051 
Q 2272 4051 1734 3251 
Q 1446 2822 1251 2230 
Q 1056 1638 1056 1171 
Q 1056 691 1273 400 
Q 1491 109 1850 109 
Q 2579 109 3117 902 
Q 3411 1350 3606 1964 
Q 3802 2579 3802 3072 
z
" transform="scale(0.015625)"/>
      </defs>
      <use xlink:href="#STIXGeneral-Italic-3c1" transform="translate(0 0.90625)"/>
      <use xlink:href="#STIXGeneral-Italic-51" transform="translate(50.399994 -12.321875) scale(0.7)"/>
      <use xlink:href="#STIXGeneral-Italic-53" transform="translate(100.939981 -12.321875) scale(0.7)"/>
     </g>
    </g>
    <g id="patch_25">
     <path d="M 429.659921 23.92 
L 446.659921 23.92 
L 446.659921 17.97 
L 429.659921 17.97 
z
" style="fill: #cc79a7; opacity: 0.88"/>
    </g>
    <g id="text_41">
     <!-- $\rho_{QL}$ -->
     <g transform="translate(448.784921 23.92) scale(0.085 -0.085)">
      <use xlink:href="#STIXGeneral-Italic-3c1" transform="translate(0 0.90625)"/>
      <use xlink:href="#STIXGeneral-Italic-51" transform="translate(50.399994 -12.321875) scale(0.7)"/>
      <use xlink:href="#STIXGeneral-Italic-4c" transform="translate(100.939981 -12.321875) scale(0.7)"/>
     </g>
    </g>
   </g>
  </g>
 </g>
 <defs>
  <clipPath id="p5951f9c894">
   <rect x="33.419375" y="34.675939" width="108.386862" height="89.593883"/>
  </clipPath>
  <clipPath id="p766ce84b87">
   <rect x="218.549378" y="34.675939" width="108.386862" height="89.593883"/>
  </clipPath>
  <clipPath id="pc6e336acf8">
   <rect x="373.772658" y="34.675939" width="108.386862" height="89.593883"/>
  </clipPath>
 </defs>
</svg>
