<svg xmlns="http://www.w3.org/2000/svg" width="1100" height="620" viewBox="0 0 1100 620">
<rect width="100%" height="100%" fill="#fff"/>
<text x="44.0" y="42.0" font-size="22" font-weight="700" text-anchor="start" fill="#222">Rotation quantization and low-loss Q+S+R smoke summary</text>
<text x="44.0" y="68.0" font-size="13" font-weight="400" text-anchor="start" fill="#555">Lower is better for all bars. Lossless threshold: benchmark drop &lt; 1%.</text>
<text x="44.0" y="96.0" font-size="15" font-weight="700" text-anchor="start" fill="#222">median relative Q error</text>
<text x="44.0" y="123.0" font-size="12" font-weight="400" text-anchor="start" fill="#222">Pythia-70M</text>
<rect x="210.0" y="110.0" width="196.5" height="14.0" fill="#6b7c93"/>
<rect x="210.0" y="128.0" width="193.9" height="14.0" fill="#167f74"/>
<text x="488.0" y="122.0" font-size="10" font-weight="400" text-anchor="start" fill="#444">RTN 0.1421</text>
<text x="488.0" y="140.0" font-size="10" font-weight="400" text-anchor="start" fill="#444">Rot 0.1402</text>
<text x="44.0" y="171.0" font-size="12" font-weight="400" text-anchor="start" fill="#222">Qwen2.5-1.5B</text>
<rect x="210.0" y="158.0" width="270.0" height="14.0" fill="#6b7c93"/>
<rect x="210.0" y="176.0" width="195.1" height="14.0" fill="#167f74"/>
<text x="488.0" y="170.0" font-size="10" font-weight="400" text-anchor="start" fill="#444">RTN 0.1953</text>
<text x="488.0" y="188.0" font-size="10" font-weight="400" text-anchor="start" fill="#444">Rot 0.1411</text>
<text x="44.0" y="246.0" font-size="15" font-weight="700" text-anchor="start" fill="#222">median Hessian Q cost</text>
<text x="44.0" y="273.0" font-size="12" font-weight="400" text-anchor="start" fill="#222">Pythia-70M</text>
<rect x="210.0" y="260.0" width="59.6" height="14.0" fill="#6b7c93"/>
<rect x="210.0" y="278.0" width="65.3" height="14.0" fill="#167f74"/>
<text x="488.0" y="272.0" font-size="10" font-weight="400" text-anchor="start" fill="#444">RTN 3.954</text>
<text x="488.0" y="290.0" font-size="10" font-weight="400" text-anchor="start" fill="#444">Rot 4.33</text>
<text x="44.0" y="321.0" font-size="12" font-weight="400" text-anchor="start" fill="#222">Qwen2.5-1.5B</text>
<rect x="210.0" y="308.0" width="270.0" height="14.0" fill="#6b7c93"/>
<rect x="210.0" y="326.0" width="124.3" height="14.0" fill="#167f74"/>
<text x="488.0" y="320.0" font-size="10" font-weight="400" text-anchor="start" fill="#444">RTN 17.9</text>
<text x="488.0" y="338.0" font-size="10" font-weight="400" text-anchor="start" fill="#444">Rot 8.244</text>
<text x="44.0" y="396.0" font-size="15" font-weight="700" text-anchor="start" fill="#222">median input outlier ratio</text>
<text x="44.0" y="423.0" font-size="12" font-weight="400" text-anchor="start" fill="#222">Pythia-70M</text>
<rect x="210.0" y="410.0" width="182.1" height="14.0" fill="#6b7c93"/>
<rect x="210.0" y="428.0" width="154.2" height="14.0" fill="#167f74"/>
<text x="488.0" y="422.0" font-size="10" font-weight="400" text-anchor="start" fill="#444">RTN 1.405</text>
<text x="488.0" y="440.0" font-size="10" font-weight="400" text-anchor="start" fill="#444">Rot 1.19</text>
<text x="44.0" y="471.0" font-size="12" font-weight="400" text-anchor="start" fill="#222">Qwen2.5-1.5B</text>
<rect x="210.0" y="458.0" width="270.0" height="14.0" fill="#6b7c93"/>
<rect x="210.0" y="476.0" width="187.2" height="14.0" fill="#167f74"/>
<text x="488.0" y="470.0" font-size="10" font-weight="400" text-anchor="start" fill="#444">RTN 2.084</text>
<text x="488.0" y="488.0" font-size="10" font-weight="400" text-anchor="start" fill="#444">Rot 1.445</text>
<text x="650.0" y="96.0" font-size="15" font-weight="700" text-anchor="start" fill="#222">Low-loss triple-stack benchmark drop</text>
<text x="650.0" y="126.0" font-size="13" font-weight="700" text-anchor="start" fill="#222">Pythia-70M</text>
<rect x="650.0" y="142.0" width="0.0" height="18.0" fill="#7c2bd6"/>
<rect x="950.0" y="142.0" width="2.0" height="18.0" fill="#111"/>
<text x="960.0" y="156.0" font-size="11" font-weight="400" text-anchor="start" fill="#222">0.0000% pass=True</text>
<text x="650.0" y="178.0" font-size="11" font-weight="400" text-anchor="start" fill="#555">order=rqs q=rtn PPL deg=-1.1569</text>
<text x="650.0" y="202.0" font-size="13" font-weight="700" text-anchor="start" fill="#222">Qwen2.5-1.5B</text>
<rect x="650.0" y="218.0" width="7.3" height="18.0" fill="#7c2bd6"/>
<rect x="950.0" y="218.0" width="2.0" height="18.0" fill="#111"/>
<text x="960.0" y="232.0" font-size="11" font-weight="400" text-anchor="start" fill="#222">0.0244% pass=True</text>
<text x="650.0" y="254.0" font-size="11" font-weight="400" text-anchor="start" fill="#555">order=rqs q=rotated_rtn PPL deg=0.0089</text>
<text x="650.0" y="320.0" font-size="15" font-weight="700" text-anchor="start" fill="#222">Structured Qwen phase5 Hadamard check</text>
<text x="650.0" y="352.0" font-size="12" font-weight="400" text-anchor="start" fill="#222">input outlier max/median: 1.237 -&gt; 1.079</text>
<text x="650.0" y="378.0" font-size="12" font-weight="400" text-anchor="start" fill="#222">outlier count: 18 -&gt; 0</text>
<text x="650.0" y="404.0" font-size="12" font-weight="400" text-anchor="start" fill="#222">4-bit quantization error: 0.1869 -&gt; 0.1657</text>
<rect x="650.0" y="432.0" width="280.4" height="18.0" fill="#6b7c93"/>
<rect x="650.0" y="456.0" width="248.6" height="18.0" fill="#167f74"/>
<text x="960.0" y="446.0" font-size="11" font-weight="400" text-anchor="start" fill="#222">none</text>
<text x="960.0" y="470.0" font-size="11" font-weight="400" text-anchor="start" fill="#222">Hadamard</text>
<text x="650.0" y="520.0" font-size="15" font-weight="700" text-anchor="start" fill="#222">Zero-shot benchmark check</text>
<text x="650.0" y="548.0" font-size="12" font-weight="400" text-anchor="start" fill="#222">ARC-Easy 100 examples: baseline 0.280 -&gt; low-loss 0.320</text>
<text x="650.0" y="574.0" font-size="12" font-weight="400" text-anchor="start" fill="#222">benchmark drop 0.0000% pass=True order=rqs q=rotated_rtn</text>
</svg>