<svg xmlns="http://www.w3.org/2000/svg" width="1250" height="560" viewBox="0 0 1250 560">
<rect width="100%" height="100%" fill="white"/>
<style>text{font-family:Arial,Helvetica,sans-serif;font-size:12px;fill:#222}.small{font-size:10px}.axis{stroke:#333;stroke-width:1}.grid{stroke:#ddd;stroke-width:1}.legend{font-size:11px}</style>
<text x="80.0" y="24.0" text-anchor="start">Strategy PPL comparison</text>
<line x1="80" y1="430.0" x2="990" y2="430.0" class="grid"/>
<text x="72.0" y="434.0" text-anchor="end" class="small">10.0000</text>
<line x1="80" y1="377.3" x2="990" y2="377.3" class="grid"/>
<text x="72.0" y="381.3" text-anchor="end" class="small">100.0</text>
<line x1="80" y1="324.5" x2="990" y2="324.5" class="grid"/>
<text x="72.0" y="328.5" text-anchor="end" class="small">1000.0</text>
<line x1="80" y1="271.8" x2="990" y2="271.8" class="grid"/>
<text x="72.0" y="275.8" text-anchor="end" class="small">10000.0</text>
<line x1="80" y1="219.1" x2="990" y2="219.1" class="grid"/>
<text x="72.0" y="223.1" text-anchor="end" class="small">1.000e+05</text>
<line x1="80" y1="166.3" x2="990" y2="166.3" class="grid"/>
<text x="72.0" y="170.3" text-anchor="end" class="small">1.000e+06</text>
<line x1="80" y1="113.6" x2="990" y2="113.6" class="grid"/>
<text x="72.0" y="117.6" text-anchor="end" class="small">1.000e+07</text>
<line x1="80" y1="60.9" x2="990" y2="60.9" class="grid"/>
<text x="72.0" y="64.9" text-anchor="end" class="small">1.000e+08</text>
<line x1="80" y1="8.1" x2="990" y2="8.1" class="grid"/>
<text x="72.0" y="12.1" text-anchor="end" class="small">1.000e+09</text>
<line x1="80" y1="45" x2="80" y2="430" class="axis"/>
<line x1="80" y1="430" x2="990" y2="430" class="axis"/>
<text x="18.0" y="237.5" text-anchor="middle" transform="rotate(-90 18.0 237.5)">Perplexity (log scale)</text>
<rect x="131.0" y="385.9" width="13.8" height="44.1" fill="#4C78A8"/>
<rect x="147.0" y="284.0" width="13.8" height="146.0" fill="#76B7B2"/>
<rect x="163.0" y="376.1" width="13.8" height="53.9" fill="#9C755F"/>
<rect x="179.0" y="376.7" width="13.8" height="53.3" fill="#BAB0AC"/>
<rect x="195.0" y="378.0" width="13.8" height="52.0" fill="#2F4B7C"/>
<text x="166.0" y="448.0" text-anchor="end" class="small" transform="rotate(-35 166.0 448.0)">70M_default_4bit_6mods</text>
<rect x="313.0" y="385.9" width="13.8" height="44.1" fill="#4C78A8"/>
<rect x="329.0" y="218.6" width="13.8" height="211.4" fill="#76B7B2"/>
<rect x="345.0" y="345.6" width="13.8" height="84.4" fill="#9C755F"/>
<rect x="361.0" y="342.6" width="13.8" height="87.4" fill="#BAB0AC"/>
<rect x="377.0" y="348.4" width="13.8" height="81.6" fill="#2F4B7C"/>
<text x="348.0" y="448.0" text-anchor="end" class="small" transform="rotate(-35 348.0 448.0)">70M_mid_3bit_12mods</text>
<rect x="495.0" y="385.9" width="13.8" height="44.1" fill="#4C78A8"/>
<rect x="511.0" y="59.8" width="13.8" height="370.2" fill="#76B7B2"/>
<rect x="527.0" y="59.9" width="13.8" height="370.1" fill="#9C755F"/>
<rect x="543.0" y="73.0" width="13.8" height="357.0" fill="#BAB0AC"/>
<rect x="559.0" y="84.2" width="13.8" height="345.8" fill="#2F4B7C"/>
<text x="530.0" y="448.0" text-anchor="end" class="small" transform="rotate(-35 530.0 448.0)">70M_strong_2bit_12mods</text>
<rect x="677.0" y="395.1" width="13.8" height="34.9" fill="#4C78A8"/>
<rect x="693.0" y="281.6" width="13.8" height="148.4" fill="#76B7B2"/>
<rect x="709.0" y="370.3" width="13.8" height="59.7" fill="#9C755F"/>
<rect x="725.0" y="374.4" width="13.8" height="55.6" fill="#BAB0AC"/>
<rect x="741.0" y="374.6" width="13.8" height="55.4" fill="#2F4B7C"/>
<text x="712.0" y="448.0" text-anchor="end" class="small" transform="rotate(-35 712.0 448.0)">160M_mid_3bit_12mods</text>
<rect x="859.0" y="425.1" width="13.8" height="4.9" fill="#4C78A8"/>
<rect x="875.0" y="405.3" width="13.8" height="24.7" fill="#76B7B2"/>
<rect x="891.0" y="416.0" width="13.8" height="14.0" fill="#9C755F"/>
<rect x="907.0" y="417.7" width="13.8" height="12.3" fill="#BAB0AC"/>
<rect x="923.0" y="417.5" width="13.8" height="12.5" fill="#2F4B7C"/>
<text x="894.0" y="448.0" text-anchor="end" class="small" transform="rotate(-35 894.0 448.0)">Qwen2.5_1.5B_mid_3bit_12mods</text>
<rect x="1015" y="55" width="12" height="12" fill="#4C78A8"/>
<text x="1033.0" y="65.0" text-anchor="start" class="legend">baseline</text>
<rect x="1015" y="73" width="12" height="12" fill="#76B7B2"/>
<text x="1033.0" y="83.0" text-anchor="start" class="legend">naive QSR</text>
<rect x="1015" y="91" width="12" height="12" fill="#9C755F"/>
<text x="1033.0" y="101.0" text-anchor="start" class="legend">default QSR</text>
<rect x="1015" y="109" width="12" height="12" fill="#BAB0AC"/>
<text x="1033.0" y="119.0" text-anchor="start" class="legend">SLiM-like SRQ</text>
<rect x="1015" y="127" width="12" height="12" fill="#2F4B7C"/>
<text x="1033.0" y="137.0" text-anchor="start" class="legend">Hessian layer-wise</text>
</svg>